<?xml version="1.0" encoding="UTF-8"?>
<svg xmlns="http://www.w3.org/2000/svg" version="1.1" width="200" height="200" viewBox="0 0 200 200"><rect x="0" y="0" width="200" height="200" fill="#ffffff"/><g transform="scale(5.405)"><g transform="translate(0,0)"><path fill-rule="evenodd" d="M8 0L8 1L9 1L9 2L8 2L8 5L9 5L9 4L11 4L11 5L10 5L10 9L9 9L9 8L8 8L8 9L7 9L7 8L6 8L6 9L7 9L7 10L5 10L5 9L4 9L4 8L0 8L0 9L3 9L3 10L5 10L5 11L7 11L7 12L6 12L6 13L7 13L7 14L5 14L5 13L3 13L3 14L5 14L5 15L7 15L7 16L6 16L6 17L7 17L7 16L9 16L9 17L8 17L8 18L5 18L5 20L4 20L4 21L3 21L3 23L1 23L1 24L0 24L0 25L1 25L1 24L2 24L2 25L3 25L3 26L4 26L4 27L2 27L2 26L1 26L1 27L0 27L0 28L1 28L1 27L2 27L2 28L3 28L3 29L7 29L7 28L4 28L4 27L5 27L5 24L6 24L6 25L7 25L7 26L6 26L6 27L8 27L8 25L11 25L11 26L12 26L12 28L11 28L11 29L12 29L12 30L10 30L10 27L9 27L9 29L8 29L8 30L10 30L10 32L11 32L11 33L8 33L8 37L9 37L9 36L10 36L10 34L11 34L11 35L14 35L14 34L15 34L15 33L14 33L14 32L13 32L13 30L14 30L14 29L12 29L12 28L14 28L14 27L15 27L15 28L16 28L16 27L18 27L18 28L19 28L19 27L20 27L20 26L21 26L21 29L22 29L22 30L21 30L21 31L20 31L20 32L19 32L19 34L20 34L20 33L21 33L21 34L23 34L23 35L25 35L25 37L26 37L26 35L27 35L27 34L28 34L28 33L29 33L29 34L30 34L30 35L33 35L33 36L30 36L30 37L37 37L37 36L35 36L35 34L37 34L37 33L36 33L36 32L37 32L37 30L36 30L36 29L35 29L35 28L34 28L34 31L33 31L33 27L31 27L31 26L33 26L33 25L35 25L35 26L34 26L34 27L36 27L36 26L37 26L37 25L36 25L36 24L37 24L37 23L35 23L35 22L36 22L36 20L35 20L35 21L34 21L34 19L33 19L33 18L35 18L35 19L37 19L37 17L36 17L36 15L35 15L35 16L34 16L34 17L33 17L33 18L32 18L32 19L31 19L31 17L30 17L30 16L32 16L32 13L33 13L33 14L34 14L34 13L35 13L35 14L37 14L37 12L36 12L36 13L35 13L35 11L34 11L34 9L35 9L35 8L32 8L32 9L33 9L33 10L31 10L31 12L30 12L30 13L27 13L27 14L31 14L31 15L30 15L30 16L29 16L29 15L28 15L28 16L27 16L27 15L26 15L26 14L24 14L24 15L23 15L23 12L24 12L24 11L25 11L25 13L26 13L26 12L29 12L29 11L30 11L30 10L28 10L28 11L26 11L26 10L25 10L25 9L27 9L27 6L26 6L26 5L28 5L28 7L29 7L29 5L28 5L28 4L29 4L29 1L28 1L28 3L27 3L27 2L26 2L26 1L27 1L27 0L26 0L26 1L24 1L24 0L23 0L23 2L24 2L24 3L25 3L25 4L26 4L26 5L25 5L25 6L24 6L24 7L23 7L23 5L22 5L22 4L19 4L19 3L20 3L20 2L22 2L22 0L21 0L21 1L20 1L20 0L19 0L19 1L20 1L20 2L19 2L19 3L16 3L16 2L15 2L15 3L14 3L14 5L13 5L13 3L12 3L12 4L11 4L11 2L14 2L14 0L12 0L12 1L11 1L11 0L10 0L10 1L9 1L9 0ZM15 0L15 1L16 1L16 0ZM17 1L17 2L18 2L18 1ZM26 3L26 4L27 4L27 3ZM16 4L16 5L14 5L14 6L13 6L13 5L12 5L12 6L11 6L11 8L12 8L12 6L13 6L13 8L14 8L14 9L15 9L15 10L14 10L14 11L11 11L11 10L12 10L12 9L11 9L11 10L9 10L9 9L8 9L8 10L9 10L9 14L8 14L8 15L9 15L9 16L11 16L11 18L10 18L10 17L9 17L9 18L10 18L10 19L9 19L9 22L8 22L8 21L6 21L6 20L7 20L7 19L6 19L6 20L5 20L5 22L4 22L4 23L3 23L3 24L4 24L4 23L6 23L6 24L8 24L8 23L9 23L9 24L11 24L11 23L14 23L14 22L15 22L15 24L12 24L12 26L13 26L13 27L14 27L14 26L15 26L15 27L16 27L16 26L17 26L17 24L18 24L18 23L17 23L17 19L15 19L15 21L13 21L13 18L14 18L14 15L16 15L16 16L15 16L15 17L16 17L16 16L17 16L17 18L18 18L18 21L19 21L19 20L20 20L20 22L19 22L19 23L20 23L20 24L19 24L19 25L21 25L21 26L22 26L22 24L23 24L23 27L22 27L22 29L23 29L23 28L25 28L25 27L26 27L26 28L30 28L30 26L31 26L31 25L32 25L32 24L34 24L34 22L33 22L33 21L32 21L32 22L33 22L33 23L32 23L32 24L31 24L31 20L29 20L29 22L28 22L28 21L27 21L27 20L26 20L26 19L27 19L27 17L26 17L26 18L25 18L25 17L24 17L24 18L23 18L23 19L25 19L25 20L22 20L22 18L21 18L21 17L20 17L20 16L21 16L21 15L22 15L22 16L23 16L23 15L22 15L22 11L23 11L23 9L24 9L24 8L23 8L23 9L22 9L22 10L21 10L21 12L20 12L20 15L19 15L19 14L17 14L17 13L16 13L16 12L15 12L15 11L17 11L17 12L18 12L18 11L17 11L17 7L18 7L18 5L17 5L17 4ZM16 5L16 7L17 7L17 5ZM21 5L21 7L20 7L20 6L19 6L19 8L18 8L18 9L19 9L19 8L20 8L20 9L21 9L21 8L22 8L22 5ZM8 6L8 7L9 7L9 6ZM14 6L14 7L15 7L15 6ZM25 6L25 8L26 8L26 6ZM28 8L28 9L30 9L30 8ZM36 8L36 9L37 9L37 8ZM0 10L0 11L2 11L2 10ZM19 10L19 11L20 11L20 10ZM3 11L3 12L4 12L4 11ZM10 11L10 12L11 12L11 11ZM7 12L7 13L8 13L8 12ZM12 12L12 13L11 13L11 16L12 16L12 17L13 17L13 16L12 16L12 14L13 14L13 15L14 15L14 14L16 14L16 13L15 13L15 12L14 12L14 14L13 14L13 12ZM31 12L31 13L32 13L32 12ZM33 12L33 13L34 13L34 12ZM9 14L9 15L10 15L10 14ZM1 15L1 16L0 16L0 17L2 17L2 18L1 18L1 21L2 21L2 19L4 19L4 16L3 16L3 15ZM18 15L18 16L19 16L19 15ZM25 15L25 16L26 16L26 15ZM2 16L2 17L3 17L3 16ZM28 16L28 18L29 18L29 19L30 19L30 18L29 18L29 16ZM18 17L18 18L19 18L19 17ZM10 19L10 20L12 20L12 19ZM32 19L32 20L33 20L33 19ZM21 20L21 22L20 22L20 23L21 23L21 22L22 22L22 23L24 23L24 26L26 26L26 27L27 27L27 26L28 26L28 27L29 27L29 26L30 26L30 25L31 25L31 24L29 24L29 23L30 23L30 22L29 22L29 23L27 23L27 22L26 22L26 21L25 21L25 22L24 22L24 21L22 21L22 20ZM10 21L10 23L11 23L11 21ZM6 22L6 23L7 23L7 22ZM25 22L25 23L26 23L26 24L25 24L25 25L26 25L26 24L27 24L27 23L26 23L26 22ZM16 23L16 24L15 24L15 26L16 26L16 24L17 24L17 23ZM28 24L28 25L29 25L29 24ZM13 25L13 26L14 26L14 25ZM18 26L18 27L19 27L19 26ZM15 29L15 30L16 30L16 29ZM18 29L18 31L17 31L17 32L16 32L16 33L18 33L18 31L19 31L19 29ZM24 29L24 30L22 30L22 31L21 31L21 32L23 32L23 31L24 31L24 32L25 32L25 35L26 35L26 34L27 34L27 33L28 33L28 32L26 32L26 31L27 31L27 30L25 30L25 29ZM29 29L29 32L32 32L32 29ZM30 30L30 31L31 31L31 30ZM11 31L11 32L12 32L12 31ZM34 31L34 32L33 32L33 34L34 34L34 33L35 33L35 31ZM11 33L11 34L12 34L12 33ZM31 33L31 34L32 34L32 33ZM15 35L15 36L14 36L14 37L19 37L19 36L20 36L20 37L21 37L21 35L19 35L19 36L17 36L17 35ZM12 36L12 37L13 37L13 36ZM27 36L27 37L28 37L28 36ZM0 0L0 7L7 7L7 0ZM1 1L1 6L6 6L6 1ZM2 2L2 5L5 5L5 2ZM30 0L30 7L37 7L37 0ZM31 1L31 6L36 6L36 1ZM32 2L32 5L35 5L35 2ZM0 30L0 37L7 37L7 30ZM1 31L1 36L6 36L6 31ZM2 32L2 35L5 35L5 32Z" fill="#000000"/></g></g></svg>
