<?xml version="1.0" encoding="UTF-8"?>
<svg xmlns="http://www.w3.org/2000/svg" version="1.1" width="200" height="200" viewBox="0 0 200 200"><rect x="0" y="0" width="200" height="200" fill="#ffffff"/><g transform="scale(5.405)"><g transform="translate(0,0)"><path fill-rule="evenodd" d="M9 0L9 1L8 1L8 2L9 2L9 3L8 3L8 4L10 4L10 7L11 7L11 4L12 4L12 5L13 5L13 6L12 6L12 9L13 9L13 10L11 10L11 11L10 11L10 10L9 10L9 9L11 9L11 8L6 8L6 9L8 9L8 10L6 10L6 11L7 11L7 12L6 12L6 13L8 13L8 14L9 14L9 13L8 13L8 12L10 12L10 14L11 14L11 13L12 13L12 14L13 14L13 13L14 13L14 14L15 14L15 15L16 15L16 14L15 14L15 13L16 13L16 11L15 11L15 13L14 13L14 12L13 12L13 13L12 13L12 11L14 11L14 10L15 10L15 9L16 9L16 10L20 10L20 9L21 9L21 12L20 12L20 13L18 13L18 12L19 12L19 11L18 11L18 12L17 12L17 13L18 13L18 14L20 14L20 15L19 15L19 16L15 16L15 17L14 17L14 16L13 16L13 15L12 15L12 17L14 17L14 18L11 18L11 15L10 15L10 16L9 16L9 18L8 18L8 19L9 19L9 21L8 21L8 20L6 20L6 19L7 19L7 18L6 18L6 19L5 19L5 17L7 17L7 16L8 16L8 15L7 15L7 14L5 14L5 12L4 12L4 11L5 11L5 8L0 8L0 9L2 9L2 10L3 10L3 9L4 9L4 11L2 11L2 13L4 13L4 14L5 14L5 16L2 16L2 18L1 18L1 17L0 17L0 18L1 18L1 19L0 19L0 21L1 21L1 23L0 23L0 24L1 24L1 23L2 23L2 24L4 24L4 25L0 25L0 29L1 29L1 26L2 26L2 29L3 29L3 27L7 27L7 26L5 26L5 24L6 24L6 25L7 25L7 24L8 24L8 26L9 26L9 28L10 28L10 26L11 26L11 29L12 29L12 30L13 30L13 31L12 31L12 33L13 33L13 32L14 32L14 33L15 33L15 32L17 32L17 33L19 33L19 34L18 34L18 36L17 36L17 34L15 34L15 35L14 35L14 36L15 36L15 37L19 37L19 34L21 34L21 36L20 36L20 37L21 37L21 36L22 36L22 37L23 37L23 36L22 36L22 33L20 33L20 32L23 32L23 31L22 31L22 30L21 30L21 28L22 28L22 26L23 26L23 25L25 25L25 26L24 26L24 28L23 28L23 30L24 30L24 33L23 33L23 34L24 34L24 36L25 36L25 37L26 37L26 36L29 36L29 37L37 37L37 33L35 33L35 32L36 32L36 31L37 31L37 28L33 28L33 27L34 27L34 25L36 25L36 23L37 23L37 22L36 22L36 21L37 21L37 18L36 18L36 17L37 17L37 16L36 16L36 15L37 15L37 14L36 14L36 15L35 15L35 14L33 14L33 11L32 11L32 10L30 10L30 13L31 13L31 14L30 14L30 17L29 17L29 18L26 18L26 19L28 19L28 20L29 20L29 18L30 18L30 19L31 19L31 20L30 20L30 21L31 21L31 22L30 22L30 24L29 24L29 23L28 23L28 22L29 22L29 21L28 21L28 22L27 22L27 23L28 23L28 24L24 24L24 23L25 23L25 21L26 21L26 20L25 20L25 17L28 17L28 14L29 14L29 11L28 11L28 10L29 10L29 9L30 9L30 8L29 8L29 9L28 9L28 10L27 10L27 8L28 8L28 7L29 7L29 6L28 6L28 5L29 5L29 4L28 4L28 5L27 5L27 6L26 6L26 4L27 4L27 3L28 3L28 2L29 2L29 0L28 0L28 1L26 1L26 0L25 0L25 2L24 2L24 3L25 3L25 4L21 4L21 6L20 6L20 7L21 7L21 8L20 8L20 9L18 9L18 8L19 8L19 5L20 5L20 4L19 4L19 2L18 2L18 3L17 3L17 4L18 4L18 8L17 8L17 9L16 9L16 7L17 7L17 6L16 6L16 5L15 5L15 4L16 4L16 1L15 1L15 0L14 0L14 1L15 1L15 4L14 4L14 3L13 3L13 4L12 4L12 2L13 2L13 1L11 1L11 2L10 2L10 0ZM18 0L18 1L20 1L20 0ZM21 0L21 1L22 1L22 0ZM21 2L21 3L22 3L22 2ZM25 2L25 3L27 3L27 2ZM10 3L10 4L11 4L11 3ZM13 4L13 5L14 5L14 4ZM8 5L8 7L9 7L9 5ZM22 5L22 6L21 6L21 7L22 7L22 8L21 8L21 9L25 9L25 12L21 12L21 13L20 13L20 14L21 14L21 13L25 13L25 16L26 16L26 15L27 15L27 13L25 13L25 12L27 12L27 10L26 10L26 9L25 9L25 8L26 8L26 6L25 6L25 5ZM13 6L13 8L14 8L14 9L15 9L15 8L14 8L14 6ZM15 6L15 7L16 7L16 6ZM22 6L22 7L23 7L23 6ZM24 6L24 7L25 7L25 6ZM27 6L27 7L28 7L28 6ZM31 8L31 9L32 9L32 8ZM33 8L33 10L34 10L34 8ZM35 8L35 9L36 9L36 8ZM22 10L22 11L24 11L24 10ZM35 10L35 11L36 11L36 13L37 13L37 10ZM31 11L31 13L32 13L32 11ZM0 12L0 16L1 16L1 15L2 15L2 14L1 14L1 12ZM34 12L34 13L35 13L35 12ZM22 14L22 16L21 16L21 17L20 17L20 16L19 16L19 17L20 17L20 18L19 18L19 21L15 21L15 20L18 20L18 17L15 17L15 18L16 18L16 19L15 19L15 20L14 20L14 19L12 19L12 21L9 21L9 22L8 22L8 23L9 23L9 24L10 24L10 23L9 23L9 22L11 22L11 26L13 26L13 27L12 27L12 29L15 29L15 30L17 30L17 32L19 32L19 31L20 31L20 30L17 30L17 29L15 29L15 28L19 28L19 29L20 29L20 26L19 26L19 25L20 25L20 24L21 24L21 25L23 25L23 23L22 23L22 22L21 22L21 21L25 21L25 20L24 20L24 18L21 18L21 17L24 17L24 14ZM31 14L31 15L32 15L32 16L31 16L31 17L30 17L30 18L31 18L31 19L32 19L32 18L33 18L33 21L32 21L32 20L31 20L31 21L32 21L32 23L31 23L31 25L32 25L32 27L33 27L33 25L32 25L32 24L33 24L33 21L34 21L34 20L35 20L35 17L36 17L36 16L35 16L35 15L33 15L33 14ZM6 15L6 16L7 16L7 15ZM32 16L32 17L31 17L31 18L32 18L32 17L35 17L35 16ZM2 18L2 19L3 19L3 20L4 20L4 21L3 21L3 22L2 22L2 23L3 23L3 22L4 22L4 21L6 21L6 22L5 22L5 23L6 23L6 24L7 24L7 23L6 23L6 22L7 22L7 21L6 21L6 20L5 20L5 19L4 19L4 18ZM9 18L9 19L10 19L10 20L11 20L11 18ZM21 19L21 20L22 20L22 19ZM12 21L12 22L13 22L13 23L12 23L12 25L13 25L13 24L14 24L14 25L19 25L19 24L20 24L20 23L19 23L19 22L20 22L20 21L19 21L19 22L18 22L18 24L16 24L16 22L14 22L14 21ZM14 23L14 24L15 24L15 23ZM21 23L21 24L22 24L22 23ZM34 23L34 24L35 24L35 23ZM27 25L27 26L25 26L25 28L26 28L26 29L25 29L25 30L26 30L26 31L25 31L25 32L26 32L26 33L25 33L25 36L26 36L26 33L27 33L27 32L28 32L28 30L26 30L26 29L28 29L28 27L27 27L27 26L28 26L28 25ZM29 25L29 26L30 26L30 27L29 27L29 28L30 28L30 27L31 27L31 26L30 26L30 25ZM15 26L15 27L14 27L14 28L15 28L15 27L16 27L16 26ZM35 26L35 27L37 27L37 26ZM4 28L4 29L7 29L7 28ZM8 29L8 31L9 31L9 29ZM29 29L29 32L32 32L32 29ZM34 29L34 30L33 30L33 32L35 32L35 31L34 31L34 30L35 30L35 29ZM10 30L10 31L11 31L11 30ZM30 30L30 31L31 31L31 30ZM14 31L14 32L15 32L15 31ZM8 32L8 37L12 37L12 35L13 35L13 34L11 34L11 33L9 33L9 32ZM31 33L31 34L29 34L29 35L31 35L31 34L32 34L32 36L36 36L36 35L34 35L34 33L33 33L33 34L32 34L32 33ZM9 34L9 36L11 36L11 34ZM27 34L27 35L28 35L28 34ZM15 35L15 36L16 36L16 35ZM0 0L0 7L7 7L7 0ZM1 1L1 6L6 6L6 1ZM2 2L2 5L5 5L5 2ZM30 0L30 7L37 7L37 0ZM31 1L31 6L36 6L36 1ZM32 2L32 5L35 5L35 2ZM0 30L0 37L7 37L7 30ZM1 31L1 36L6 36L6 31ZM2 32L2 35L5 35L5 32Z" fill="#000000"/></g></g></svg>
