<?xml version="1.0" encoding="UTF-8"?>
<svg xmlns="http://www.w3.org/2000/svg" version="1.1" width="200" height="200" viewBox="0 0 200 200"><rect x="0" y="0" width="200" height="200" fill="#ffffff"/><g transform="scale(5.405)"><g transform="translate(0,0)"><path fill-rule="evenodd" d="M9 0L9 1L8 1L8 3L9 3L9 4L8 4L8 8L6 8L6 9L5 9L5 10L4 10L4 8L3 8L3 9L2 9L2 8L0 8L0 10L1 10L1 11L2 11L2 12L0 12L0 13L2 13L2 15L1 15L1 16L2 16L2 17L0 17L0 18L1 18L1 19L2 19L2 18L3 18L3 20L2 20L2 22L0 22L0 23L2 23L2 22L4 22L4 23L3 23L3 24L0 24L0 25L1 25L1 26L0 26L0 27L1 27L1 28L0 28L0 29L2 29L2 27L4 27L4 25L3 25L3 24L5 24L5 23L8 23L8 21L10 21L10 16L9 16L9 17L7 17L7 16L6 16L6 17L7 17L7 18L5 18L5 14L6 14L6 15L8 15L8 14L9 14L9 13L10 13L10 15L11 15L11 14L12 14L12 16L11 16L11 17L12 17L12 16L13 16L13 17L14 17L14 18L13 18L13 20L12 20L12 19L11 19L11 25L10 25L10 24L6 24L6 25L5 25L5 26L6 26L6 27L7 27L7 28L5 28L5 29L7 29L7 28L8 28L8 31L9 31L9 33L8 33L8 34L9 34L9 35L8 35L8 37L11 37L11 36L10 36L10 32L11 32L11 31L12 31L12 32L13 32L13 30L14 30L14 32L15 32L15 29L14 29L14 28L12 28L12 24L14 24L14 25L13 25L13 27L15 27L15 28L16 28L16 29L18 29L18 31L17 31L17 30L16 30L16 32L18 32L18 33L17 33L17 34L16 34L16 35L14 35L14 36L15 36L15 37L19 37L19 36L20 36L20 34L21 34L21 37L22 37L22 36L23 36L23 37L27 37L27 36L28 36L28 37L29 37L29 35L31 35L31 34L32 34L32 36L30 36L30 37L32 37L32 36L33 36L33 35L37 35L37 34L35 34L35 33L36 33L36 32L37 32L37 30L36 30L36 29L37 29L37 25L36 25L36 24L37 24L37 20L36 20L36 22L35 22L35 21L34 21L34 20L35 20L35 19L37 19L37 12L36 12L36 13L34 13L34 12L33 12L33 13L31 13L31 12L32 12L32 11L34 11L34 9L35 9L35 11L37 11L37 9L36 9L36 8L34 8L34 9L33 9L33 8L30 8L30 9L29 9L29 10L30 10L30 11L31 11L31 12L30 12L30 13L29 13L29 12L28 12L28 11L27 11L27 12L26 12L26 9L27 9L27 8L29 8L29 5L28 5L28 4L29 4L29 3L27 3L27 2L28 2L28 1L29 1L29 0L25 0L25 1L26 1L26 4L25 4L25 5L26 5L26 8L25 8L25 11L24 11L24 14L23 14L23 13L22 13L22 12L23 12L23 9L24 9L24 8L23 8L23 6L22 6L22 5L24 5L24 3L23 3L23 2L24 2L24 0L22 0L22 1L21 1L21 0L18 0L18 1L17 1L17 0L15 0L15 2L16 2L16 3L15 3L15 5L14 5L14 7L15 7L15 8L16 8L16 9L17 9L17 10L18 10L18 9L17 9L17 8L18 8L18 7L19 7L19 6L20 6L20 7L21 7L21 10L19 10L19 11L18 11L18 12L16 12L16 11L15 11L15 9L14 9L14 8L13 8L13 6L12 6L12 5L11 5L11 6L10 6L10 5L9 5L9 4L12 4L12 3L13 3L13 0L12 0L12 1L11 1L11 2L9 2L9 1L10 1L10 0ZM16 1L16 2L17 2L17 1ZM18 1L18 2L19 2L19 3L20 3L20 4L19 4L19 5L20 5L20 4L23 4L23 3L22 3L22 2L23 2L23 1L22 1L22 2L21 2L21 1ZM20 2L20 3L21 3L21 2ZM17 3L17 4L16 4L16 6L15 6L15 7L16 7L16 6L17 6L17 7L18 7L18 5L17 5L17 4L18 4L18 3ZM9 6L9 7L10 7L10 8L8 8L8 9L6 9L6 10L5 10L5 12L4 12L4 10L3 10L3 12L2 12L2 13L4 13L4 14L5 14L5 12L7 12L7 13L6 13L6 14L7 14L7 13L9 13L9 11L10 11L10 8L11 8L11 9L12 9L12 10L11 10L11 13L12 13L12 12L13 12L13 8L12 8L12 6L11 6L11 7L10 7L10 6ZM21 6L21 7L22 7L22 6ZM24 6L24 7L25 7L25 6ZM27 6L27 7L28 7L28 6ZM1 9L1 10L2 10L2 9ZM8 9L8 11L7 11L7 10L6 10L6 11L7 11L7 12L8 12L8 11L9 11L9 9ZM32 9L32 10L31 10L31 11L32 11L32 10L33 10L33 9ZM21 10L21 11L22 11L22 10ZM15 12L15 14L17 14L17 13L16 13L16 12ZM19 12L19 13L18 13L18 14L19 14L19 15L18 15L18 16L19 16L19 15L20 15L20 17L19 17L19 19L18 19L18 17L17 17L17 15L16 15L16 16L15 16L15 15L14 15L14 16L15 16L15 18L14 18L14 20L13 20L13 21L14 21L14 22L15 22L15 23L14 23L14 24L15 24L15 27L16 27L16 28L17 28L17 27L16 27L16 25L17 25L17 26L18 26L18 27L20 27L20 28L21 28L21 27L22 27L22 28L23 28L23 29L24 29L24 30L25 30L25 29L27 29L27 28L28 28L28 27L29 27L29 25L27 25L27 23L28 23L28 20L29 20L29 19L30 19L30 18L28 18L28 17L30 17L30 16L32 16L32 17L31 17L31 19L33 19L33 20L34 20L34 19L33 19L33 18L35 18L35 17L36 17L36 15L35 15L35 14L34 14L34 13L33 13L33 14L31 14L31 15L30 15L30 16L28 16L28 12L27 12L27 14L26 14L26 13L25 13L25 15L26 15L26 16L24 16L24 15L23 15L23 17L22 17L22 18L21 18L21 19L20 19L20 17L21 17L21 15L22 15L22 14L21 14L21 12ZM13 13L13 14L14 14L14 13ZM19 13L19 14L20 14L20 13ZM2 15L2 16L3 16L3 18L4 18L4 20L5 20L5 18L4 18L4 16L3 16L3 15ZM26 16L26 17L25 17L25 18L26 18L26 17L28 17L28 16ZM34 16L34 17L35 17L35 16ZM23 17L23 18L22 18L22 19L21 19L21 20L18 20L18 19L17 19L17 18L16 18L16 20L18 20L18 21L17 21L17 22L19 22L19 23L18 23L18 24L17 24L17 25L19 25L19 26L20 26L20 25L19 25L19 23L20 23L20 24L21 24L21 26L22 26L22 27L23 27L23 28L24 28L24 27L25 27L25 28L26 28L26 27L27 27L27 26L26 26L26 23L27 23L27 21L26 21L26 20L28 20L28 19L26 19L26 20L25 20L25 22L24 22L24 23L25 23L25 24L24 24L24 25L25 25L25 26L23 26L23 23L21 23L21 22L19 22L19 21L24 21L24 20L22 20L22 19L23 19L23 18L24 18L24 17ZM32 17L32 18L33 18L33 17ZM7 18L7 19L6 19L6 20L9 20L9 19L8 19L8 18ZM0 20L0 21L1 21L1 20ZM14 20L14 21L15 21L15 20ZM31 20L31 23L30 23L30 22L29 22L29 24L31 24L31 25L30 25L30 28L32 28L32 27L33 27L33 29L34 29L34 31L33 31L33 34L34 34L34 33L35 33L35 32L34 32L34 31L35 31L35 29L34 29L34 28L35 28L35 27L36 27L36 26L35 26L35 27L34 27L34 26L33 26L33 25L35 25L35 23L34 23L34 22L33 22L33 21L32 21L32 20ZM4 21L4 22L5 22L5 21ZM6 21L6 22L7 22L7 21ZM25 22L25 23L26 23L26 22ZM32 22L32 23L31 23L31 24L34 24L34 23L33 23L33 22ZM2 25L2 26L1 26L1 27L2 27L2 26L3 26L3 25ZM6 25L6 26L7 26L7 25ZM9 25L9 26L10 26L10 25ZM31 25L31 27L32 27L32 25ZM8 27L8 28L9 28L9 27ZM10 28L10 30L12 30L12 28ZM19 29L19 31L18 31L18 32L19 32L19 34L18 34L18 35L17 35L17 36L19 36L19 34L20 34L20 32L21 32L21 31L22 31L22 30L21 30L21 31L20 31L20 29ZM29 29L29 32L32 32L32 29ZM26 30L26 31L25 31L25 32L26 32L26 34L27 34L27 35L29 35L29 34L31 34L31 33L28 33L28 30ZM30 30L30 31L31 31L31 30ZM19 31L19 32L20 32L20 31ZM23 31L23 32L22 32L22 33L21 33L21 34L23 34L23 36L25 36L25 35L24 35L24 34L23 34L23 33L24 33L24 31ZM11 33L11 34L12 34L12 33ZM14 33L14 34L15 34L15 33ZM27 33L27 34L28 34L28 33ZM12 36L12 37L13 37L13 36ZM35 36L35 37L37 37L37 36ZM0 0L0 7L7 7L7 0ZM1 1L1 6L6 6L6 1ZM2 2L2 5L5 5L5 2ZM30 0L30 7L37 7L37 0ZM31 1L31 6L36 6L36 1ZM32 2L32 5L35 5L35 2ZM0 30L0 37L7 37L7 30ZM1 31L1 36L6 36L6 31ZM2 32L2 35L5 35L5 32Z" fill="#000000"/></g></g></svg>
