<?xml version="1.0" encoding="UTF-8"?>
<svg xmlns="http://www.w3.org/2000/svg" version="1.1" width="200" height="200" viewBox="0 0 200 200"><rect x="0" y="0" width="200" height="200" fill="#ffffff"/><g transform="scale(5.405)"><g transform="translate(0,0)"><path fill-rule="evenodd" d="M8 0L8 1L10 1L10 0ZM15 0L15 1L14 1L14 2L11 2L11 4L10 4L10 3L9 3L9 2L8 2L8 5L9 5L9 6L8 6L8 7L9 7L9 8L8 8L8 9L7 9L7 8L6 8L6 9L7 9L7 10L6 10L6 11L7 11L7 10L8 10L8 13L7 13L7 12L5 12L5 11L4 11L4 10L5 10L5 9L4 9L4 8L0 8L0 9L2 9L2 10L1 10L1 11L0 11L0 14L1 14L1 12L2 12L2 13L7 13L7 14L4 14L4 16L3 16L3 15L2 15L2 16L1 16L1 15L0 15L0 16L1 16L1 17L2 17L2 18L3 18L3 19L1 19L1 18L0 18L0 20L3 20L3 22L5 22L5 20L6 20L6 21L7 21L7 22L6 22L6 23L7 23L7 24L5 24L5 23L3 23L3 24L2 24L2 25L1 25L1 27L0 27L0 28L1 28L1 27L2 27L2 28L3 28L3 29L4 29L4 28L3 28L3 25L4 25L4 27L5 27L5 29L8 29L8 30L9 30L9 33L8 33L8 37L12 37L12 36L15 36L15 37L16 37L16 36L17 36L17 37L19 37L19 36L17 36L17 35L16 35L16 34L17 34L17 33L18 33L18 31L19 31L19 29L18 29L18 30L17 30L17 29L15 29L15 28L16 28L16 27L17 27L17 26L19 26L19 27L18 27L18 28L19 28L19 27L20 27L20 26L21 26L21 28L20 28L20 29L22 29L22 30L21 30L21 31L20 31L20 32L19 32L19 34L20 34L20 35L21 35L21 34L22 34L22 36L25 36L25 37L26 37L26 35L27 35L27 34L28 34L28 33L29 33L29 34L30 34L30 35L33 35L33 36L30 36L30 37L37 37L37 36L35 36L35 34L37 34L37 33L36 33L36 32L35 32L35 33L34 33L34 34L33 34L33 32L34 32L34 31L37 31L37 30L36 30L36 29L35 29L35 28L34 28L34 31L33 31L33 27L31 27L31 26L33 26L33 25L35 25L35 26L34 26L34 27L36 27L36 26L37 26L37 25L36 25L36 24L37 24L37 23L35 23L35 22L36 22L36 20L35 20L35 21L34 21L34 19L33 19L33 18L35 18L35 19L37 19L37 17L36 17L36 15L35 15L35 16L34 16L34 17L33 17L33 18L32 18L32 19L31 19L31 17L30 17L30 16L32 16L32 13L33 13L33 14L34 14L34 13L35 13L35 14L37 14L37 12L36 12L36 13L35 13L35 11L34 11L34 9L35 9L35 8L32 8L32 9L33 9L33 10L31 10L31 12L30 12L30 13L27 13L27 14L28 14L28 15L29 15L29 14L31 14L31 15L30 15L30 16L29 16L29 18L28 18L28 17L27 17L27 16L24 16L24 15L23 15L23 11L24 11L24 14L25 14L25 15L26 15L26 14L25 14L25 13L26 13L26 11L25 11L25 10L24 10L24 9L23 9L23 5L22 5L22 4L21 4L21 3L20 3L20 2L19 2L19 1L20 1L20 0L19 0L19 1L17 1L17 0ZM21 0L21 1L22 1L22 2L24 2L24 3L25 3L25 4L26 4L26 2L27 2L27 3L29 3L29 1L28 1L28 2L27 2L27 1L26 1L26 2L25 2L25 0ZM16 1L16 3L12 3L12 5L10 5L10 6L9 6L9 7L10 7L10 8L9 8L9 9L8 9L8 10L9 10L9 9L10 9L10 10L11 10L11 11L14 11L14 10L15 10L15 12L12 12L12 14L10 14L10 12L9 12L9 14L8 14L8 15L5 15L5 16L4 16L4 17L5 17L5 19L6 19L6 20L7 20L7 19L8 19L8 18L9 18L9 17L10 17L10 18L12 18L12 17L14 17L14 18L13 18L13 20L14 20L14 21L15 21L15 22L14 22L14 23L11 23L11 25L9 25L9 24L8 24L8 25L6 25L6 26L5 26L5 27L6 27L6 28L8 28L8 29L10 29L10 30L11 30L11 31L10 31L10 32L11 32L11 33L10 33L10 34L9 34L9 35L10 35L10 34L11 34L11 35L14 35L14 34L16 34L16 32L17 32L17 30L16 30L16 31L15 31L15 33L13 33L13 30L14 30L14 27L16 27L16 26L17 26L17 25L16 25L16 26L14 26L14 24L16 24L16 22L17 22L17 24L19 24L19 25L21 25L21 26L22 26L22 24L23 24L23 27L22 27L22 29L23 29L23 27L26 27L26 28L27 28L27 29L28 29L28 28L30 28L30 26L31 26L31 25L32 25L32 24L34 24L34 22L33 22L33 21L32 21L32 22L33 22L33 23L32 23L32 24L31 24L31 19L30 19L30 18L29 18L29 22L28 22L28 21L27 21L27 20L26 20L26 19L27 19L27 17L26 17L26 18L25 18L25 17L24 17L24 18L23 18L23 19L24 19L24 18L25 18L25 21L26 21L26 22L25 22L25 23L22 23L22 22L21 22L21 20L22 20L22 21L24 21L24 20L22 20L22 18L20 18L20 17L19 17L19 16L20 16L20 15L22 15L22 16L23 16L23 15L22 15L22 11L23 11L23 9L22 9L22 10L21 10L21 8L22 8L22 5L20 5L20 6L19 6L19 8L18 8L18 9L17 9L17 8L15 8L15 9L13 9L13 7L14 7L14 5L15 5L15 7L16 7L16 5L17 5L17 7L18 7L18 5L19 5L19 4L20 4L20 3L19 3L19 4L17 4L17 3L18 3L18 2L17 2L17 1ZM13 4L13 5L12 5L12 7L11 7L11 6L10 6L10 7L11 7L11 8L12 8L12 7L13 7L13 5L14 5L14 4ZM27 4L27 5L26 5L26 8L27 8L27 9L26 9L26 10L27 10L27 9L28 9L28 11L27 11L27 12L28 12L28 11L30 11L30 10L29 10L29 9L30 9L30 8L29 8L29 6L28 6L28 7L27 7L27 5L29 5L29 4ZM20 6L20 8L19 8L19 10L20 10L20 8L21 8L21 6ZM24 6L24 7L25 7L25 6ZM36 8L36 9L37 9L37 8ZM17 10L17 11L16 11L16 12L15 12L15 14L14 14L14 13L13 13L13 14L12 14L12 16L11 16L11 17L12 17L12 16L14 16L14 15L15 15L15 14L16 14L16 15L18 15L18 16L19 16L19 15L20 15L20 13L19 13L19 12L21 12L21 11L19 11L19 12L17 12L17 11L18 11L18 10ZM3 11L3 12L4 12L4 11ZM31 12L31 13L32 13L32 12ZM33 12L33 13L34 13L34 12ZM16 13L16 14L17 14L17 13ZM13 14L13 15L14 15L14 14ZM8 15L8 17L7 17L7 16L5 16L5 17L7 17L7 18L6 18L6 19L7 19L7 18L8 18L8 17L9 17L9 15ZM15 16L15 19L16 19L16 18L18 18L18 17L17 17L17 16ZM3 19L3 20L4 20L4 19ZM11 19L11 20L12 20L12 19ZM17 19L17 21L18 21L18 20L19 20L19 22L20 22L20 23L19 23L19 24L21 24L21 22L20 22L20 20L21 20L21 19L20 19L20 20L19 20L19 19ZM32 19L32 20L33 20L33 19ZM8 20L8 22L7 22L7 23L9 23L9 22L12 22L12 21L9 21L9 20ZM15 20L15 21L16 21L16 20ZM1 22L1 23L0 23L0 24L1 24L1 23L2 23L2 22ZM26 22L26 23L25 23L25 24L24 24L24 26L26 26L26 27L27 27L27 28L28 28L28 27L29 27L29 26L30 26L30 25L31 25L31 24L29 24L29 23L30 23L30 22L29 22L29 23L27 23L27 22ZM26 23L26 24L25 24L25 25L26 25L26 24L27 24L27 23ZM12 24L12 25L11 25L11 26L10 26L10 27L11 27L11 28L10 28L10 29L11 29L11 28L12 28L12 29L13 29L13 28L12 28L12 26L13 26L13 27L14 27L14 26L13 26L13 24ZM8 25L8 26L6 26L6 27L9 27L9 25ZM27 26L27 27L28 27L28 26ZM24 28L24 29L25 29L25 28ZM29 29L29 32L32 32L32 29ZM22 30L22 31L21 31L21 32L23 32L23 33L24 33L24 32L25 32L25 34L24 34L24 35L26 35L26 34L27 34L27 33L28 33L28 32L26 32L26 31L28 31L28 30L25 30L25 31L24 31L24 30ZM30 30L30 31L31 31L31 30ZM11 31L11 32L12 32L12 31ZM23 31L23 32L24 32L24 31ZM20 33L20 34L21 34L21 33ZM31 33L31 34L32 34L32 33ZM15 35L15 36L16 36L16 35ZM20 36L20 37L21 37L21 36ZM27 36L27 37L28 37L28 36ZM0 0L0 7L7 7L7 0ZM1 1L1 6L6 6L6 1ZM2 2L2 5L5 5L5 2ZM30 0L30 7L37 7L37 0ZM31 1L31 6L36 6L36 1ZM32 2L32 5L35 5L35 2ZM0 30L0 37L7 37L7 30ZM1 31L1 36L6 36L6 31ZM2 32L2 35L5 35L5 32Z" fill="#000000"/></g></g></svg>
