<?xml version="1.0" encoding="UTF-8"?>
<svg xmlns="http://www.w3.org/2000/svg" version="1.1" width="200" height="200" viewBox="0 0 200 200"><rect x="0" y="0" width="200" height="200" fill="#ffffff"/><g transform="scale(5.405)"><g transform="translate(0,0)"><path fill-rule="evenodd" d="M8 0L8 1L9 1L9 2L8 2L8 5L9 5L9 4L11 4L11 5L10 5L10 9L9 9L9 8L8 8L8 10L6 10L6 11L8 11L8 10L11 10L11 11L9 11L9 13L8 13L8 12L6 12L6 13L7 13L7 14L6 14L6 15L5 15L5 14L4 14L4 15L3 15L3 13L4 13L4 12L5 12L5 11L4 11L4 10L5 10L5 9L4 9L4 8L0 8L0 10L1 10L1 9L2 9L2 12L0 12L0 13L2 13L2 15L1 15L1 14L0 14L0 17L1 17L1 16L3 16L3 17L4 17L4 15L5 15L5 16L6 16L6 17L5 17L5 18L6 18L6 19L5 19L5 20L4 20L4 19L2 19L2 20L1 20L1 18L0 18L0 21L2 21L2 20L4 20L4 21L5 21L5 20L6 20L6 21L7 21L7 20L8 20L8 19L9 19L9 21L8 21L8 22L6 22L6 23L5 23L5 22L3 22L3 24L1 24L1 27L0 27L0 28L1 28L1 27L2 27L2 26L3 26L3 25L4 25L4 26L5 26L5 27L4 27L4 28L3 28L3 29L5 29L5 27L7 27L7 28L6 28L6 29L8 29L8 30L9 30L9 32L10 32L10 33L8 33L8 37L10 37L10 36L11 36L11 35L14 35L14 32L15 32L15 33L18 33L18 31L19 31L19 30L18 30L18 31L17 31L17 28L16 28L16 27L17 27L17 26L18 26L18 27L20 27L20 25L21 25L21 26L22 26L22 27L21 27L21 28L20 28L20 29L22 29L22 30L20 30L20 32L21 32L21 34L23 34L23 35L24 35L24 36L22 36L22 37L26 37L26 36L27 36L27 37L28 37L28 36L27 36L27 34L28 34L28 33L29 33L29 34L31 34L31 35L33 35L33 36L30 36L30 37L37 37L37 36L35 36L35 34L37 34L37 30L36 30L36 29L35 29L35 28L34 28L34 31L33 31L33 27L31 27L31 26L33 26L33 25L35 25L35 26L34 26L34 27L36 27L36 26L37 26L37 25L36 25L36 24L37 24L37 23L35 23L35 22L36 22L36 20L35 20L35 21L34 21L34 19L33 19L33 18L35 18L35 19L37 19L37 17L36 17L36 15L35 15L35 16L34 16L34 17L33 17L33 18L32 18L32 19L31 19L31 17L30 17L30 16L32 16L32 13L33 13L33 14L34 14L34 13L35 13L35 14L37 14L37 12L36 12L36 13L35 13L35 11L34 11L34 9L35 9L35 8L32 8L32 9L33 9L33 10L31 10L31 12L30 12L30 13L28 13L28 12L27 12L27 13L28 13L28 15L27 15L27 16L25 16L25 15L26 15L26 11L27 11L27 10L28 10L28 11L30 11L30 10L29 10L29 9L30 9L30 8L28 8L28 7L29 7L29 4L28 4L28 7L27 7L27 6L26 6L26 7L27 7L27 8L28 8L28 9L27 9L27 10L26 10L26 11L23 11L23 10L25 10L25 8L24 8L24 7L25 7L25 6L24 6L24 7L23 7L23 4L22 4L22 5L21 5L21 2L22 2L22 3L23 3L23 2L24 2L24 1L25 1L25 3L24 3L24 4L25 4L25 5L27 5L27 3L28 3L28 2L29 2L29 0L27 0L27 1L28 1L28 2L26 2L26 0L21 0L21 1L20 1L20 0L19 0L19 1L17 1L17 2L15 2L15 1L14 1L14 2L15 2L15 3L12 3L12 4L11 4L11 2L13 2L13 0L12 0L12 1L11 1L11 0L10 0L10 1L9 1L9 0ZM19 1L19 2L20 2L20 1ZM17 2L17 3L18 3L18 2ZM19 3L19 4L20 4L20 3ZM25 3L25 4L26 4L26 3ZM13 4L13 5L12 5L12 6L11 6L11 8L12 8L12 6L13 6L13 11L11 11L11 13L12 13L12 12L13 12L13 11L14 11L14 13L13 13L13 14L12 14L12 16L11 16L11 15L10 15L10 16L8 16L8 15L9 15L9 14L7 14L7 15L6 15L6 16L7 16L7 17L6 17L6 18L7 18L7 19L6 19L6 20L7 20L7 19L8 19L8 18L9 18L9 19L10 19L10 21L11 21L11 23L13 23L13 21L15 21L15 23L14 23L14 25L13 25L13 24L12 24L12 26L11 26L11 25L10 25L10 22L9 22L9 25L8 25L8 28L9 28L9 30L12 30L12 29L13 29L13 28L15 28L15 29L16 29L16 28L15 28L15 27L16 27L16 26L17 26L17 25L16 25L16 26L15 26L15 23L16 23L16 24L18 24L18 26L19 26L19 25L20 25L20 24L21 24L21 25L23 25L23 27L24 27L24 29L23 29L23 30L22 30L22 31L21 31L21 32L22 32L22 31L24 31L24 32L23 32L23 33L25 33L25 34L24 34L24 35L26 35L26 33L28 33L28 32L27 32L27 31L24 31L24 29L26 29L26 30L28 30L28 28L27 28L27 27L29 27L29 28L30 28L30 26L31 26L31 25L32 25L32 24L34 24L34 22L33 22L33 21L32 21L32 22L33 22L33 23L32 23L32 24L31 24L31 19L30 19L30 18L29 18L29 17L28 17L28 16L27 16L27 18L29 18L29 19L27 19L27 20L26 20L26 18L25 18L25 16L24 16L24 15L25 15L25 14L23 14L23 16L22 16L22 19L20 19L20 17L21 17L21 16L20 16L20 15L19 15L19 16L18 16L18 14L19 14L19 13L20 13L20 14L22 14L22 13L23 13L23 12L22 12L22 10L23 10L23 9L24 9L24 8L23 8L23 7L22 7L22 6L21 6L21 5L20 5L20 6L19 6L19 5L17 5L17 4L16 4L16 5L14 5L14 4ZM13 5L13 6L14 6L14 8L16 8L16 7L17 7L17 9L18 9L18 10L17 10L17 11L16 11L16 12L15 12L15 14L16 14L16 15L17 15L17 14L18 14L18 13L19 13L19 12L17 12L17 11L18 11L18 10L20 10L20 11L21 11L21 10L22 10L22 8L21 8L21 6L20 6L20 8L19 8L19 9L18 9L18 7L19 7L19 6L18 6L18 7L17 7L17 5L16 5L16 7L15 7L15 6L14 6L14 5ZM8 6L8 7L9 7L9 6ZM6 8L6 9L7 9L7 8ZM20 8L20 10L21 10L21 8ZM36 8L36 9L37 9L37 8ZM11 9L11 10L12 10L12 9ZM14 10L14 11L15 11L15 10ZM20 12L20 13L21 13L21 12ZM31 12L31 13L32 13L32 12ZM33 12L33 13L34 13L34 12ZM16 13L16 14L17 14L17 13ZM13 14L13 15L14 15L14 14ZM29 14L29 16L30 16L30 15L31 15L31 14ZM12 16L12 17L13 17L13 18L14 18L14 19L16 19L16 20L15 20L15 21L17 21L17 23L19 23L19 24L20 24L20 23L21 23L21 22L22 22L22 24L24 24L24 22L25 22L25 21L23 21L23 22L22 22L22 20L21 20L21 21L19 21L19 20L20 20L20 19L19 19L19 18L18 18L18 19L17 19L17 16L16 16L16 17L15 17L15 16ZM7 17L7 18L8 18L8 17ZM9 17L9 18L11 18L11 17ZM23 17L23 18L24 18L24 19L23 19L23 20L24 20L24 19L25 19L25 18L24 18L24 17ZM11 19L11 20L12 20L12 19ZM18 19L18 20L19 20L19 19ZM32 19L32 20L33 20L33 19ZM27 20L27 21L26 21L26 23L25 23L25 25L26 25L26 26L24 26L24 27L26 27L26 26L27 26L27 25L26 25L26 23L27 23L27 22L29 22L29 23L30 23L30 22L29 22L29 20ZM1 22L1 23L2 23L2 22ZM19 22L19 23L20 23L20 22ZM4 23L4 25L6 25L6 26L7 26L7 25L6 25L6 24L8 24L8 23L6 23L6 24L5 24L5 23ZM29 24L29 25L28 25L28 26L30 26L30 25L31 25L31 24ZM12 26L12 28L11 28L11 27L10 27L10 29L12 29L12 28L13 28L13 27L14 27L14 26ZM29 29L29 32L32 32L32 29ZM30 30L30 31L31 31L31 30ZM11 31L11 32L12 32L12 31ZM13 31L13 32L14 32L14 31ZM15 31L15 32L16 32L16 31ZM34 31L34 32L33 32L33 34L34 34L34 33L35 33L35 31ZM11 33L11 34L12 34L12 33ZM19 33L19 34L20 34L20 33ZM31 33L31 34L32 34L32 33ZM9 34L9 35L10 35L10 34ZM16 34L16 35L15 35L15 36L14 36L14 37L19 37L19 36L20 36L20 35L18 35L18 34ZM17 35L17 36L18 36L18 35ZM12 36L12 37L13 37L13 36ZM0 0L0 7L7 7L7 0ZM1 1L1 6L6 6L6 1ZM2 2L2 5L5 5L5 2ZM30 0L30 7L37 7L37 0ZM31 1L31 6L36 6L36 1ZM32 2L32 5L35 5L35 2ZM0 30L0 37L7 37L7 30ZM1 31L1 36L6 36L6 31ZM2 32L2 35L5 35L5 32Z" fill="#000000"/></g></g></svg>
