<?xml version="1.0" encoding="UTF-8"?>
<svg xmlns="http://www.w3.org/2000/svg" version="1.1" width="200" height="200" viewBox="0 0 200 200"><rect x="0" y="0" width="200" height="200" fill="#ffffff"/><g transform="scale(5.405)"><g transform="translate(0,0)"><path fill-rule="evenodd" d="M8 0L8 1L9 1L9 2L8 2L8 5L9 5L9 4L11 4L11 5L10 5L10 9L9 9L9 8L8 8L8 9L7 9L7 8L6 8L6 9L7 9L7 10L6 10L6 11L8 11L8 12L6 12L6 13L5 13L5 15L3 15L3 13L4 13L4 12L5 12L5 11L3 11L3 10L5 10L5 9L4 9L4 8L0 8L0 13L1 13L1 14L0 14L0 16L1 16L1 15L3 15L3 16L2 16L2 17L3 17L3 19L2 19L2 23L1 23L1 24L0 24L0 25L2 25L2 26L1 26L1 27L0 27L0 28L1 28L1 27L2 27L2 28L3 28L3 27L5 27L5 28L4 28L4 29L5 29L5 28L6 28L6 29L7 29L7 28L8 28L8 30L10 30L10 29L12 29L12 30L11 30L11 31L12 31L12 32L10 32L10 31L9 31L9 32L10 32L10 33L8 33L8 37L10 37L10 36L11 36L11 35L14 35L14 32L15 32L15 33L18 33L18 31L19 31L19 30L18 30L18 31L17 31L17 28L16 28L16 27L17 27L17 26L18 26L18 27L20 27L20 25L21 25L21 24L20 24L20 23L21 23L21 22L23 22L23 23L22 23L22 24L24 24L24 22L25 22L25 21L23 21L23 20L24 20L24 19L25 19L25 18L26 18L26 20L27 20L27 21L26 21L26 23L25 23L25 25L26 25L26 26L24 26L24 27L23 27L23 25L22 25L22 26L21 26L21 28L20 28L20 29L22 29L22 30L20 30L20 32L21 32L21 34L20 34L20 33L19 33L19 34L20 34L20 35L24 35L24 36L22 36L22 37L26 37L26 36L27 36L27 37L28 37L28 36L27 36L27 34L28 34L28 33L29 33L29 34L31 34L31 35L33 35L33 36L30 36L30 37L37 37L37 36L35 36L35 34L37 34L37 30L36 30L36 29L35 29L35 28L34 28L34 31L33 31L33 27L31 27L31 26L33 26L33 25L35 25L35 26L34 26L34 27L36 27L36 26L37 26L37 25L36 25L36 24L37 24L37 23L35 23L35 22L36 22L36 20L35 20L35 21L34 21L34 19L33 19L33 18L35 18L35 19L37 19L37 17L36 17L36 15L35 15L35 16L34 16L34 17L33 17L33 18L32 18L32 19L31 19L31 17L30 17L30 16L32 16L32 13L33 13L33 14L34 14L34 13L35 13L35 14L37 14L37 12L36 12L36 13L35 13L35 11L34 11L34 9L35 9L35 8L32 8L32 9L33 9L33 10L31 10L31 12L30 12L30 13L28 13L28 12L27 12L27 13L28 13L28 15L27 15L27 16L25 16L25 15L26 15L26 11L27 11L27 10L28 10L28 11L30 11L30 10L29 10L29 9L30 9L30 8L28 8L28 7L29 7L29 4L28 4L28 7L27 7L27 6L26 6L26 7L27 7L27 8L28 8L28 9L27 9L27 10L26 10L26 11L23 11L23 13L22 13L22 14L20 14L20 13L21 13L21 12L20 12L20 13L19 13L19 12L17 12L17 11L18 11L18 10L20 10L20 11L22 11L22 10L25 10L25 8L24 8L24 7L25 7L25 6L24 6L24 7L23 7L23 6L22 6L22 8L21 8L21 6L20 6L20 5L21 5L21 1L20 1L20 0L19 0L19 1L17 1L17 2L15 2L15 1L14 1L14 2L15 2L15 3L12 3L12 4L11 4L11 2L13 2L13 0L12 0L12 1L11 1L11 0L10 0L10 1L9 1L9 0ZM22 0L22 1L23 1L23 2L22 2L22 3L23 3L23 2L24 2L24 1L25 1L25 3L24 3L24 4L25 4L25 5L27 5L27 3L28 3L28 2L29 2L29 0L27 0L27 1L28 1L28 2L26 2L26 0ZM19 1L19 2L20 2L20 1ZM17 2L17 3L18 3L18 2ZM19 3L19 4L20 4L20 3ZM25 3L25 4L26 4L26 3ZM13 4L13 5L12 5L12 6L11 6L11 8L12 8L12 6L13 6L13 11L11 11L11 10L12 10L12 9L11 9L11 10L9 10L9 9L8 9L8 10L9 10L9 12L8 12L8 13L6 13L6 14L8 14L8 15L6 15L6 16L8 16L8 18L9 18L9 21L8 21L8 22L7 22L7 21L6 21L6 22L5 22L5 20L4 20L4 21L3 21L3 23L4 23L4 25L3 25L3 24L2 24L2 25L3 25L3 26L4 26L4 25L6 25L6 26L5 26L5 27L6 27L6 28L7 28L7 27L6 27L6 26L7 26L7 25L8 25L8 24L9 24L9 26L8 26L8 27L9 27L9 28L10 28L10 27L11 27L11 28L12 28L12 29L13 29L13 28L15 28L15 29L16 29L16 28L15 28L15 27L16 27L16 26L17 26L17 25L16 25L16 26L15 26L15 23L16 23L16 24L18 24L18 26L19 26L19 25L20 25L20 24L19 24L19 23L20 23L20 22L19 22L19 23L17 23L17 21L15 21L15 20L16 20L16 19L15 19L15 18L14 18L14 17L12 17L12 16L14 16L14 15L15 15L15 17L16 17L16 16L17 16L17 19L18 19L18 20L19 20L19 21L21 21L21 20L22 20L22 19L24 19L24 18L25 18L25 16L24 16L24 15L25 15L25 14L22 14L22 16L23 16L23 17L24 17L24 18L22 18L22 17L21 17L21 16L20 16L20 15L19 15L19 16L18 16L18 14L19 14L19 13L18 13L18 14L17 14L17 13L16 13L16 14L15 14L15 12L16 12L16 11L17 11L17 10L18 10L18 9L19 9L19 8L20 8L20 10L21 10L21 8L20 8L20 6L19 6L19 5L17 5L17 4L16 4L16 5L14 5L14 4ZM22 4L22 5L23 5L23 4ZM13 5L13 6L14 6L14 8L16 8L16 7L17 7L17 9L18 9L18 7L19 7L19 6L18 6L18 7L17 7L17 5L16 5L16 7L15 7L15 6L14 6L14 5ZM8 6L8 7L9 7L9 6ZM23 8L23 9L24 9L24 8ZM36 8L36 9L37 9L37 8ZM1 10L1 11L2 11L2 10ZM14 10L14 11L13 11L13 12L12 12L12 13L11 13L11 15L10 15L10 16L9 16L9 15L8 15L8 16L9 16L9 17L10 17L10 18L11 18L11 16L12 16L12 14L13 14L13 15L14 15L14 14L13 14L13 13L14 13L14 11L15 11L15 10ZM10 11L10 12L9 12L9 13L8 13L8 14L9 14L9 13L10 13L10 12L11 12L11 11ZM31 12L31 13L32 13L32 12ZM33 12L33 13L34 13L34 12ZM16 14L16 15L17 15L17 14ZM29 14L29 16L30 16L30 15L31 15L31 14ZM27 16L27 18L29 18L29 19L27 19L27 20L29 20L29 22L27 22L27 23L26 23L26 25L27 25L27 26L26 26L26 27L24 27L24 29L23 29L23 31L24 31L24 32L23 32L23 33L25 33L25 34L24 34L24 35L26 35L26 33L28 33L28 32L27 32L27 31L24 31L24 29L26 29L26 30L28 30L28 28L27 28L27 27L29 27L29 28L30 28L30 26L31 26L31 25L32 25L32 24L34 24L34 22L33 22L33 21L32 21L32 22L33 22L33 23L32 23L32 24L31 24L31 19L30 19L30 18L29 18L29 17L28 17L28 16ZM4 17L4 19L5 19L5 17ZM6 17L6 18L7 18L7 17ZM20 17L20 19L19 19L19 18L18 18L18 19L19 19L19 20L20 20L20 19L22 19L22 18L21 18L21 17ZM0 18L0 19L1 19L1 18ZM6 19L6 20L7 20L7 19ZM10 19L10 20L12 20L12 19ZM14 19L14 20L15 20L15 19ZM32 19L32 20L33 20L33 19ZM9 21L9 22L8 22L8 23L9 23L9 24L10 24L10 25L11 25L11 26L12 26L12 28L13 28L13 27L14 27L14 26L12 26L12 24L13 24L13 25L14 25L14 23L15 23L15 21L13 21L13 23L11 23L11 24L10 24L10 21ZM6 22L6 23L7 23L7 22ZM29 22L29 23L30 23L30 22ZM6 24L6 25L7 25L7 24ZM29 24L29 25L28 25L28 26L30 26L30 25L31 25L31 24ZM9 26L9 27L10 27L10 26ZM22 27L22 28L23 28L23 27ZM29 29L29 32L32 32L32 29ZM30 30L30 31L31 31L31 30ZM13 31L13 32L14 32L14 31ZM15 31L15 32L16 32L16 31ZM21 31L21 32L22 32L22 31ZM34 31L34 32L33 32L33 34L34 34L34 33L35 33L35 31ZM10 33L10 34L9 34L9 35L11 35L11 34L12 34L12 33ZM31 33L31 34L32 34L32 33ZM16 34L16 35L18 35L18 36L14 36L14 37L19 37L19 35L18 35L18 34ZM12 36L12 37L13 37L13 36ZM0 0L0 7L7 7L7 0ZM1 1L1 6L6 6L6 1ZM2 2L2 5L5 5L5 2ZM30 0L30 7L37 7L37 0ZM31 1L31 6L36 6L36 1ZM32 2L32 5L35 5L35 2ZM0 30L0 37L7 37L7 30ZM1 31L1 36L6 36L6 31ZM2 32L2 35L5 35L5 32Z" fill="#000000"/></g></g></svg>
