<?xml version="1.0" encoding="UTF-8"?>
<svg xmlns="http://www.w3.org/2000/svg" version="1.1" width="200" height="200" viewBox="0 0 200 200"><rect x="0" y="0" width="200" height="200" fill="#ffffff"/><g transform="scale(5.405)"><g transform="translate(0,0)"><path fill-rule="evenodd" d="M8 0L8 1L9 1L9 2L8 2L8 5L9 5L9 4L11 4L11 5L10 5L10 10L8 10L8 11L7 11L7 10L6 10L6 9L7 9L7 8L6 8L6 9L4 9L4 8L0 8L0 9L1 9L1 10L0 10L0 12L2 12L2 13L0 13L0 15L1 15L1 14L4 14L4 10L6 10L6 11L7 11L7 12L5 12L5 16L4 16L4 17L5 17L5 20L4 20L4 18L3 18L3 17L1 17L1 16L0 16L0 18L1 18L1 19L0 19L0 21L2 21L2 22L1 22L1 23L0 23L0 24L1 24L1 25L2 25L2 26L1 26L1 27L0 27L0 28L1 28L1 27L2 27L2 29L3 29L3 28L4 28L4 29L8 29L8 30L9 30L9 29L8 29L8 28L5 28L5 27L7 27L7 26L8 26L8 27L10 27L10 28L11 28L11 29L10 29L10 31L9 31L9 32L10 32L10 31L12 31L12 32L11 32L11 33L8 33L8 37L9 37L9 36L11 36L11 35L14 35L14 34L15 34L15 33L14 33L14 32L13 32L13 30L14 30L14 29L12 29L12 28L14 28L14 27L15 27L15 32L17 32L17 35L16 35L16 36L14 36L14 37L19 37L19 36L20 36L20 37L21 37L21 36L20 36L20 35L21 35L21 34L22 34L22 33L23 33L23 35L22 35L22 37L23 37L23 35L24 35L24 34L25 34L25 33L23 33L23 32L24 32L24 31L26 31L26 32L28 32L28 33L26 33L26 34L27 34L27 35L28 35L28 36L29 36L29 37L37 37L37 36L35 36L35 34L37 34L37 32L36 32L36 31L37 31L37 30L36 30L36 29L35 29L35 28L34 28L34 31L33 31L33 27L31 27L31 26L33 26L33 25L35 25L35 26L34 26L34 27L36 27L36 26L37 26L37 25L36 25L36 24L37 24L37 23L35 23L35 22L36 22L36 20L35 20L35 21L34 21L34 19L33 19L33 18L35 18L35 19L37 19L37 17L36 17L36 15L35 15L35 16L34 16L34 17L33 17L33 18L32 18L32 19L31 19L31 17L30 17L30 16L32 16L32 13L33 13L33 14L34 14L34 13L35 13L35 14L37 14L37 12L36 12L36 13L35 13L35 11L34 11L34 9L35 9L35 8L32 8L32 9L33 9L33 10L31 10L31 12L30 12L30 13L29 13L29 12L26 12L26 11L27 11L27 9L28 9L28 10L29 10L29 11L30 11L30 10L29 10L29 9L30 9L30 8L25 8L25 5L28 5L28 7L29 7L29 4L27 4L27 3L26 3L26 0L25 0L25 1L24 1L24 0L23 0L23 1L22 1L22 0L21 0L21 1L20 1L20 0L18 0L18 1L17 1L17 2L16 2L16 3L15 3L15 6L14 6L14 5L13 5L13 4L14 4L14 2L15 2L15 1L14 1L14 2L13 2L13 0L12 0L12 1L11 1L11 0L10 0L10 1L9 1L9 0ZM28 0L28 3L29 3L29 0ZM18 1L18 2L17 2L17 3L16 3L16 4L17 4L17 3L19 3L19 4L18 4L18 5L17 5L17 7L16 7L16 6L15 6L15 8L14 8L14 6L13 6L13 5L12 5L12 6L11 6L11 8L12 8L12 6L13 6L13 9L15 9L15 11L14 11L14 10L13 10L13 11L11 11L11 13L12 13L12 12L13 12L13 11L14 11L14 14L12 14L12 16L10 16L10 15L11 15L11 14L10 14L10 12L9 12L9 13L8 13L8 12L7 12L7 13L6 13L6 14L7 14L7 15L6 15L6 16L7 16L7 15L8 15L8 16L10 16L10 17L11 17L11 18L10 18L10 19L12 19L12 20L8 20L8 22L7 22L7 21L6 21L6 20L7 20L7 19L6 19L6 20L5 20L5 21L4 21L4 20L3 20L3 21L4 21L4 22L2 22L2 23L1 23L1 24L2 24L2 23L3 23L3 24L5 24L5 25L4 25L4 27L5 27L5 26L7 26L7 25L6 25L6 24L7 24L7 23L8 23L8 24L9 24L9 26L10 26L10 27L11 27L11 28L12 28L12 26L13 26L13 27L14 27L14 26L13 26L13 25L15 25L15 23L17 23L17 24L19 24L19 25L20 25L20 26L22 26L22 29L24 29L24 30L22 30L22 31L20 31L20 29L21 29L21 28L20 28L20 27L19 27L19 26L17 26L17 25L16 25L16 26L15 26L15 27L17 27L17 28L16 28L16 29L17 29L17 30L16 30L16 31L20 31L20 32L18 32L18 33L21 33L21 32L22 32L22 31L24 31L24 30L25 30L25 28L28 28L28 27L29 27L29 28L30 28L30 27L29 27L29 26L28 26L28 25L26 25L26 24L27 24L27 23L28 23L28 24L31 24L31 25L30 25L30 26L31 26L31 25L32 25L32 24L34 24L34 22L33 22L33 21L32 21L32 22L33 22L33 23L32 23L32 24L31 24L31 19L29 19L29 22L27 22L27 20L26 20L26 18L27 18L27 17L29 17L29 16L30 16L30 15L31 15L31 14L29 14L29 15L28 15L28 13L27 13L27 14L26 14L26 13L25 13L25 11L26 11L26 9L25 9L25 10L24 10L24 11L23 11L23 10L22 10L22 11L20 11L20 10L21 10L21 9L20 9L20 10L18 10L18 9L19 9L19 8L23 8L23 9L24 9L24 8L23 8L23 7L24 7L24 5L25 5L25 2L24 2L24 3L23 3L23 4L22 4L22 1L21 1L21 2L20 2L20 1ZM11 2L11 4L12 4L12 3L13 3L13 2ZM19 2L19 3L20 3L20 4L19 4L19 5L18 5L18 7L17 7L17 8L16 8L16 9L18 9L18 7L19 7L19 6L20 6L20 7L21 7L21 6L22 6L22 7L23 7L23 6L22 6L22 5L21 5L21 3L20 3L20 2ZM8 6L8 7L9 7L9 6ZM26 6L26 7L27 7L27 6ZM8 8L8 9L9 9L9 8ZM36 8L36 9L37 9L37 8ZM2 9L2 10L1 10L1 11L2 11L2 10L3 10L3 9ZM11 9L11 10L12 10L12 9ZM17 10L17 11L15 11L15 14L16 14L16 15L17 15L17 14L16 14L16 13L18 13L18 12L17 12L17 11L18 11L18 10ZM22 11L22 12L23 12L23 13L22 13L22 14L21 14L21 12L20 12L20 13L19 13L19 14L18 14L18 17L19 17L19 15L21 15L21 19L20 19L20 20L19 20L19 19L17 19L17 21L18 21L18 22L17 22L17 23L18 23L18 22L20 22L20 23L21 23L21 22L22 22L22 24L23 24L23 25L22 25L22 26L25 26L25 27L24 27L24 28L25 28L25 27L26 27L26 25L25 25L25 24L26 24L26 23L27 23L27 22L26 22L26 23L23 23L23 22L25 22L25 20L24 20L24 19L25 19L25 18L26 18L26 16L28 16L28 15L26 15L26 14L25 14L25 15L24 15L24 16L23 16L23 18L24 18L24 19L23 19L23 20L21 20L21 19L22 19L22 15L23 15L23 13L24 13L24 12L23 12L23 11ZM31 12L31 13L32 13L32 12ZM33 12L33 13L34 13L34 12ZM8 14L8 15L9 15L9 14ZM25 15L25 16L24 16L24 18L25 18L25 16L26 16L26 15ZM12 16L12 17L13 17L13 18L15 18L15 19L14 19L14 20L15 20L15 19L16 19L16 18L17 18L17 16L16 16L16 17L15 17L15 16ZM6 17L6 18L7 18L7 17ZM32 19L32 20L33 20L33 19ZM18 20L18 21L19 21L19 20ZM20 20L20 22L21 22L21 20ZM23 20L23 21L24 21L24 20ZM5 21L5 22L6 22L6 23L7 23L7 22L6 22L6 21ZM9 21L9 23L10 23L10 24L11 24L11 26L12 26L12 24L14 24L14 22L15 22L15 21L14 21L14 22L13 22L13 23L10 23L10 22L11 22L11 21ZM29 22L29 23L30 23L30 22ZM20 24L20 25L21 25L21 24ZM2 26L2 27L3 27L3 26ZM18 27L18 28L19 28L19 27ZM11 29L11 30L12 30L12 29ZM18 29L18 30L19 30L19 29ZM27 29L27 30L26 30L26 31L27 31L27 30L28 30L28 29ZM29 29L29 32L32 32L32 29ZM30 30L30 31L31 31L31 30ZM34 31L34 32L33 32L33 34L34 34L34 33L35 33L35 31ZM11 33L11 34L12 34L12 33ZM31 33L31 34L30 34L30 36L33 36L33 35L31 35L31 34L32 34L32 33ZM19 34L19 35L20 35L20 34ZM17 35L17 36L18 36L18 35ZM25 35L25 37L26 37L26 35ZM12 36L12 37L13 37L13 36ZM0 0L0 7L7 7L7 0ZM1 1L1 6L6 6L6 1ZM2 2L2 5L5 5L5 2ZM30 0L30 7L37 7L37 0ZM31 1L31 6L36 6L36 1ZM32 2L32 5L35 5L35 2ZM0 30L0 37L7 37L7 30ZM1 31L1 36L6 36L6 31ZM2 32L2 35L5 35L5 32Z" fill="#000000"/></g></g></svg>
