<?xml version="1.0" encoding="UTF-8"?>
<svg xmlns="http://www.w3.org/2000/svg" version="1.1" width="200" height="200" viewBox="0 0 200 200"><rect x="0" y="0" width="200" height="200" fill="#ffffff"/><g transform="scale(5.405)"><g transform="translate(0,0)"><path fill-rule="evenodd" d="M8 0L8 1L11 1L11 3L10 3L10 2L9 2L9 3L10 3L10 5L9 5L9 6L8 6L8 8L9 8L9 9L7 9L7 8L6 8L6 9L7 9L7 10L6 10L6 11L7 11L7 12L5 12L5 11L3 11L3 9L4 9L4 10L5 10L5 8L3 8L3 9L2 9L2 8L0 8L0 9L1 9L1 10L0 10L0 11L2 11L2 14L1 14L1 15L0 15L0 16L2 16L2 17L4 17L4 16L2 16L2 15L3 15L3 14L5 14L5 15L7 15L7 16L6 16L6 17L7 17L7 18L5 18L5 19L4 19L4 18L2 18L2 22L0 22L0 23L2 23L2 22L4 22L4 23L3 23L3 24L1 24L1 25L0 25L0 29L1 29L1 27L3 27L3 29L4 29L4 27L5 27L5 29L7 29L7 28L8 28L8 30L9 30L9 31L10 31L10 30L9 30L9 29L10 29L10 28L12 28L12 27L14 27L14 26L15 26L15 27L16 27L16 28L14 28L14 29L11 29L11 31L12 31L12 33L14 33L14 36L13 36L13 37L17 37L17 36L18 36L18 37L20 37L20 36L21 36L21 35L20 35L20 36L19 36L19 34L21 34L21 31L23 31L23 32L22 32L22 33L23 33L23 34L22 34L22 35L23 35L23 36L22 36L22 37L23 37L23 36L25 36L25 35L24 35L24 34L25 34L25 33L23 33L23 32L27 32L27 33L26 33L26 35L28 35L28 34L31 34L31 35L29 35L29 36L26 36L26 37L31 37L31 36L32 36L32 35L33 35L33 37L34 37L34 36L36 36L36 37L37 37L37 28L36 28L36 31L35 31L35 34L34 34L34 31L33 31L33 29L34 29L34 30L35 30L35 27L37 27L37 26L33 26L33 25L34 25L34 24L35 24L35 22L36 22L36 23L37 23L37 22L36 22L36 21L37 21L37 18L36 18L36 19L35 19L35 17L37 17L37 16L36 16L36 15L37 15L37 14L36 14L36 15L34 15L34 13L33 13L33 15L32 15L32 14L30 14L30 16L29 16L29 17L31 17L31 18L29 18L29 19L28 19L28 17L27 17L27 16L28 16L28 14L29 14L29 13L32 13L32 12L35 12L35 13L37 13L37 10L36 10L36 11L33 11L33 9L32 9L32 10L29 10L29 8L27 8L27 6L26 6L26 7L25 7L25 6L24 6L24 5L22 5L22 10L21 10L21 9L20 9L20 8L21 8L21 6L20 6L20 7L19 7L19 6L18 6L18 5L21 5L21 4L23 4L23 3L24 3L24 4L26 4L26 5L27 5L27 3L29 3L29 0L28 0L28 2L23 2L23 3L22 3L22 2L21 2L21 4L19 4L19 3L20 3L20 1L21 1L21 0L20 0L20 1L19 1L19 3L15 3L15 2L16 2L16 0L13 0L13 1L12 1L12 0ZM17 0L17 1L18 1L18 0ZM24 0L24 1L26 1L26 0ZM12 2L12 4L14 4L14 5L15 5L15 7L16 7L16 5L18 5L18 4L16 4L16 5L15 5L15 4L14 4L14 3L13 3L13 2ZM10 5L10 6L9 6L9 7L10 7L10 9L11 9L11 11L9 11L9 10L7 10L7 11L8 11L8 12L7 12L7 13L5 13L5 14L7 14L7 15L8 15L8 14L11 14L11 16L12 16L12 15L14 15L14 14L15 14L15 13L13 13L13 12L14 12L14 9L12 9L12 6L13 6L13 8L14 8L14 6L13 6L13 5L12 5L12 6L11 6L11 5ZM28 5L28 7L29 7L29 5ZM10 6L10 7L11 7L11 6ZM17 6L17 8L16 8L16 9L17 9L17 10L16 10L16 11L15 11L15 12L16 12L16 14L18 14L18 15L17 15L17 18L18 18L18 19L14 19L14 25L15 25L15 24L16 24L16 26L17 26L17 28L16 28L16 29L18 29L18 30L17 30L17 31L15 31L15 30L12 30L12 31L13 31L13 32L14 32L14 31L15 31L15 32L18 32L18 30L19 30L19 29L20 29L20 30L22 30L22 29L23 29L23 30L26 30L26 29L23 29L23 28L22 28L22 25L23 25L23 23L21 23L21 26L20 26L20 25L18 25L18 24L16 24L16 23L15 23L15 21L17 21L17 23L18 23L18 22L19 22L19 24L20 24L20 22L19 22L19 21L17 21L17 20L19 20L19 18L18 18L18 15L19 15L19 16L21 16L21 17L22 17L22 15L21 15L21 14L22 14L22 13L23 13L23 12L22 12L22 11L23 11L23 10L22 10L22 11L21 11L21 10L19 10L19 9L17 9L17 8L19 8L19 7L18 7L18 6ZM23 6L23 9L24 9L24 12L25 12L25 13L24 13L24 14L23 14L23 15L24 15L24 17L23 17L23 18L21 18L21 20L20 20L20 21L21 21L21 22L23 22L23 21L24 21L24 23L25 23L25 24L26 24L26 25L24 25L24 26L23 26L23 27L26 27L26 25L27 25L27 23L26 23L26 22L25 22L25 21L28 21L28 23L29 23L29 22L31 22L31 21L30 21L30 20L29 20L29 21L28 21L28 20L25 20L25 21L24 21L24 19L25 19L25 18L27 18L27 17L25 17L25 16L27 16L27 13L28 13L28 12L27 12L27 13L26 13L26 11L27 11L27 10L26 10L26 9L24 9L24 8L25 8L25 7L24 7L24 6ZM30 8L30 9L31 9L31 8ZM36 8L36 9L37 9L37 8ZM34 9L34 10L35 10L35 9ZM12 10L12 11L13 11L13 10ZM17 10L17 11L16 11L16 12L18 12L18 13L21 13L21 11L20 11L20 12L19 12L19 10ZM25 10L25 11L26 11L26 10ZM31 11L31 12L32 12L32 11ZM3 12L3 13L4 13L4 12ZM8 12L8 13L9 13L9 12ZM10 12L10 13L11 13L11 12ZM12 13L12 14L13 14L13 13ZM25 13L25 15L26 15L26 13ZM19 14L19 15L20 15L20 14ZM9 15L9 16L10 16L10 15ZM13 16L13 17L12 17L12 18L11 18L11 17L10 17L10 19L9 19L9 17L8 17L8 19L6 19L6 20L5 20L5 22L7 22L7 23L6 23L6 24L5 24L5 23L4 23L4 24L3 24L3 25L4 25L4 24L5 24L5 25L6 25L6 26L7 26L7 27L6 27L6 28L7 28L7 27L8 27L8 26L9 26L9 28L10 28L10 27L11 27L11 26L13 26L13 25L11 25L11 23L10 23L10 22L12 22L12 23L13 23L13 22L12 22L12 21L13 21L13 19L12 19L12 18L15 18L15 17L16 17L16 16ZM31 16L31 17L32 17L32 19L31 19L31 20L33 20L33 22L35 22L35 19L34 19L34 18L33 18L33 16ZM24 17L24 18L23 18L23 19L22 19L22 20L23 20L23 19L24 19L24 18L25 18L25 17ZM8 19L8 21L7 21L7 20L6 20L6 21L7 21L7 22L8 22L8 21L9 21L9 22L10 22L10 20L11 20L11 21L12 21L12 19L10 19L10 20L9 20L9 19ZM33 19L33 20L34 20L34 19ZM0 20L0 21L1 21L1 20ZM3 20L3 21L4 21L4 20ZM8 23L8 25L9 25L9 23ZM31 23L31 24L32 24L32 25L31 25L31 26L30 26L30 24L29 24L29 28L30 28L30 27L32 27L32 28L33 28L33 26L32 26L32 25L33 25L33 24L34 24L34 23ZM6 24L6 25L7 25L7 24ZM1 25L1 26L2 26L2 25ZM3 26L3 27L4 27L4 26ZM18 26L18 29L19 29L19 27L20 27L20 29L21 29L21 27L20 27L20 26ZM27 28L27 29L28 29L28 28ZM29 29L29 32L32 32L32 29ZM30 30L30 31L31 31L31 30ZM8 32L8 34L9 34L9 35L8 35L8 37L11 37L11 36L9 36L9 35L11 35L11 33L10 33L10 32ZM9 33L9 34L10 34L10 33ZM16 33L16 34L15 34L15 36L16 36L16 35L18 35L18 34L19 34L19 33ZM27 33L27 34L28 34L28 33ZM31 33L31 34L33 34L33 35L34 35L34 34L33 34L33 33ZM12 34L12 35L13 35L13 34ZM35 34L35 35L36 35L36 34ZM0 0L0 7L7 7L7 0ZM1 1L1 6L6 6L6 1ZM2 2L2 5L5 5L5 2ZM30 0L30 7L37 7L37 0ZM31 1L31 6L36 6L36 1ZM32 2L32 5L35 5L35 2ZM0 30L0 37L7 37L7 30ZM1 31L1 36L6 36L6 31ZM2 32L2 35L5 35L5 32Z" fill="#000000"/></g></g></svg>
