<?xml version="1.0" encoding="UTF-8"?>
<svg xmlns="http://www.w3.org/2000/svg" version="1.1" width="200" height="200" viewBox="0 0 200 200"><rect x="0" y="0" width="200" height="200" fill="#ffffff"/><g transform="scale(5.405)"><g transform="translate(0,0)"><path fill-rule="evenodd" d="M9 0L9 1L11 1L11 2L9 2L9 3L8 3L8 5L9 5L9 6L8 6L8 7L9 7L9 9L8 9L8 8L5 8L5 9L2 9L2 8L0 8L0 10L1 10L1 11L0 11L0 13L2 13L2 14L0 14L0 15L1 15L1 16L0 16L0 20L1 20L1 21L3 21L3 20L5 20L5 19L7 19L7 20L6 20L6 21L7 21L7 22L5 22L5 21L4 21L4 23L3 23L3 22L1 22L1 23L0 23L0 29L1 29L1 25L2 25L2 23L3 23L3 24L4 24L4 25L3 25L3 26L2 26L2 28L3 28L3 29L5 29L5 27L4 27L4 25L5 25L5 26L6 26L6 27L7 27L7 28L6 28L6 29L8 29L8 32L9 32L9 35L8 35L8 37L9 37L9 35L10 35L10 37L11 37L11 36L12 36L12 35L13 35L13 34L11 34L11 32L10 32L10 31L12 31L12 33L13 33L13 32L14 32L14 34L16 34L16 32L14 32L14 31L12 31L12 30L15 30L15 31L17 31L17 30L16 30L16 28L17 28L17 29L19 29L19 30L18 30L18 32L17 32L17 33L19 33L19 34L17 34L17 35L18 35L18 37L20 37L20 35L19 35L19 34L21 34L21 35L23 35L23 34L25 34L25 33L26 33L26 34L27 34L27 35L28 35L28 36L26 36L26 37L31 37L31 36L32 36L32 34L31 34L31 33L33 33L33 34L34 34L34 35L33 35L33 37L34 37L34 35L36 35L36 37L37 37L37 28L35 28L35 27L37 27L37 26L35 26L35 27L34 27L34 26L33 26L33 28L32 28L32 24L31 24L31 23L32 23L32 22L33 22L33 23L35 23L35 24L36 24L36 23L37 23L37 22L36 22L36 21L37 21L37 18L36 18L36 17L37 17L37 16L36 16L36 15L37 15L37 14L36 14L36 15L35 15L35 14L34 14L34 13L32 13L32 12L34 12L34 11L32 11L32 10L33 10L33 9L34 9L34 10L35 10L35 11L36 11L36 12L35 12L35 13L37 13L37 10L35 10L35 9L34 9L34 8L32 8L32 10L30 10L30 12L29 12L29 10L28 10L28 9L27 9L27 10L26 10L26 11L27 11L27 12L26 12L26 14L27 14L27 15L26 15L26 16L24 16L24 15L25 15L25 13L24 13L24 12L25 12L25 11L23 11L23 13L22 13L22 14L21 14L21 11L22 11L22 10L23 10L23 9L22 9L22 10L21 10L21 9L19 9L19 8L17 8L17 6L16 6L16 7L15 7L15 5L16 5L16 4L17 4L17 5L20 5L20 4L19 4L19 2L18 2L18 0L17 0L17 2L16 2L16 0L13 0L13 1L12 1L12 0ZM20 0L20 2L21 2L21 4L23 4L23 5L24 5L24 7L23 7L23 6L22 6L22 8L24 8L24 9L26 9L26 8L25 8L25 6L26 6L26 7L27 7L27 8L29 8L29 3L25 3L25 4L23 4L23 1L22 1L22 0ZM24 0L24 1L27 1L27 0ZM28 0L28 2L29 2L29 0ZM13 1L13 2L12 2L12 4L11 4L11 7L10 7L10 6L9 6L9 7L10 7L10 8L11 8L11 10L9 10L9 11L11 11L11 10L13 10L13 11L12 11L12 12L11 12L11 13L9 13L9 12L8 12L8 9L6 9L6 10L5 10L5 11L4 11L4 10L2 10L2 9L1 9L1 10L2 10L2 11L3 11L3 13L5 13L5 11L6 11L6 12L8 12L8 13L6 13L6 14L8 14L8 15L5 15L5 16L4 16L4 14L3 14L3 15L2 15L2 16L1 16L1 20L3 20L3 18L4 18L4 19L5 19L5 18L4 18L4 17L6 17L6 18L7 18L7 19L10 19L10 18L11 18L11 19L12 19L12 21L9 21L9 20L7 20L7 21L8 21L8 22L7 22L7 23L6 23L6 24L7 24L7 25L6 25L6 26L8 26L8 27L9 27L9 26L8 26L8 24L7 24L7 23L10 23L10 24L9 24L9 25L10 25L10 24L12 24L12 23L13 23L13 22L12 22L12 21L14 21L14 22L15 22L15 20L14 20L14 19L12 19L12 18L15 18L15 17L16 17L16 20L19 20L19 21L17 21L17 22L19 22L19 24L20 24L20 23L21 23L21 25L20 25L20 26L19 26L19 25L18 25L18 23L14 23L14 25L11 25L11 26L13 26L13 27L12 27L12 29L11 29L11 27L10 27L10 29L11 29L11 30L12 30L12 29L15 29L15 28L16 28L16 27L17 27L17 28L18 28L18 26L19 26L19 29L20 29L20 30L23 30L23 29L25 29L25 30L24 30L24 31L19 31L19 33L20 33L20 32L21 32L21 34L23 34L23 33L25 33L25 32L26 32L26 33L27 33L27 34L28 34L28 35L29 35L29 36L30 36L30 35L31 35L31 34L30 34L30 35L29 35L29 34L28 34L28 33L27 33L27 31L28 31L28 30L27 30L27 31L25 31L25 30L26 30L26 29L27 29L27 28L28 28L28 27L29 27L29 28L30 28L30 27L31 27L31 26L30 26L30 22L31 22L31 21L32 21L32 20L31 20L31 21L30 21L30 20L27 20L27 19L25 19L25 18L27 18L27 16L26 16L26 17L24 17L24 16L23 16L23 17L22 17L22 15L24 15L24 14L22 14L22 15L21 15L21 14L19 14L19 13L18 13L18 10L19 10L19 12L20 12L20 10L19 10L19 9L17 9L17 10L16 10L16 11L15 11L15 10L14 10L14 8L15 8L15 7L14 7L14 6L13 6L13 5L12 5L12 4L14 4L14 2L15 2L15 3L16 3L16 2L15 2L15 1ZM17 2L17 3L18 3L18 2ZM9 3L9 5L10 5L10 3ZM25 4L25 5L26 5L26 4ZM27 4L27 7L28 7L28 4ZM12 6L12 9L13 9L13 8L14 8L14 7L13 7L13 6ZM18 6L18 7L19 7L19 6ZM20 6L20 7L21 7L21 6ZM6 10L6 11L7 11L7 10ZM14 11L14 12L13 12L13 13L12 13L12 14L13 14L13 15L12 15L12 17L13 17L13 16L14 16L14 17L15 17L15 16L16 16L16 17L17 17L17 19L18 19L18 18L19 18L19 19L21 19L21 18L22 18L22 17L20 17L20 16L19 16L19 15L18 15L18 14L17 14L17 15L16 15L16 12L15 12L15 11ZM31 11L31 12L32 12L32 11ZM27 12L27 13L28 13L28 12ZM8 13L8 14L9 14L9 15L8 15L8 16L6 16L6 17L7 17L7 18L8 18L8 16L9 16L9 15L10 15L10 14L9 14L9 13ZM29 13L29 14L28 14L28 15L29 15L29 16L28 16L28 17L30 17L30 18L31 18L31 17L32 17L32 19L34 19L34 20L33 20L33 22L35 22L35 21L34 21L34 20L35 20L35 19L36 19L36 18L35 18L35 17L36 17L36 16L35 16L35 17L34 17L34 18L33 18L33 17L32 17L32 16L31 16L31 17L30 17L30 14L31 14L31 15L33 15L33 14L31 14L31 13ZM17 15L17 16L18 16L18 15ZM2 16L2 17L4 17L4 16ZM23 18L23 19L22 19L22 21L23 21L23 19L24 19L24 21L25 21L25 22L27 22L27 26L26 26L26 24L25 24L25 23L24 23L24 24L23 24L23 22L21 22L21 21L19 21L19 22L21 22L21 23L22 23L22 24L23 24L23 25L22 25L22 26L23 26L23 25L25 25L25 26L24 26L24 27L22 27L22 28L25 28L25 29L26 29L26 28L27 28L27 27L28 27L28 26L29 26L29 25L28 25L28 21L26 21L26 20L25 20L25 19L24 19L24 18ZM28 18L28 19L29 19L29 18ZM34 18L34 19L35 19L35 18ZM10 22L10 23L11 23L11 22ZM4 23L4 24L5 24L5 23ZM15 24L15 27L16 27L16 24ZM33 24L33 25L34 25L34 24ZM20 27L20 28L21 28L21 27ZM8 28L8 29L9 29L9 28ZM29 29L29 32L32 32L32 29ZM33 29L33 31L34 31L34 32L35 32L35 31L36 31L36 30L35 30L35 29ZM9 30L9 31L10 31L10 30ZM30 30L30 31L31 31L31 30ZM34 33L34 34L35 34L35 33ZM10 34L10 35L11 35L11 34ZM14 35L14 36L13 36L13 37L17 37L17 36L15 36L15 35ZM24 35L24 36L25 36L25 35ZM22 36L22 37L23 37L23 36ZM0 0L0 7L7 7L7 0ZM1 1L1 6L6 6L6 1ZM2 2L2 5L5 5L5 2ZM30 0L30 7L37 7L37 0ZM31 1L31 6L36 6L36 1ZM32 2L32 5L35 5L35 2ZM0 30L0 37L7 37L7 30ZM1 31L1 36L6 36L6 31ZM2 32L2 35L5 35L5 32Z" fill="#000000"/></g></g></svg>
