<?xml version="1.0" encoding="UTF-8"?>
<svg xmlns="http://www.w3.org/2000/svg" version="1.1" width="200" height="200" viewBox="0 0 200 200"><rect x="0" y="0" width="200" height="200" fill="#ffffff"/><g transform="scale(5.405)"><g transform="translate(0,0)"><path fill-rule="evenodd" d="M10 0L10 2L11 2L11 0ZM12 0L12 1L13 1L13 2L12 2L12 4L13 4L13 5L11 5L11 6L10 6L10 4L11 4L11 3L8 3L8 4L9 4L9 5L8 5L8 7L9 7L9 8L6 8L6 9L8 9L8 10L6 10L6 11L5 11L5 10L4 10L4 9L5 9L5 8L0 8L0 9L1 9L1 10L0 10L0 12L1 12L1 13L0 13L0 14L2 14L2 15L0 15L0 18L1 18L1 20L0 20L0 23L1 23L1 25L0 25L0 29L1 29L1 26L2 26L2 25L3 25L3 24L4 24L4 23L3 23L3 24L2 24L2 22L4 22L4 20L5 20L5 19L2 19L2 18L3 18L3 17L4 17L4 16L5 16L5 14L6 14L6 15L7 15L7 14L6 14L6 13L8 13L8 12L6 12L6 11L8 11L8 10L9 10L9 9L10 9L10 10L11 10L11 9L12 9L12 10L13 10L13 11L12 11L12 13L14 13L14 14L15 14L15 17L14 17L14 16L12 16L12 15L13 15L13 14L11 14L11 17L10 17L10 18L6 18L6 19L8 19L8 20L6 20L6 21L5 21L5 22L6 22L6 23L7 23L7 24L6 24L6 25L7 25L7 24L8 24L8 25L9 25L9 24L11 24L11 22L12 22L12 24L13 24L13 25L10 25L10 26L8 26L8 28L9 28L9 29L8 29L8 31L9 31L9 32L8 32L8 37L11 37L11 36L10 36L10 35L9 35L9 32L10 32L10 34L13 34L13 33L14 33L14 32L13 32L13 29L15 29L15 28L17 28L17 29L16 29L16 30L15 30L15 33L16 33L16 30L17 30L17 29L19 29L19 30L18 30L18 32L17 32L17 33L18 33L18 36L17 36L17 35L16 35L16 34L15 34L15 37L16 37L16 36L17 36L17 37L19 37L19 34L20 34L20 33L21 33L21 36L20 36L20 37L21 37L21 36L24 36L24 37L25 37L25 35L23 35L23 33L25 33L25 31L26 31L26 33L27 33L27 34L28 34L28 35L26 35L26 37L27 37L27 36L28 36L28 35L29 35L29 37L37 37L37 34L35 34L35 33L37 33L37 28L33 28L33 27L34 27L34 25L36 25L36 23L37 23L37 22L36 22L36 21L37 21L37 18L36 18L36 17L37 17L37 16L36 16L36 15L37 15L37 14L36 14L36 15L35 15L35 14L33 14L33 11L32 11L32 10L30 10L30 13L31 13L31 14L30 14L30 17L29 17L29 18L27 18L27 17L28 17L28 14L29 14L29 13L27 13L27 17L26 17L26 16L23 16L23 18L24 18L24 21L22 21L22 22L21 22L21 21L19 21L19 20L20 20L20 19L19 19L19 18L20 18L20 17L21 17L21 20L22 20L22 17L21 17L21 16L22 16L22 14L25 14L25 13L26 13L26 12L25 12L25 11L27 11L27 12L29 12L29 11L28 11L28 10L29 10L29 9L30 9L30 8L29 8L29 4L28 4L28 3L29 3L29 0L28 0L28 1L27 1L27 2L26 2L26 3L25 3L25 4L23 4L23 5L25 5L25 6L24 6L24 8L25 8L25 9L23 9L23 8L22 8L22 7L23 7L23 6L22 6L22 5L21 5L21 3L22 3L22 0L17 0L17 2L18 2L18 1L21 1L21 3L20 3L20 4L19 4L19 5L21 5L21 6L20 6L20 7L21 7L21 9L23 9L23 10L22 10L22 11L23 11L23 10L24 10L24 13L21 13L21 14L20 14L20 12L19 12L19 10L20 10L20 11L21 11L21 10L20 10L20 9L19 9L19 10L15 10L15 9L14 9L14 8L17 8L17 9L18 9L18 8L17 8L17 5L14 5L14 3L13 3L13 2L15 2L15 4L18 4L18 3L16 3L16 1L15 1L15 0L14 0L14 1L13 1L13 0ZM23 0L23 1L26 1L26 0ZM8 1L8 2L9 2L9 1ZM23 2L23 3L24 3L24 2ZM27 2L27 3L28 3L28 2ZM26 4L26 5L28 5L28 4ZM13 5L13 7L12 7L12 6L11 6L11 7L12 7L12 9L13 9L13 10L14 10L14 11L13 11L13 12L14 12L14 13L15 13L15 14L17 14L17 15L16 15L16 16L18 16L18 13L15 13L15 10L14 10L14 9L13 9L13 8L14 8L14 5ZM9 6L9 7L10 7L10 6ZM15 6L15 7L16 7L16 6ZM18 6L18 7L19 7L19 6ZM21 6L21 7L22 7L22 6ZM25 6L25 8L26 8L26 6ZM27 6L27 7L28 7L28 6ZM10 8L10 9L11 9L11 8ZM28 8L28 9L26 9L26 10L28 10L28 9L29 9L29 8ZM31 8L31 9L32 9L32 8ZM33 8L33 10L34 10L34 8ZM35 8L35 9L36 9L36 8ZM1 10L1 11L2 11L2 13L3 13L3 15L2 15L2 16L4 16L4 14L5 14L5 13L6 13L6 12L5 12L5 13L4 13L4 10L3 10L3 11L2 11L2 10ZM35 10L35 11L36 11L36 13L37 13L37 10ZM9 11L9 12L10 12L10 13L11 13L11 12L10 12L10 11ZM17 11L17 12L18 12L18 11ZM31 11L31 13L32 13L32 11ZM34 12L34 13L35 13L35 12ZM9 14L9 15L8 15L8 16L6 16L6 17L9 17L9 16L10 16L10 14ZM19 14L19 16L21 16L21 15L20 15L20 14ZM31 14L31 15L32 15L32 16L31 16L31 17L30 17L30 18L29 18L29 19L30 19L30 18L31 18L31 19L32 19L32 18L33 18L33 21L32 21L32 20L31 20L31 21L30 21L30 20L28 20L28 19L27 19L27 20L26 20L26 17L25 17L25 20L26 20L26 21L25 21L25 24L26 24L26 25L23 25L23 24L24 24L24 22L22 22L22 23L23 23L23 24L20 24L20 22L19 22L19 21L17 21L17 20L19 20L19 19L18 19L18 18L19 18L19 17L15 17L15 18L14 18L14 17L13 17L13 18L14 18L14 19L12 19L12 17L11 17L11 18L10 18L10 19L12 19L12 20L10 20L10 21L13 21L13 22L14 22L14 23L13 23L13 24L14 24L14 25L13 25L13 27L14 27L14 28L15 28L15 26L16 26L16 27L17 27L17 28L19 28L19 29L20 29L20 30L19 30L19 31L21 31L21 30L22 30L22 31L23 31L23 32L21 32L21 33L23 33L23 32L24 32L24 30L22 30L22 29L25 29L25 30L26 30L26 29L28 29L28 27L27 27L27 26L26 26L26 25L27 25L27 24L28 24L28 23L29 23L29 24L30 24L30 22L31 22L31 21L32 21L32 23L31 23L31 25L32 25L32 27L33 27L33 25L32 25L32 24L33 24L33 21L34 21L34 20L35 20L35 17L36 17L36 16L35 16L35 15L33 15L33 14ZM32 16L32 17L31 17L31 18L32 18L32 17L35 17L35 16ZM1 17L1 18L2 18L2 17ZM15 18L15 21L14 21L14 20L13 20L13 21L14 21L14 22L15 22L15 25L16 25L16 26L17 26L17 25L19 25L19 26L20 26L20 27L19 27L19 28L20 28L20 29L21 29L21 28L22 28L22 26L23 26L23 25L22 25L22 26L21 26L21 25L19 25L19 23L18 23L18 22L15 22L15 21L16 21L16 18ZM8 20L8 21L6 21L6 22L8 22L8 24L9 24L9 23L10 23L10 22L8 22L8 21L9 21L9 20ZM1 21L1 22L2 22L2 21ZM27 21L27 23L28 23L28 22L29 22L29 21ZM17 23L17 24L16 24L16 25L17 25L17 24L18 24L18 23ZM34 23L34 24L35 24L35 23ZM29 25L29 26L30 26L30 27L29 27L29 28L30 28L30 27L31 27L31 26L30 26L30 25ZM3 26L3 27L2 27L2 28L3 28L3 29L5 29L5 27L7 27L7 26L5 26L5 27L4 27L4 26ZM11 26L11 27L9 27L9 28L10 28L10 30L9 30L9 31L10 31L10 32L12 32L12 33L13 33L13 32L12 32L12 30L11 30L11 27L12 27L12 26ZM24 26L24 27L23 27L23 28L24 28L24 27L25 27L25 26ZM35 26L35 27L37 27L37 26ZM3 27L3 28L4 28L4 27ZM26 27L26 28L25 28L25 29L26 29L26 28L27 28L27 27ZM6 28L6 29L7 29L7 28ZM12 28L12 29L13 29L13 28ZM29 29L29 32L32 32L32 29ZM34 29L34 30L33 30L33 32L36 32L36 31L34 31L34 30L35 30L35 29ZM10 30L10 31L11 31L11 30ZM30 30L30 31L31 31L31 30ZM27 31L27 32L28 32L28 31ZM19 32L19 33L20 33L20 32ZM31 33L31 34L32 34L32 36L36 36L36 35L34 35L34 33L33 33L33 34L32 34L32 33ZM29 34L29 35L30 35L30 34ZM12 35L12 36L13 36L13 37L14 37L14 36L13 36L13 35ZM0 0L0 7L7 7L7 0ZM1 1L1 6L6 6L6 1ZM2 2L2 5L5 5L5 2ZM30 0L30 7L37 7L37 0ZM31 1L31 6L36 6L36 1ZM32 2L32 5L35 5L35 2ZM0 30L0 37L7 37L7 30ZM1 31L1 36L6 36L6 31ZM2 32L2 35L5 35L5 32Z" fill="#000000"/></g></g></svg>
