<?xml version="1.0" encoding="UTF-8"?>
<svg xmlns="http://www.w3.org/2000/svg" version="1.1" width="200" height="200" viewBox="0 0 200 200"><rect x="0" y="0" width="200" height="200" fill="#ffffff"/><g transform="scale(5.405)"><g transform="translate(0,0)"><path fill-rule="evenodd" d="M8 0L8 1L10 1L10 0ZM14 0L14 2L11 2L11 4L10 4L10 3L9 3L9 2L8 2L8 5L9 5L9 6L8 6L8 7L9 7L9 8L8 8L8 10L5 10L5 9L4 9L4 8L0 8L0 11L1 11L1 9L2 9L2 11L4 11L4 10L5 10L5 12L3 12L3 14L5 14L5 15L2 15L2 17L0 17L0 18L2 18L2 20L1 20L1 19L0 19L0 20L1 20L1 22L0 22L0 23L2 23L2 24L3 24L3 25L4 25L4 26L6 26L6 27L7 27L7 28L3 28L3 29L8 29L8 30L9 30L9 31L11 31L11 32L9 32L9 33L8 33L8 37L9 37L9 36L10 36L10 37L12 37L12 36L15 36L15 37L19 37L19 36L20 36L20 37L21 37L21 36L20 36L20 35L21 35L21 34L22 34L22 33L23 33L23 35L22 35L22 37L23 37L23 35L24 35L24 34L25 34L25 33L23 33L23 32L24 32L24 31L26 31L26 32L28 32L28 33L26 33L26 34L27 34L27 35L28 35L28 36L29 36L29 37L37 37L37 36L35 36L35 34L37 34L37 30L36 30L36 29L35 29L35 28L34 28L34 31L33 31L33 27L31 27L31 26L33 26L33 25L35 25L35 26L34 26L34 27L36 27L36 26L37 26L37 25L36 25L36 24L37 24L37 23L35 23L35 22L36 22L36 20L35 20L35 21L34 21L34 19L33 19L33 18L35 18L35 19L37 19L37 17L36 17L36 15L35 15L35 16L34 16L34 17L33 17L33 18L32 18L32 19L31 19L31 17L30 17L30 16L32 16L32 13L33 13L33 14L34 14L34 13L35 13L35 14L37 14L37 12L36 12L36 13L35 13L35 11L34 11L34 9L35 9L35 8L32 8L32 9L33 9L33 10L31 10L31 12L30 12L30 13L29 13L29 12L26 12L26 11L27 11L27 9L28 9L28 10L29 10L29 11L30 11L30 10L29 10L29 9L30 9L30 8L24 8L24 9L23 9L23 12L22 12L22 13L23 13L23 12L24 12L24 14L25 14L25 15L24 15L24 16L23 16L23 15L21 15L21 12L20 12L20 11L22 11L22 8L21 8L21 6L20 6L20 5L21 5L21 4L19 4L19 3L20 3L20 2L21 2L21 1L23 1L23 2L22 2L22 4L23 4L23 3L24 3L24 2L25 2L25 5L24 5L24 7L25 7L25 5L28 5L28 7L29 7L29 4L27 4L27 3L26 3L26 0L21 0L21 1L20 1L20 0L18 0L18 1L17 1L17 2L16 2L16 3L15 3L15 5L16 5L16 7L17 7L17 8L16 8L16 10L15 10L15 9L13 9L13 11L11 11L11 12L10 12L10 10L9 10L9 8L10 8L10 7L11 7L11 8L12 8L12 7L13 7L13 6L14 6L14 8L15 8L15 6L14 6L14 2L15 2L15 0ZM28 0L28 3L29 3L29 0ZM19 1L19 2L17 2L17 3L16 3L16 5L17 5L17 7L18 7L18 8L20 8L20 6L19 6L19 4L18 4L18 5L17 5L17 3L19 3L19 2L20 2L20 1ZM12 3L12 5L10 5L10 6L9 6L9 7L10 7L10 6L11 6L11 7L12 7L12 5L13 5L13 3ZM18 6L18 7L19 7L19 6ZM22 6L22 7L23 7L23 6ZM26 6L26 7L27 7L27 6ZM6 8L6 9L7 9L7 8ZM36 8L36 9L37 9L37 8ZM20 9L20 10L19 10L19 11L17 11L17 10L16 10L16 11L14 11L14 13L13 13L13 12L12 12L12 14L11 14L11 13L10 13L10 12L9 12L9 11L8 11L8 12L9 12L9 15L8 15L8 13L6 13L6 14L7 14L7 15L6 15L6 16L4 16L4 17L2 17L2 18L3 18L3 19L4 19L4 20L8 20L8 21L3 21L3 20L2 20L2 22L3 22L3 23L4 23L4 22L8 22L8 23L6 23L6 24L5 24L5 25L6 25L6 26L8 26L8 27L9 27L9 28L8 28L8 29L9 29L9 30L10 30L10 29L11 29L11 31L12 31L12 32L11 32L11 33L10 33L10 35L14 35L14 34L15 34L15 35L16 35L16 36L19 36L19 35L20 35L20 34L19 34L19 33L21 33L21 32L22 32L22 31L24 31L24 30L25 30L25 28L28 28L28 27L29 27L29 28L30 28L30 27L29 27L29 26L28 26L28 25L26 25L26 24L27 24L27 23L28 23L28 24L31 24L31 25L30 25L30 26L31 26L31 25L32 25L32 24L34 24L34 22L33 22L33 21L32 21L32 22L33 22L33 23L32 23L32 24L31 24L31 20L29 20L29 22L27 22L27 20L26 20L26 18L27 18L27 17L29 17L29 16L30 16L30 15L31 15L31 14L29 14L29 15L28 15L28 13L27 13L27 14L26 14L26 13L25 13L25 14L26 14L26 15L25 15L25 16L24 16L24 18L23 18L23 16L22 16L22 17L21 17L21 16L20 16L20 15L18 15L18 14L19 14L19 13L20 13L20 12L19 12L19 11L20 11L20 10L21 10L21 9ZM25 9L25 10L24 10L24 12L25 12L25 11L26 11L26 9ZM6 11L6 12L7 12L7 11ZM16 11L16 12L15 12L15 14L16 14L16 15L17 15L17 14L18 14L18 12L17 12L17 11ZM1 12L1 13L0 13L0 14L2 14L2 12ZM16 12L16 14L17 14L17 12ZM31 12L31 13L32 13L32 12ZM33 12L33 13L34 13L34 12ZM12 14L12 16L11 16L11 17L10 17L10 15L9 15L9 17L10 17L10 20L9 20L9 19L8 19L8 20L9 20L9 21L12 21L12 22L11 22L11 23L14 23L14 20L16 20L16 18L17 18L17 16L16 16L16 17L15 17L15 16L13 16L13 15L14 15L14 14ZM0 15L0 16L1 16L1 15ZM26 15L26 16L25 16L25 18L24 18L24 19L23 19L23 18L21 18L21 19L20 19L20 20L19 20L19 22L20 22L20 23L21 23L21 22L22 22L22 24L23 24L23 25L22 25L22 27L21 27L21 26L20 26L20 25L21 25L21 24L20 24L20 25L19 25L19 24L17 24L17 23L18 23L18 22L17 22L17 23L16 23L16 24L14 24L14 26L13 26L13 24L12 24L12 25L11 25L11 27L10 27L10 28L12 28L12 29L13 29L13 28L12 28L12 26L13 26L13 27L14 27L14 30L13 30L13 33L18 33L18 32L20 32L20 31L22 31L22 30L24 30L24 29L22 29L22 27L23 27L23 26L25 26L25 27L24 27L24 28L25 28L25 27L26 27L26 25L25 25L25 24L26 24L26 23L27 23L27 22L26 22L26 23L23 23L23 22L25 22L25 20L24 20L24 19L25 19L25 18L26 18L26 16L28 16L28 15ZM6 16L6 17L7 17L7 18L6 18L6 19L7 19L7 18L8 18L8 16ZM12 16L12 17L11 17L11 18L12 18L12 17L13 17L13 16ZM4 17L4 19L5 19L5 17ZM18 18L18 19L17 19L17 21L18 21L18 19L19 19L19 18ZM29 18L29 19L30 19L30 18ZM11 19L11 20L12 20L12 19ZM13 19L13 20L14 20L14 19ZM21 19L21 20L20 20L20 22L21 22L21 20L22 20L22 19ZM32 19L32 20L33 20L33 19ZM23 20L23 21L24 21L24 20ZM29 22L29 23L30 23L30 22ZM0 24L0 25L1 25L1 27L0 27L0 28L1 28L1 27L3 27L3 26L2 26L2 25L1 25L1 24ZM6 24L6 25L8 25L8 24ZM9 24L9 26L10 26L10 24ZM16 25L16 26L14 26L14 27L15 27L15 29L16 29L16 28L17 28L17 29L18 29L18 30L17 30L17 31L20 31L20 29L21 29L21 28L20 28L20 27L18 27L18 26L17 26L17 25ZM16 26L16 27L17 27L17 26ZM27 29L27 30L26 30L26 31L27 31L27 30L28 30L28 29ZM29 29L29 32L32 32L32 29ZM30 30L30 31L31 31L31 30ZM15 31L15 32L16 32L16 31ZM34 31L34 32L33 32L33 34L34 34L34 33L36 33L36 31ZM31 33L31 34L30 34L30 36L33 36L33 35L31 35L31 34L32 34L32 33ZM17 34L17 35L18 35L18 34ZM25 35L25 37L26 37L26 35ZM0 0L0 7L7 7L7 0ZM1 1L1 6L6 6L6 1ZM2 2L2 5L5 5L5 2ZM30 0L30 7L37 7L37 0ZM31 1L31 6L36 6L36 1ZM32 2L32 5L35 5L35 2ZM0 30L0 37L7 37L7 30ZM1 31L1 36L6 36L6 31ZM2 32L2 35L5 35L5 32Z" fill="#000000"/></g></g></svg>
