<?xml version="1.0" encoding="UTF-8"?>
<svg xmlns="http://www.w3.org/2000/svg" version="1.1" width="200" height="200" viewBox="0 0 200 200"><rect x="0" y="0" width="200" height="200" fill="#ffffff"/><g transform="scale(5.405)"><g transform="translate(0,0)"><path fill-rule="evenodd" d="M9 0L9 1L8 1L8 2L9 2L9 3L8 3L8 4L10 4L10 7L11 7L11 4L12 4L12 5L15 5L15 6L14 6L14 7L15 7L15 9L14 9L14 8L13 8L13 6L12 6L12 9L13 9L13 10L9 10L9 9L11 9L11 8L6 8L6 9L8 9L8 10L9 10L9 11L8 11L8 13L7 13L7 12L4 12L4 13L5 13L5 14L6 14L6 15L5 15L5 16L6 16L6 17L4 17L4 14L2 14L2 17L1 17L1 11L0 11L0 22L1 22L1 23L2 23L2 24L0 24L0 29L1 29L1 25L2 25L2 26L3 26L3 27L2 27L2 29L5 29L5 28L4 28L4 27L8 27L8 28L6 28L6 29L8 29L8 31L9 31L9 30L10 30L10 31L11 31L11 29L12 29L12 30L13 30L13 31L12 31L12 33L13 33L13 32L14 32L14 33L15 33L15 32L17 32L17 33L19 33L19 34L18 34L18 36L17 36L17 35L16 35L16 34L15 34L15 35L14 35L14 36L15 36L15 37L19 37L19 34L21 34L21 36L20 36L20 37L21 37L21 36L22 36L22 37L23 37L23 36L22 36L22 33L20 33L20 32L23 32L23 31L22 31L22 30L21 30L21 28L23 28L23 30L24 30L24 33L23 33L23 34L24 34L24 36L25 36L25 37L26 37L26 36L25 36L25 33L26 33L26 35L27 35L27 36L28 36L28 35L29 35L29 37L37 37L37 33L35 33L35 32L36 32L36 31L37 31L37 28L33 28L33 27L34 27L34 25L36 25L36 23L37 23L37 22L36 22L36 21L37 21L37 18L36 18L36 17L37 17L37 16L36 16L36 15L37 15L37 14L36 14L36 15L35 15L35 14L33 14L33 11L32 11L32 10L30 10L30 13L31 13L31 14L30 14L30 17L29 17L29 18L26 18L26 19L28 19L28 20L30 20L30 21L31 21L31 22L30 22L30 24L29 24L29 23L28 23L28 22L29 22L29 21L27 21L27 23L28 23L28 24L26 24L26 25L25 25L25 24L24 24L24 23L25 23L25 21L26 21L26 20L25 20L25 17L28 17L28 14L29 14L29 11L28 11L28 10L29 10L29 9L30 9L30 8L29 8L29 9L28 9L28 10L27 10L27 8L28 8L28 7L29 7L29 6L28 6L28 5L29 5L29 4L28 4L28 5L27 5L27 6L26 6L26 4L27 4L27 3L28 3L28 2L29 2L29 0L28 0L28 1L26 1L26 0L21 0L21 1L22 1L22 2L21 2L21 3L22 3L22 2L23 2L23 1L25 1L25 2L24 2L24 3L25 3L25 4L22 4L22 5L21 5L21 6L20 6L20 7L21 7L21 8L20 8L20 9L18 9L18 8L19 8L19 5L20 5L20 4L19 4L19 2L18 2L18 3L17 3L17 4L18 4L18 8L17 8L17 9L16 9L16 7L17 7L17 6L16 6L16 5L15 5L15 4L16 4L16 1L15 1L15 0L14 0L14 1L15 1L15 2L14 2L14 3L13 3L13 4L12 4L12 2L13 2L13 1L11 1L11 2L10 2L10 0ZM18 0L18 1L20 1L20 0ZM25 2L25 3L27 3L27 2ZM10 3L10 4L11 4L11 3ZM14 3L14 4L15 4L15 3ZM8 5L8 7L9 7L9 5ZM22 5L22 6L21 6L21 7L22 7L22 8L21 8L21 9L20 9L20 10L16 10L16 9L15 9L15 10L14 10L14 11L12 11L12 13L11 13L11 12L9 12L9 13L8 13L8 14L7 14L7 13L6 13L6 14L7 14L7 15L6 15L6 16L7 16L7 15L8 15L8 16L9 16L9 17L6 17L6 18L5 18L5 19L6 19L6 20L7 20L7 21L4 21L4 22L3 22L3 21L2 21L2 20L1 20L1 22L3 22L3 23L4 23L4 24L3 24L3 26L4 26L4 25L5 25L5 26L7 26L7 25L8 25L8 27L9 27L9 26L10 26L10 29L11 29L11 26L13 26L13 27L12 27L12 29L15 29L15 30L17 30L17 32L19 32L19 31L20 31L20 30L17 30L17 29L15 29L15 28L19 28L19 29L20 29L20 26L19 26L19 25L20 25L20 24L21 24L21 25L23 25L23 28L24 28L24 26L25 26L25 28L26 28L26 29L25 29L25 30L26 30L26 31L25 31L25 32L26 32L26 33L27 33L27 32L28 32L28 31L27 31L27 30L26 30L26 29L28 29L28 27L27 27L27 26L25 26L25 25L23 25L23 23L22 23L22 24L21 24L21 21L25 21L25 20L24 20L24 18L23 18L23 19L22 19L22 18L21 18L21 17L24 17L24 14L25 14L25 16L26 16L26 15L27 15L27 13L24 13L24 12L23 12L23 13L22 13L22 12L21 12L21 13L20 13L20 10L21 10L21 11L24 11L24 10L25 10L25 12L27 12L27 10L26 10L26 6L25 6L25 7L24 7L24 5ZM15 6L15 7L16 7L16 6ZM22 6L22 7L23 7L23 6ZM27 6L27 7L28 7L28 6ZM0 8L0 10L2 10L2 12L3 12L3 11L5 11L5 10L4 10L4 9L5 9L5 8ZM22 8L22 9L21 9L21 10L22 10L22 9L23 9L23 10L24 10L24 9L25 9L25 8L24 8L24 9L23 9L23 8ZM31 8L31 9L32 9L32 8ZM33 8L33 10L34 10L34 8ZM35 8L35 9L36 9L36 8ZM6 10L6 11L7 11L7 10ZM35 10L35 11L36 11L36 13L37 13L37 10ZM15 11L15 13L14 13L14 12L13 12L13 13L12 13L12 14L13 14L13 13L14 13L14 14L15 14L15 15L16 15L16 14L15 14L15 13L16 13L16 11ZM18 11L18 12L17 12L17 13L18 13L18 14L20 14L20 13L18 13L18 12L19 12L19 11ZM31 11L31 13L32 13L32 11ZM34 12L34 13L35 13L35 12ZM21 13L21 14L22 14L22 15L21 15L21 16L20 16L20 15L19 15L19 16L15 16L15 17L14 17L14 16L13 16L13 15L12 15L12 17L14 17L14 18L11 18L11 17L9 17L9 18L8 18L8 20L9 20L9 19L11 19L11 20L10 20L10 21L8 21L8 22L10 22L10 23L9 23L9 25L10 25L10 26L11 26L11 25L10 25L10 23L11 23L11 21L12 21L12 22L13 22L13 23L12 23L12 25L13 25L13 24L14 24L14 25L19 25L19 24L20 24L20 23L19 23L19 22L20 22L20 21L19 21L19 18L20 18L20 17L21 17L21 16L22 16L22 15L23 15L23 14L24 14L24 13L23 13L23 14L22 14L22 13ZM9 14L9 16L11 16L11 15L10 15L10 14ZM31 14L31 15L32 15L32 16L31 16L31 17L30 17L30 18L29 18L29 19L30 19L30 18L31 18L31 19L32 19L32 18L33 18L33 21L32 21L32 20L31 20L31 21L32 21L32 23L31 23L31 25L32 25L32 27L33 27L33 25L32 25L32 24L33 24L33 21L34 21L34 20L35 20L35 17L36 17L36 16L35 16L35 15L33 15L33 14ZM19 16L19 17L20 17L20 16ZM32 16L32 17L31 17L31 18L32 18L32 17L35 17L35 16ZM2 17L2 18L1 18L1 19L2 19L2 18L3 18L3 19L4 19L4 17ZM15 17L15 18L16 18L16 19L12 19L12 21L14 21L14 22L16 22L16 24L19 24L19 23L18 23L18 22L19 22L19 21L15 21L15 20L18 20L18 17ZM6 18L6 19L7 19L7 18ZM21 19L21 20L22 20L22 19ZM5 22L5 25L7 25L7 24L8 24L8 23L7 23L7 22ZM6 23L6 24L7 24L7 23ZM14 23L14 24L15 24L15 23ZM34 23L34 24L35 24L35 23ZM29 25L29 26L30 26L30 27L29 27L29 28L30 28L30 27L31 27L31 26L30 26L30 25ZM15 26L15 27L14 27L14 28L15 28L15 27L16 27L16 26ZM35 26L35 27L37 27L37 26ZM8 28L8 29L9 29L9 28ZM29 29L29 32L32 32L32 29ZM34 29L34 30L33 30L33 32L35 32L35 31L34 31L34 30L35 30L35 29ZM30 30L30 31L31 31L31 30ZM14 31L14 32L15 32L15 31ZM8 32L8 37L9 37L9 36L10 36L10 35L9 35L9 34L11 34L11 37L12 37L12 35L13 35L13 34L11 34L11 33L9 33L9 32ZM31 33L31 34L32 34L32 36L36 36L36 35L34 35L34 33L33 33L33 34L32 34L32 33ZM27 34L27 35L28 35L28 34ZM29 34L29 35L30 35L30 34ZM15 35L15 36L16 36L16 35ZM0 0L0 7L7 7L7 0ZM1 1L1 6L6 6L6 1ZM2 2L2 5L5 5L5 2ZM30 0L30 7L37 7L37 0ZM31 1L31 6L36 6L36 1ZM32 2L32 5L35 5L35 2ZM0 30L0 37L7 37L7 30ZM1 31L1 36L6 36L6 31ZM2 32L2 35L5 35L5 32Z" fill="#000000"/></g></g></svg>
