<?xml version="1.0" encoding="UTF-8"?>
<svg xmlns="http://www.w3.org/2000/svg" version="1.1" width="200" height="200" viewBox="0 0 200 200"><rect x="0" y="0" width="200" height="200" fill="#ffffff"/><g transform="scale(5.405)"><g transform="translate(0,0)"><path fill-rule="evenodd" d="M10 0L10 1L8 1L8 3L9 3L9 4L8 4L8 8L6 8L6 9L8 9L8 10L6 10L6 11L5 11L5 13L4 13L4 12L3 12L3 14L5 14L5 16L4 16L4 15L2 15L2 14L1 14L1 13L2 13L2 11L4 11L4 8L3 8L3 9L2 9L2 8L0 8L0 9L1 9L1 10L2 10L2 11L0 11L0 15L2 15L2 16L1 16L1 18L0 18L0 25L1 25L1 26L0 26L0 27L1 27L1 28L0 28L0 29L5 29L5 28L2 28L2 27L3 27L3 26L4 26L4 27L5 27L5 26L4 26L4 24L5 24L5 25L7 25L7 26L6 26L6 27L7 27L7 26L9 26L9 27L8 27L8 28L9 28L9 29L8 29L8 31L9 31L9 30L10 30L10 31L11 31L11 32L10 32L10 33L11 33L11 34L9 34L9 33L8 33L8 34L9 34L9 35L8 35L8 37L9 37L9 35L11 35L11 36L10 36L10 37L12 37L12 36L14 36L14 37L15 37L15 36L16 36L16 37L19 37L19 36L20 36L20 34L19 34L19 32L18 32L18 31L19 31L19 29L20 29L20 31L21 31L21 32L20 32L20 33L21 33L21 37L23 37L23 36L24 36L24 37L26 37L26 36L28 36L28 37L29 37L29 35L30 35L30 34L29 34L29 35L27 35L27 34L28 34L28 33L31 33L31 34L32 34L32 36L30 36L30 37L32 37L32 36L33 36L33 35L37 35L37 34L35 34L35 33L34 33L34 34L33 34L33 31L34 31L34 32L35 32L35 31L37 31L37 30L36 30L36 29L37 29L37 25L36 25L36 24L37 24L37 20L36 20L36 22L35 22L35 21L34 21L34 20L35 20L35 19L37 19L37 12L36 12L36 13L34 13L34 12L33 12L33 13L31 13L31 12L32 12L32 11L34 11L34 9L35 9L35 11L37 11L37 9L36 9L36 8L34 8L34 9L33 9L33 8L30 8L30 9L29 9L29 6L28 6L28 4L29 4L29 2L28 2L28 1L29 1L29 0L27 0L27 1L25 1L25 0L23 0L23 1L21 1L21 0L19 0L19 1L16 1L16 2L14 2L14 3L12 3L12 7L11 7L11 4L10 4L10 3L9 3L9 2L11 2L11 0ZM14 0L14 1L15 1L15 0ZM19 1L19 2L18 2L18 3L17 3L17 2L16 2L16 3L14 3L14 4L13 4L13 7L12 7L12 8L13 8L13 9L14 9L14 10L15 10L15 11L14 11L14 12L12 12L12 16L11 16L11 15L9 15L9 14L11 14L11 13L10 13L10 12L11 12L11 11L9 11L9 13L8 13L8 12L7 12L7 11L6 11L6 12L7 12L7 13L6 13L6 14L8 14L8 15L6 15L6 16L7 16L7 17L4 17L4 16L3 16L3 17L2 17L2 18L1 18L1 21L2 21L2 22L3 22L3 23L5 23L5 24L7 24L7 23L9 23L9 24L8 24L8 25L10 25L10 27L9 27L9 28L12 28L12 29L10 29L10 30L11 30L11 31L12 31L12 32L13 32L13 33L14 33L14 34L16 34L16 36L19 36L19 35L17 35L17 34L16 34L16 32L15 32L15 31L16 31L16 30L18 30L18 29L17 29L17 27L16 27L16 25L17 25L17 24L19 24L19 25L20 25L20 26L19 26L19 27L18 27L18 28L19 28L19 27L20 27L20 28L21 28L21 25L20 25L20 24L21 24L21 23L22 23L22 22L21 22L21 19L20 19L20 18L22 18L22 21L23 21L23 23L24 23L24 24L22 24L22 26L24 26L24 24L25 24L25 25L26 25L26 26L27 26L27 27L22 27L22 30L21 30L21 31L22 31L22 30L23 30L23 31L25 31L25 32L24 32L24 33L23 33L23 35L24 35L24 36L25 36L25 32L26 32L26 34L27 34L27 33L28 33L28 29L26 29L26 28L29 28L29 27L28 27L28 26L29 26L29 25L28 25L28 24L31 24L31 25L30 25L30 28L32 28L32 27L33 27L33 29L34 29L34 31L35 31L35 29L34 29L34 28L35 28L35 27L36 27L36 26L35 26L35 27L34 27L34 26L33 26L33 25L35 25L35 23L34 23L34 22L33 22L33 21L32 21L32 20L31 20L31 19L33 19L33 20L34 20L34 19L33 19L33 18L35 18L35 17L36 17L36 15L35 15L35 14L34 14L34 13L33 13L33 14L31 14L31 15L30 15L30 16L28 16L28 15L29 15L29 13L30 13L30 12L31 12L31 11L32 11L32 10L33 10L33 9L32 9L32 10L31 10L31 11L30 11L30 10L29 10L29 9L28 9L28 8L27 8L27 7L28 7L28 6L27 6L27 7L26 7L26 6L25 6L25 5L23 5L23 4L24 4L24 3L22 3L22 2L20 2L20 1ZM25 2L25 4L27 4L27 3L28 3L28 2L27 2L27 3L26 3L26 2ZM19 3L19 4L17 4L17 5L18 5L18 7L17 7L17 6L16 6L16 5L15 5L15 6L14 6L14 7L13 7L13 8L14 8L14 9L15 9L15 8L14 8L14 7L15 7L15 6L16 6L16 7L17 7L17 8L18 8L18 9L17 9L17 10L18 10L18 11L19 11L19 12L17 12L17 13L16 13L16 15L17 15L17 16L15 16L15 17L14 17L14 16L12 16L12 18L11 18L11 16L10 16L10 17L9 17L9 16L8 16L8 17L9 17L9 19L12 19L12 20L13 20L13 18L14 18L14 20L15 20L15 17L17 17L17 18L18 18L18 17L19 17L19 16L20 16L20 17L23 17L23 18L24 18L24 19L23 19L23 21L24 21L24 20L25 20L25 21L26 21L26 20L25 20L25 18L26 18L26 19L27 19L27 17L28 17L28 18L30 18L30 19L31 19L31 17L32 17L32 18L33 18L33 17L32 17L32 16L30 16L30 17L28 17L28 16L27 16L27 15L25 15L25 14L22 14L22 11L21 11L21 12L20 12L20 10L19 10L19 6L20 6L20 7L21 7L21 10L22 10L22 9L24 9L24 10L26 10L26 9L27 9L27 8L26 8L26 9L25 9L25 6L24 6L24 7L23 7L23 6L22 6L22 4L21 4L21 3ZM19 4L19 5L20 5L20 4ZM9 5L9 8L8 8L8 9L9 9L9 10L11 10L11 8L10 8L10 5ZM21 6L21 7L22 7L22 8L23 8L23 7L22 7L22 6ZM28 10L28 11L29 11L29 10ZM15 11L15 12L14 12L14 13L13 13L13 15L15 15L15 12L16 12L16 11ZM23 11L23 12L24 12L24 11ZM25 11L25 13L26 13L26 14L27 14L27 13L29 13L29 12L26 12L26 11ZM19 12L19 13L20 13L20 12ZM17 14L17 15L18 15L18 16L19 16L19 15L22 15L22 16L23 16L23 17L24 17L24 16L25 16L25 17L26 17L26 16L25 16L25 15L22 15L22 14ZM34 16L34 17L35 17L35 16ZM2 18L2 19L3 19L3 20L2 20L2 21L3 21L3 22L4 22L4 21L5 21L5 23L7 23L7 22L6 22L6 21L7 21L7 20L6 20L6 19L7 19L7 18L5 18L5 19L4 19L4 18ZM17 19L17 20L18 20L18 21L17 21L17 22L16 22L16 23L14 23L14 24L16 24L16 23L19 23L19 24L20 24L20 23L21 23L21 22L19 22L19 19ZM3 20L3 21L4 21L4 20ZM27 20L27 21L28 21L28 22L30 22L30 23L31 23L31 24L34 24L34 23L33 23L33 22L32 22L32 23L31 23L31 20ZM8 21L8 22L9 22L9 21ZM10 21L10 23L11 23L11 22L12 22L12 21ZM14 21L14 22L15 22L15 21ZM25 22L25 24L27 24L27 22ZM1 24L1 25L2 25L2 26L1 26L1 27L2 27L2 26L3 26L3 25L2 25L2 24ZM10 24L10 25L11 25L11 26L12 26L12 28L13 28L13 29L15 29L15 28L16 28L16 27L13 27L13 24L12 24L12 25L11 25L11 24ZM31 25L31 27L32 27L32 25ZM6 28L6 29L7 29L7 28ZM23 29L23 30L24 30L24 29ZM25 29L25 30L26 30L26 31L27 31L27 30L26 30L26 29ZM29 29L29 32L32 32L32 29ZM13 30L13 32L14 32L14 33L15 33L15 32L14 32L14 30ZM30 30L30 31L31 31L31 30ZM17 32L17 33L18 33L18 32ZM36 32L36 33L37 33L37 32ZM14 35L14 36L15 36L15 35ZM35 36L35 37L37 37L37 36ZM0 0L0 7L7 7L7 0ZM1 1L1 6L6 6L6 1ZM2 2L2 5L5 5L5 2ZM30 0L30 7L37 7L37 0ZM31 1L31 6L36 6L36 1ZM32 2L32 5L35 5L35 2ZM0 30L0 37L7 37L7 30ZM1 31L1 36L6 36L6 31ZM2 32L2 35L5 35L5 32Z" fill="#000000"/></g></g></svg>
