<?xml version="1.0" encoding="UTF-8"?>
<svg xmlns="http://www.w3.org/2000/svg" version="1.1" width="200" height="200" viewBox="0 0 200 200"><rect x="0" y="0" width="200" height="200" fill="#ffffff"/><g transform="scale(5.405)"><g transform="translate(0,0)"><path fill-rule="evenodd" d="M8 0L8 4L10 4L10 3L11 3L11 4L12 4L12 2L11 2L11 0ZM12 0L12 1L13 1L13 2L15 2L15 5L14 5L14 7L15 7L15 8L14 8L14 9L12 9L12 8L13 8L13 5L11 5L11 6L10 6L10 7L9 7L9 5L8 5L8 7L9 7L9 8L10 8L10 7L11 7L11 6L12 6L12 8L11 8L11 9L10 9L10 10L11 10L11 12L12 12L12 13L13 13L13 15L12 15L12 16L11 16L11 17L12 17L12 18L8 18L8 17L9 17L9 16L10 16L10 14L9 14L9 12L10 12L10 11L9 11L9 9L7 9L7 8L4 8L4 9L2 9L2 8L0 8L0 9L1 9L1 10L0 10L0 12L2 12L2 13L3 13L3 12L4 12L4 11L5 11L5 12L6 12L6 13L5 13L5 15L9 15L9 16L6 16L6 17L5 17L5 16L4 16L4 15L2 15L2 14L0 14L0 16L1 16L1 15L2 15L2 17L4 17L4 18L2 18L2 22L1 22L1 20L0 20L0 24L1 24L1 25L0 25L0 26L2 26L2 27L3 27L3 28L0 28L0 29L3 29L3 28L6 28L6 29L8 29L8 30L9 30L9 31L8 31L8 33L9 33L9 35L8 35L8 37L9 37L9 36L10 36L10 37L11 37L11 36L12 36L12 37L14 37L14 35L15 35L15 37L16 37L16 33L20 33L20 31L19 31L19 32L18 32L18 30L16 30L16 29L20 29L20 30L21 30L21 34L20 34L20 36L18 36L18 35L19 35L19 34L18 34L18 35L17 35L17 37L20 37L20 36L21 36L21 37L25 37L25 36L24 36L24 34L23 34L23 36L22 36L22 35L21 35L21 34L22 34L22 33L25 33L25 34L27 34L27 36L26 36L26 37L27 37L27 36L28 36L28 35L29 35L29 36L30 36L30 37L31 37L31 36L32 36L32 33L33 33L33 34L37 34L37 33L35 33L35 32L37 32L37 31L34 31L34 33L33 33L33 27L34 27L34 29L35 29L35 30L37 30L37 27L35 27L35 26L33 26L33 25L32 25L32 24L30 24L30 22L29 22L29 21L27 21L27 20L28 20L28 18L29 18L29 20L30 20L30 21L32 21L32 22L31 22L31 23L32 23L32 22L33 22L33 24L34 24L34 25L36 25L36 24L37 24L37 23L36 23L36 24L35 24L35 23L34 23L34 22L36 22L36 21L37 21L37 20L35 20L35 18L36 18L36 17L37 17L37 15L36 15L36 14L35 14L35 15L34 15L34 13L35 13L35 12L36 12L36 13L37 13L37 12L36 12L36 11L35 11L35 10L34 10L34 12L33 12L33 11L32 11L32 10L33 10L33 9L37 9L37 8L33 8L33 9L32 9L32 8L31 8L31 11L32 11L32 12L30 12L30 10L28 10L28 9L29 9L29 5L28 5L28 2L29 2L29 1L28 1L28 0L26 0L26 1L25 1L25 0L22 0L22 2L21 2L21 0L20 0L20 1L19 1L19 0L18 0L18 2L17 2L17 1L16 1L16 0L15 0L15 1L14 1L14 0ZM15 1L15 2L16 2L16 1ZM23 1L23 3L24 3L24 2L25 2L25 3L26 3L26 2L28 2L28 1L26 1L26 2L25 2L25 1ZM9 2L9 3L10 3L10 2ZM18 2L18 3L16 3L16 5L15 5L15 7L16 7L16 6L17 6L17 7L18 7L18 9L17 9L17 8L15 8L15 9L14 9L14 10L13 10L13 11L12 11L12 12L13 12L13 13L14 13L14 14L15 14L15 15L13 15L13 16L12 16L12 17L13 17L13 18L14 18L14 17L13 17L13 16L15 16L15 17L16 17L16 18L18 18L18 20L19 20L19 21L16 21L16 19L14 19L14 21L16 21L16 22L19 22L19 23L20 23L20 25L19 25L19 28L21 28L21 26L23 26L23 25L24 25L24 24L25 24L25 26L24 26L24 28L23 28L23 29L27 29L27 30L28 30L28 29L27 29L27 28L29 28L29 26L30 26L30 25L29 25L29 22L28 22L28 25L29 25L29 26L28 26L28 27L25 27L25 26L26 26L26 25L27 25L27 24L26 24L26 23L27 23L27 21L26 21L26 18L27 18L27 17L26 17L26 16L28 16L28 17L30 17L30 19L32 19L32 17L34 17L34 18L33 18L33 20L32 20L32 21L33 21L33 22L34 22L34 21L33 21L33 20L34 20L34 18L35 18L35 17L36 17L36 15L35 15L35 17L34 17L34 15L33 15L33 12L32 12L32 13L30 13L30 12L27 12L27 13L26 13L26 10L25 10L25 13L24 13L24 12L22 12L22 13L21 13L21 11L23 11L23 10L22 10L22 9L28 9L28 8L26 8L26 5L23 5L23 7L22 7L22 3L20 3L20 2ZM13 3L13 4L14 4L14 3ZM18 3L18 4L17 4L17 5L19 5L19 6L18 6L18 7L19 7L19 6L20 6L20 7L21 7L21 8L19 8L19 9L18 9L18 10L16 10L16 9L15 9L15 12L14 12L14 13L15 13L15 14L16 14L16 15L15 15L15 16L17 16L17 17L20 17L20 18L21 18L21 17L22 17L22 18L23 18L23 19L25 19L25 18L26 18L26 17L25 17L25 16L24 16L24 17L22 17L22 16L23 16L23 15L25 15L25 14L26 14L26 13L25 13L25 14L24 14L24 13L22 13L22 14L21 14L21 13L20 13L20 12L19 12L19 9L20 9L20 10L21 10L21 9L22 9L22 7L21 7L21 4L20 4L20 5L19 5L19 3ZM27 5L27 7L28 7L28 5ZM24 6L24 7L25 7L25 6ZM6 9L6 10L7 10L7 9ZM11 9L11 10L12 10L12 9ZM1 10L1 11L2 11L2 12L3 12L3 11L2 11L2 10ZM6 11L6 12L7 12L7 13L6 13L6 14L7 14L7 13L8 13L8 11ZM15 12L15 13L17 13L17 14L18 14L18 16L20 16L20 17L21 17L21 14L20 14L20 13L19 13L19 14L18 14L18 13L17 13L17 12ZM27 13L27 15L29 15L29 16L30 16L30 17L32 17L32 15L31 15L31 16L30 16L30 14L28 14L28 13ZM22 14L22 15L23 15L23 14ZM0 17L0 19L1 19L1 17ZM6 17L6 18L4 18L4 19L5 19L5 20L7 20L7 19L6 19L6 18L7 18L7 17ZM24 17L24 18L25 18L25 17ZM8 19L8 21L9 21L9 20L10 20L10 19ZM12 19L12 20L11 20L11 21L10 21L10 22L9 22L9 23L8 23L8 22L7 22L7 21L4 21L4 20L3 20L3 21L4 21L4 24L5 24L5 23L6 23L6 24L7 24L7 23L8 23L8 25L4 25L4 26L3 26L3 24L2 24L2 23L1 23L1 24L2 24L2 26L3 26L3 27L6 27L6 28L8 28L8 27L6 27L6 26L8 26L8 25L9 25L9 27L10 27L10 26L12 26L12 25L13 25L13 26L15 26L15 25L16 25L16 26L17 26L17 25L16 25L16 23L15 23L15 22L13 22L13 21L12 21L12 20L13 20L13 19ZM21 19L21 21L20 21L20 22L21 22L21 25L20 25L20 26L21 26L21 25L22 25L22 23L23 23L23 24L24 24L24 21L25 21L25 23L26 23L26 21L25 21L25 20L24 20L24 21L23 21L23 22L22 22L22 19ZM6 22L6 23L7 23L7 22ZM10 22L10 23L9 23L9 24L11 24L11 25L12 25L12 24L13 24L13 25L15 25L15 23L14 23L14 24L13 24L13 23L12 23L12 24L11 24L11 22ZM31 25L31 26L32 26L32 27L33 27L33 26L32 26L32 25ZM12 27L12 28L11 28L11 29L10 29L10 28L9 28L9 29L10 29L10 32L9 32L9 33L11 33L11 34L10 34L10 36L11 36L11 34L12 34L12 33L13 33L13 34L15 34L15 33L16 33L16 31L15 31L15 30L13 30L13 29L12 29L12 28L13 28L13 27ZM14 27L14 29L16 29L16 28L15 28L15 27ZM30 27L30 28L31 28L31 27ZM21 29L21 30L22 30L22 29ZM29 29L29 32L32 32L32 29ZM23 30L23 32L24 32L24 31L25 31L25 33L26 33L26 32L27 32L27 34L29 34L29 35L30 35L30 36L31 36L31 34L29 34L29 33L28 33L28 31L25 31L25 30ZM30 30L30 31L31 31L31 30ZM12 31L12 32L11 32L11 33L12 33L12 32L13 32L13 33L15 33L15 31L14 31L14 32L13 32L13 31ZM12 35L12 36L13 36L13 35ZM34 35L34 37L37 37L37 36L36 36L36 35ZM0 0L0 7L7 7L7 0ZM1 1L1 6L6 6L6 1ZM2 2L2 5L5 5L5 2ZM30 0L30 7L37 7L37 0ZM31 1L31 6L36 6L36 1ZM32 2L32 5L35 5L35 2ZM0 30L0 37L7 37L7 30ZM1 31L1 36L6 36L6 31ZM2 32L2 35L5 35L5 32Z" fill="#000000"/></g></g></svg>
