<?xml version="1.0" encoding="UTF-8"?>
<svg xmlns="http://www.w3.org/2000/svg" version="1.1" width="200" height="200" viewBox="0 0 200 200"><rect x="0" y="0" width="200" height="200" fill="#ffffff"/><g transform="scale(5.405)"><g transform="translate(0,0)"><path fill-rule="evenodd" d="M9 0L9 1L11 1L11 2L9 2L9 3L8 3L8 5L9 5L9 6L8 6L8 7L9 7L9 9L10 9L10 10L9 10L9 11L8 11L8 10L6 10L6 9L8 9L8 8L5 8L5 9L3 9L3 12L2 12L2 13L1 13L1 12L0 12L0 13L1 13L1 14L0 14L0 16L3 16L3 19L2 19L2 20L1 20L1 19L0 19L0 20L1 20L1 21L2 21L2 23L4 23L4 24L1 24L1 23L0 23L0 29L1 29L1 26L3 26L3 27L2 27L2 29L4 29L4 27L7 27L7 28L6 28L6 29L7 29L7 28L8 28L8 26L4 26L4 24L5 24L5 25L7 25L7 24L8 24L8 25L9 25L9 29L8 29L8 32L9 32L9 31L10 31L10 33L9 33L9 35L8 35L8 37L10 37L10 36L9 36L9 35L10 35L10 33L11 33L11 31L12 31L12 33L13 33L13 32L14 32L14 34L15 34L15 35L14 35L14 36L13 36L13 37L16 37L16 36L17 36L17 35L16 35L16 34L17 34L17 33L19 33L19 34L18 34L18 37L20 37L20 36L19 36L19 34L20 34L20 32L21 32L21 31L22 31L22 32L23 32L23 31L24 31L24 33L22 33L22 34L21 34L21 35L22 35L22 34L24 34L24 36L23 36L23 37L24 37L24 36L25 36L25 33L26 33L26 32L25 32L25 29L26 29L26 31L27 31L27 33L29 33L29 34L28 34L28 35L29 35L29 36L28 36L28 37L29 37L29 36L30 36L30 37L31 37L31 36L32 36L32 34L31 34L31 33L33 33L33 34L34 34L34 35L33 35L33 37L34 37L34 35L36 35L36 37L37 37L37 33L35 33L35 32L36 32L36 31L37 31L37 28L35 28L35 27L37 27L37 26L35 26L35 27L34 27L34 26L33 26L33 28L32 28L32 24L31 24L31 23L32 23L32 22L33 22L33 23L35 23L35 24L36 24L36 23L37 23L37 22L36 22L36 21L37 21L37 18L36 18L36 17L37 17L37 16L36 16L36 15L37 15L37 14L36 14L36 15L35 15L35 14L34 14L34 13L32 13L32 12L34 12L34 11L32 11L32 10L33 10L33 9L34 9L34 10L35 10L35 11L36 11L36 12L35 12L35 13L37 13L37 10L35 10L35 9L34 9L34 8L32 8L32 10L30 10L30 12L29 12L29 11L28 11L28 9L27 9L27 6L26 6L26 3L25 3L25 2L27 2L27 4L28 4L28 5L29 5L29 3L28 3L28 2L29 2L29 1L28 1L28 2L27 2L27 0L26 0L26 1L24 1L24 2L23 2L23 3L22 3L22 1L23 1L23 0L20 0L20 1L21 1L21 3L20 3L20 4L19 4L19 2L18 2L18 3L16 3L16 2L14 2L14 3L13 3L13 4L12 4L12 2L13 2L13 1L14 1L14 0L13 0L13 1L12 1L12 0ZM16 0L16 1L19 1L19 0ZM9 3L9 5L10 5L10 3ZM15 3L15 5L12 5L12 4L11 4L11 7L10 7L10 6L9 6L9 7L10 7L10 8L11 8L11 10L10 10L10 11L9 11L9 12L7 12L7 11L6 11L6 10L5 10L5 11L4 11L4 12L5 12L5 11L6 11L6 12L7 12L7 13L5 13L5 15L4 15L4 14L3 14L3 13L2 13L2 15L4 15L4 20L2 20L2 21L4 21L4 23L5 23L5 24L7 24L7 23L11 23L11 24L12 24L12 23L13 23L13 22L12 22L12 21L15 21L15 18L14 18L14 17L15 17L15 16L14 16L14 15L15 15L15 14L14 14L14 12L17 12L17 13L16 13L16 15L17 15L17 16L19 16L19 17L20 17L20 18L21 18L21 19L19 19L19 21L17 21L17 22L16 22L16 23L14 23L14 25L10 25L10 24L9 24L9 25L10 25L10 26L13 26L13 27L12 27L12 29L11 29L11 30L10 30L10 31L11 31L11 30L12 30L12 31L14 31L14 32L15 32L15 33L17 33L17 32L19 32L19 30L18 30L18 31L17 31L17 29L16 29L16 31L15 31L15 30L12 30L12 29L15 29L15 24L16 24L16 27L17 27L17 28L19 28L19 29L20 29L20 28L21 28L21 29L22 29L22 30L23 30L23 28L24 28L24 26L25 26L25 28L26 28L26 29L27 29L27 30L28 30L28 28L30 28L30 27L31 27L31 26L30 26L30 22L31 22L31 21L32 21L32 20L31 20L31 21L30 21L30 20L27 20L27 17L25 17L25 18L26 18L26 19L25 19L25 20L24 20L24 19L22 19L22 17L24 17L24 14L25 14L25 16L28 16L28 19L29 19L29 17L30 17L30 18L31 18L31 17L32 17L32 19L34 19L34 20L33 20L33 22L35 22L35 21L34 21L34 20L35 20L35 19L36 19L36 18L35 18L35 17L36 17L36 16L35 16L35 17L34 17L34 18L33 18L33 17L32 17L32 16L31 16L31 17L30 17L30 14L31 14L31 15L33 15L33 14L31 14L31 13L29 13L29 12L28 12L28 11L27 11L27 9L26 9L26 6L25 6L25 5L22 5L22 6L21 6L21 4L20 4L20 5L19 5L19 8L18 8L18 4L16 4L16 3ZM23 3L23 4L25 4L25 3ZM12 6L12 9L13 9L13 10L11 10L11 12L10 12L10 13L8 13L8 15L7 15L7 14L6 14L6 15L5 15L5 17L7 17L7 16L8 16L8 15L9 15L9 16L10 16L10 15L9 15L9 14L10 14L10 13L11 13L11 12L12 12L12 11L14 11L14 8L13 8L13 6ZM14 6L14 7L15 7L15 6ZM16 6L16 7L17 7L17 6ZM20 6L20 7L21 7L21 6ZM22 6L22 8L23 8L23 6ZM24 6L24 7L25 7L25 6ZM28 6L28 7L29 7L29 6ZM0 8L0 10L1 10L1 11L2 11L2 8ZM15 8L15 10L16 10L16 8ZM17 8L17 10L20 10L20 12L19 12L19 11L18 11L18 12L19 12L19 13L18 13L18 14L20 14L20 12L21 12L21 11L22 11L22 9L21 9L21 8L20 8L20 9L18 9L18 8ZM23 9L23 10L25 10L25 9ZM31 11L31 12L32 12L32 11ZM23 12L23 14L24 14L24 13L25 13L25 12ZM27 12L27 13L28 13L28 14L27 14L27 15L28 15L28 16L29 16L29 15L28 15L28 14L29 14L29 13L28 13L28 12ZM12 13L12 14L13 14L13 13ZM6 15L6 16L7 16L7 15ZM12 15L12 17L14 17L14 16L13 16L13 15ZM19 15L19 16L20 16L20 17L21 17L21 15ZM22 15L22 16L23 16L23 15ZM0 17L0 18L1 18L1 17ZM8 17L8 18L5 18L5 23L7 23L7 22L6 22L6 21L7 21L7 20L6 20L6 19L8 19L8 18L9 18L9 19L10 19L10 21L12 21L12 19L13 19L13 18L12 18L12 19L10 19L10 18L9 18L9 17ZM16 17L16 18L18 18L18 17ZM34 18L34 19L35 19L35 18ZM16 19L16 20L18 20L18 19ZM8 20L8 22L9 22L9 20ZM22 20L22 22L23 22L23 24L22 24L22 26L21 26L21 25L20 25L20 23L19 23L19 22L21 22L21 21L19 21L19 22L18 22L18 23L19 23L19 24L18 24L18 25L19 25L19 26L20 26L20 27L22 27L22 28L23 28L23 24L24 24L24 25L25 25L25 26L27 26L27 27L26 27L26 28L28 28L28 27L30 27L30 26L29 26L29 25L28 25L28 24L29 24L29 23L28 23L28 22L27 22L27 21L26 21L26 20L25 20L25 21L23 21L23 20ZM25 21L25 23L24 23L24 24L26 24L26 25L27 25L27 26L28 26L28 25L27 25L27 22L26 22L26 21ZM33 24L33 25L34 25L34 24ZM29 29L29 32L32 32L32 29ZM33 29L33 31L34 31L34 32L35 32L35 31L36 31L36 30L35 30L35 29ZM20 30L20 31L21 31L21 30ZM30 30L30 31L31 31L31 30ZM16 31L16 32L17 32L17 31ZM34 33L34 34L35 34L35 33ZM11 34L11 36L12 36L12 35L13 35L13 34ZM26 34L26 35L27 35L27 34ZM29 34L29 35L30 35L30 34ZM26 36L26 37L27 37L27 36ZM0 0L0 7L7 7L7 0ZM1 1L1 6L6 6L6 1ZM2 2L2 5L5 5L5 2ZM30 0L30 7L37 7L37 0ZM31 1L31 6L36 6L36 1ZM32 2L32 5L35 5L35 2ZM0 30L0 37L7 37L7 30ZM1 31L1 36L6 36L6 31ZM2 32L2 35L5 35L5 32Z" fill="#000000"/></g></g></svg>
