<?xml version="1.0" encoding="UTF-8"?>
<svg xmlns="http://www.w3.org/2000/svg" version="1.1" width="200" height="200" viewBox="0 0 200 200"><rect x="0" y="0" width="200" height="200" fill="#ffffff"/><g transform="scale(5.405)"><g transform="translate(0,0)"><path fill-rule="evenodd" d="M8 0L8 4L9 4L9 5L8 5L8 7L9 7L9 6L10 6L10 9L9 9L9 10L5 10L5 9L7 9L7 8L4 8L4 10L3 10L3 11L4 11L4 10L5 10L5 11L7 11L7 12L6 12L6 13L7 13L7 14L5 14L5 15L4 15L4 16L2 16L2 17L3 17L3 18L2 18L2 19L3 19L3 18L4 18L4 20L3 20L3 21L1 21L1 18L0 18L0 21L1 21L1 22L0 22L0 24L3 24L3 25L0 25L0 26L3 26L3 27L4 27L4 28L0 28L0 29L4 29L4 28L5 28L5 27L7 27L7 28L6 28L6 29L7 29L7 28L8 28L8 30L9 30L9 31L8 31L8 33L9 33L9 35L8 35L8 37L9 37L9 35L10 35L10 32L12 32L12 33L13 33L13 34L15 34L15 35L14 35L14 36L13 36L13 35L12 35L12 36L10 36L10 37L12 37L12 36L13 36L13 37L15 37L15 35L17 35L17 36L16 36L16 37L20 37L20 36L18 36L18 34L16 34L16 29L17 29L17 33L19 33L19 32L20 32L20 33L22 33L22 31L23 31L23 32L24 32L24 33L23 33L23 34L21 34L21 37L23 37L23 36L24 36L24 34L26 34L26 35L27 35L27 36L26 36L26 37L28 37L28 36L29 36L29 37L31 37L31 36L32 36L32 33L33 33L33 34L37 34L37 33L35 33L35 31L34 31L34 33L33 33L33 27L34 27L34 29L35 29L35 30L37 30L37 27L35 27L35 26L33 26L33 25L32 25L32 24L30 24L30 22L29 22L29 21L28 21L28 20L26 20L26 21L22 21L22 20L24 20L24 18L26 18L26 19L28 19L28 17L25 17L25 16L24 16L24 14L23 14L23 13L22 13L22 12L24 12L24 13L25 13L25 14L27 14L27 15L26 15L26 16L30 16L30 17L29 17L29 20L30 20L30 21L32 21L32 22L31 22L31 23L32 23L32 22L33 22L33 24L34 24L34 25L36 25L36 24L37 24L37 23L36 23L36 24L35 24L35 23L34 23L34 22L36 22L36 21L37 21L37 20L35 20L35 18L36 18L36 17L37 17L37 15L36 15L36 14L35 14L35 15L34 15L34 13L35 13L35 12L36 12L36 13L37 13L37 12L36 12L36 11L35 11L35 10L34 10L34 12L33 12L33 11L32 11L32 10L33 10L33 9L37 9L37 8L33 8L33 9L32 9L32 8L31 8L31 11L32 11L32 12L30 12L30 10L29 10L29 9L28 9L28 8L29 8L29 6L28 6L28 7L27 7L27 5L29 5L29 0L26 0L26 1L28 1L28 2L27 2L27 3L25 3L25 4L26 4L26 8L25 8L25 6L24 6L24 8L25 8L25 9L23 9L23 5L22 5L22 7L21 7L21 4L22 4L22 3L23 3L23 4L24 4L24 2L23 2L23 1L25 1L25 0L22 0L22 1L21 1L21 0L20 0L20 1L19 1L19 0L18 0L18 1L19 1L19 2L21 2L21 4L20 4L20 5L19 5L19 4L18 4L18 7L17 7L17 6L16 6L16 7L15 7L15 5L16 5L16 4L17 4L17 3L18 3L18 2L15 2L15 1L16 1L16 0L15 0L15 1L14 1L14 0L13 0L13 1L11 1L11 2L12 2L12 5L14 5L14 9L15 9L15 10L16 10L16 11L15 11L15 12L14 12L14 13L12 13L12 12L13 12L13 11L14 11L14 10L13 10L13 11L12 11L12 12L11 12L11 11L10 11L10 13L12 13L12 14L11 14L11 15L10 15L10 16L9 16L9 14L8 14L8 13L7 13L7 12L9 12L9 10L10 10L10 9L11 9L11 8L12 8L12 9L13 9L13 8L12 8L12 7L13 7L13 6L12 6L12 7L11 7L11 3L10 3L10 2L9 2L9 0ZM13 2L13 3L14 3L14 5L15 5L15 3L14 3L14 2ZM27 3L27 4L28 4L28 3ZM19 6L19 7L18 7L18 9L19 9L19 11L18 11L18 13L17 13L17 12L15 12L15 13L14 13L14 14L13 14L13 15L12 15L12 16L11 16L11 17L10 17L10 18L11 18L11 19L10 19L10 20L9 20L9 21L11 21L11 22L9 22L9 23L11 23L11 22L12 22L12 21L13 21L13 22L14 22L14 21L13 21L13 20L15 20L15 21L16 21L16 22L18 22L18 23L20 23L20 25L16 25L16 24L15 24L15 23L14 23L14 25L16 25L16 26L17 26L17 27L18 27L18 28L20 28L20 29L19 29L19 31L20 31L20 30L21 30L21 28L20 28L20 26L21 26L21 27L23 27L23 26L24 26L24 28L25 28L25 29L26 29L26 31L25 31L25 30L24 30L24 32L25 32L25 33L26 33L26 34L27 34L27 35L29 35L29 36L31 36L31 34L30 34L30 35L29 35L29 34L28 34L28 31L27 31L27 30L28 30L28 29L26 29L26 28L29 28L29 27L30 27L30 28L31 28L31 27L30 27L30 25L29 25L29 26L28 26L28 24L29 24L29 23L27 23L27 22L28 22L28 21L27 21L27 22L23 22L23 23L22 23L22 25L21 25L21 22L22 22L22 21L21 21L21 22L20 22L20 21L16 21L16 19L13 19L13 17L14 17L14 18L15 18L15 17L16 17L16 18L18 18L18 20L21 20L21 18L20 18L20 17L21 17L21 16L20 16L20 13L21 13L21 14L22 14L22 13L21 13L21 10L22 10L22 11L23 11L23 9L22 9L22 8L21 8L21 7L20 7L20 6ZM0 8L0 10L1 10L1 9L2 9L2 8ZM15 8L15 9L17 9L17 8ZM19 8L19 9L20 9L20 10L21 10L21 9L20 9L20 8ZM26 8L26 10L25 10L25 13L27 13L27 14L28 14L28 12L29 12L29 14L30 14L30 16L31 16L31 15L32 15L32 17L30 17L30 19L32 19L32 17L34 17L34 18L33 18L33 20L32 20L32 21L33 21L33 22L34 22L34 21L33 21L33 20L34 20L34 18L35 18L35 17L36 17L36 15L35 15L35 17L34 17L34 15L33 15L33 12L32 12L32 13L30 13L30 12L29 12L29 11L28 11L28 12L27 12L27 8ZM0 11L0 16L1 16L1 15L2 15L2 14L4 14L4 13L5 13L5 12L3 12L3 13L2 13L2 14L1 14L1 11ZM19 12L19 13L18 13L18 14L16 14L16 13L15 13L15 15L16 15L16 17L18 17L18 18L19 18L19 17L20 17L20 16L19 16L19 13L20 13L20 12ZM6 15L6 16L7 16L7 15ZM22 15L22 17L24 17L24 16L23 16L23 15ZM8 16L8 17L9 17L9 16ZM12 16L12 17L13 17L13 16ZM14 16L14 17L15 17L15 16ZM6 17L6 18L5 18L5 20L4 20L4 21L3 21L3 23L6 23L6 24L7 24L7 25L5 25L5 24L4 24L4 27L5 27L5 26L8 26L8 28L10 28L10 29L9 29L9 30L12 30L12 29L13 29L13 30L15 30L15 29L16 29L16 27L15 27L15 26L13 26L13 25L12 25L12 24L13 24L13 23L12 23L12 24L11 24L11 25L8 25L8 24L7 24L7 23L8 23L8 22L7 22L7 21L8 21L8 19L9 19L9 18L8 18L8 19L6 19L6 18L7 18L7 17ZM12 19L12 20L11 20L11 21L12 21L12 20L13 20L13 19ZM6 20L6 21L4 21L4 22L6 22L6 23L7 23L7 22L6 22L6 21L7 21L7 20ZM1 22L1 23L2 23L2 22ZM24 23L24 24L23 24L23 25L22 25L22 26L23 26L23 25L26 25L26 24L25 24L25 23ZM31 25L31 26L32 26L32 27L33 27L33 26L32 26L32 25ZM9 26L9 27L10 27L10 28L11 28L11 29L12 29L12 28L13 28L13 29L15 29L15 27L14 27L14 28L13 28L13 27L12 27L12 28L11 28L11 26ZM18 26L18 27L19 27L19 26ZM27 26L27 27L28 27L28 26ZM22 28L22 30L23 30L23 28ZM29 29L29 32L32 32L32 29ZM30 30L30 31L31 31L31 30ZM12 31L12 32L13 32L13 31ZM14 31L14 33L15 33L15 31ZM36 31L36 32L37 32L37 31ZM26 32L26 33L27 33L27 32ZM34 35L34 37L37 37L37 36L36 36L36 35ZM0 0L0 7L7 7L7 0ZM1 1L1 6L6 6L6 1ZM2 2L2 5L5 5L5 2ZM30 0L30 7L37 7L37 0ZM31 1L31 6L36 6L36 1ZM32 2L32 5L35 5L35 2ZM0 30L0 37L7 37L7 30ZM1 31L1 36L6 36L6 31ZM2 32L2 35L5 35L5 32Z" fill="#000000"/></g></g></svg>
