<?xml version="1.0" encoding="UTF-8"?>
<svg xmlns="http://www.w3.org/2000/svg" version="1.1" width="200" height="200" viewBox="0 0 200 200"><rect x="0" y="0" width="200" height="200" fill="#ffffff"/><g transform="scale(3.774)"><g transform="translate(0,0)"><path fill-rule="evenodd" d="M10 0L10 1L11 1L11 2L10 2L10 3L8 3L8 4L9 4L9 5L8 5L8 7L9 7L9 8L6 8L6 9L5 9L5 8L0 8L0 9L2 9L2 10L1 10L1 11L0 11L0 13L2 13L2 15L1 15L1 14L0 14L0 15L1 15L1 18L0 18L0 25L1 25L1 26L3 26L3 25L4 25L4 28L0 28L0 30L1 30L1 31L4 31L4 30L2 30L2 29L5 29L5 33L3 33L3 32L2 32L2 33L3 33L3 35L2 35L2 34L0 34L0 38L1 38L1 36L4 36L4 37L2 37L2 40L3 40L3 38L4 38L4 39L5 39L5 40L4 40L4 42L3 42L3 41L1 41L1 39L0 39L0 41L1 41L1 42L0 42L0 43L1 43L1 44L3 44L3 45L4 45L4 44L3 44L3 43L8 43L8 44L6 44L6 45L8 45L8 47L9 47L9 44L11 44L11 42L13 42L13 41L16 41L16 42L14 42L14 43L13 43L13 44L14 44L14 45L12 45L12 46L14 46L14 49L15 49L15 50L13 50L13 48L12 48L12 47L10 47L10 48L8 48L8 53L11 53L11 52L12 52L12 53L14 53L14 52L16 52L16 51L15 51L15 50L16 50L16 49L15 49L15 46L14 46L14 45L15 45L15 43L16 43L16 44L17 44L17 45L18 45L18 46L16 46L16 48L17 48L17 49L18 49L18 50L17 50L17 51L18 51L18 52L17 52L17 53L19 53L19 52L21 52L21 51L23 51L23 50L24 50L24 52L23 52L23 53L26 53L26 52L25 52L25 51L26 51L26 49L27 49L27 53L28 53L28 52L29 52L29 51L28 51L28 49L29 49L29 47L30 47L30 46L31 46L31 49L30 49L30 50L31 50L31 51L32 51L32 50L31 50L31 49L32 49L32 47L34 47L34 49L35 49L35 50L36 50L36 51L35 51L35 52L36 52L36 53L38 53L38 52L36 52L36 51L39 51L39 52L41 52L41 53L48 53L48 51L49 51L49 53L50 53L50 51L51 51L51 52L52 52L52 51L53 51L53 50L52 50L52 48L53 48L53 47L52 47L52 48L50 48L50 46L52 46L52 44L53 44L53 43L52 43L52 44L51 44L51 45L50 45L50 46L49 46L49 44L50 44L50 43L49 43L49 41L48 41L48 42L47 42L47 44L45 44L45 43L43 43L43 44L42 44L42 45L41 45L41 46L40 46L40 45L39 45L39 46L36 46L36 45L37 45L37 44L38 44L38 43L39 43L39 44L41 44L41 43L39 43L39 42L38 42L38 40L35 40L35 42L36 42L36 44L35 44L35 43L34 43L34 45L33 45L33 46L32 46L32 44L33 44L33 43L32 43L32 44L31 44L31 43L30 43L30 42L31 42L31 41L32 41L32 42L33 42L33 41L34 41L34 40L33 40L33 41L32 41L32 40L31 40L31 39L35 39L35 38L34 38L34 37L32 37L32 36L33 36L33 35L34 35L34 36L35 36L35 37L36 37L36 39L39 39L39 41L40 41L40 40L41 40L41 41L42 41L42 42L43 42L43 41L42 41L42 40L43 40L43 39L42 39L42 40L41 40L41 38L43 38L43 36L44 36L44 38L50 38L50 37L48 37L48 34L49 34L49 36L50 36L50 35L51 35L51 34L53 34L53 33L51 33L51 32L50 32L50 30L49 30L49 29L51 29L51 30L52 30L52 29L53 29L53 27L51 27L51 26L53 26L53 24L52 24L52 23L51 23L51 24L50 24L50 22L52 22L52 21L49 21L49 20L50 20L50 19L49 19L49 16L50 16L50 18L53 18L53 17L51 17L51 16L50 16L50 15L51 15L51 14L52 14L52 13L53 13L53 11L52 11L52 13L51 13L51 14L50 14L50 15L49 15L49 13L50 13L50 11L51 11L51 9L52 9L52 10L53 10L53 9L52 9L52 8L51 8L51 9L50 9L50 8L49 8L49 10L48 10L48 8L47 8L47 10L45 10L45 11L44 11L44 9L46 9L46 8L44 8L44 7L45 7L45 6L44 6L44 7L43 7L43 3L44 3L44 4L45 4L45 3L44 3L44 1L43 1L43 0L42 0L42 1L41 1L41 0L39 0L39 1L38 1L38 0L37 0L37 1L38 1L38 2L39 2L39 3L38 3L38 4L37 4L37 3L35 3L35 2L36 2L36 1L34 1L34 0L29 0L29 3L26 3L26 4L25 4L25 0L24 0L24 1L23 1L23 2L22 2L22 1L21 1L21 0L18 0L18 2L17 2L17 3L18 3L18 4L17 4L17 5L18 5L18 7L17 7L17 6L16 6L16 7L17 7L17 8L18 8L18 9L16 9L16 8L15 8L15 4L14 4L14 5L13 5L13 4L12 4L12 5L11 5L11 6L10 6L10 4L11 4L11 2L12 2L12 3L13 3L13 2L12 2L12 1L14 1L14 0L12 0L12 1L11 1L11 0ZM15 0L15 1L16 1L16 0ZM27 0L27 1L28 1L28 0ZM8 1L8 2L9 2L9 1ZM19 1L19 2L20 2L20 1ZM31 1L31 2L33 2L33 3L32 3L32 4L31 4L31 5L30 5L30 3L29 3L29 7L30 7L30 6L31 6L31 8L32 8L32 10L31 10L31 12L32 12L32 14L31 14L31 15L29 15L29 13L30 13L30 10L28 10L28 9L26 9L26 10L25 10L25 11L24 11L24 10L23 10L23 9L22 9L22 8L21 8L21 7L22 7L22 4L24 4L24 2L23 2L23 3L22 3L22 2L21 2L21 3L22 3L22 4L18 4L18 5L19 5L19 8L20 8L20 9L19 9L19 10L20 10L20 11L19 11L19 12L21 12L21 11L22 11L22 13L18 13L18 12L16 12L16 11L15 11L15 10L16 10L16 9L13 9L13 8L14 8L14 6L13 6L13 8L11 8L11 7L12 7L12 6L11 6L11 7L10 7L10 6L9 6L9 7L10 7L10 8L9 8L9 9L6 9L6 10L4 10L4 11L6 11L6 12L7 12L7 13L6 13L6 14L7 14L7 15L5 15L5 18L3 18L3 16L4 16L4 14L3 14L3 15L2 15L2 18L1 18L1 20L2 20L2 18L3 18L3 19L6 19L6 20L5 20L5 21L6 21L6 22L5 22L5 24L9 24L9 26L11 26L11 29L10 29L10 28L9 28L9 31L6 31L6 32L8 32L8 33L5 33L5 36L7 36L7 35L6 35L6 34L8 34L8 40L7 40L7 39L6 39L6 38L7 38L7 37L5 37L5 39L6 39L6 40L7 40L7 41L5 41L5 42L7 42L7 41L8 41L8 40L9 40L9 39L10 39L10 42L8 42L8 43L10 43L10 42L11 42L11 41L13 41L13 40L14 40L14 39L13 39L13 38L12 38L12 36L10 36L10 35L9 35L9 34L10 34L10 33L11 33L11 32L9 32L9 31L10 31L10 30L11 30L11 31L12 31L12 32L13 32L13 33L14 33L14 34L13 34L13 37L15 37L15 38L16 38L16 41L18 41L18 40L17 40L17 39L18 39L18 37L17 37L17 36L18 36L18 33L21 33L21 34L22 34L22 35L21 35L21 36L22 36L22 37L19 37L19 40L20 40L20 41L19 41L19 42L17 42L17 43L19 43L19 45L20 45L20 46L18 46L18 47L17 47L17 48L18 48L18 49L21 49L21 50L23 50L23 49L24 49L24 50L25 50L25 49L24 49L24 48L23 48L23 47L24 47L24 45L23 45L23 44L25 44L25 43L24 43L24 42L25 42L25 39L26 39L26 38L27 38L27 39L28 39L28 42L27 42L27 40L26 40L26 44L29 44L29 46L30 46L30 43L29 43L29 42L30 42L30 39L31 39L31 38L30 38L30 37L31 37L31 36L32 36L32 35L33 35L33 34L34 34L34 35L35 35L35 36L38 36L38 37L37 37L37 38L41 38L41 37L42 37L42 35L46 35L46 36L45 36L45 37L47 37L47 34L48 34L48 33L49 33L49 32L48 32L48 31L49 31L49 30L48 30L48 29L47 29L47 30L45 30L45 31L47 31L47 33L44 33L44 31L43 31L43 30L42 30L42 31L43 31L43 34L42 34L42 35L41 35L41 32L40 32L40 31L41 31L41 29L44 29L44 27L43 27L43 26L39 26L39 25L42 25L42 24L44 24L44 23L45 23L45 24L46 24L46 23L47 23L47 24L49 24L49 28L51 28L51 29L52 29L52 28L51 28L51 27L50 27L50 26L51 26L51 25L52 25L52 24L51 24L51 25L50 25L50 24L49 24L49 23L48 23L48 21L47 21L47 20L48 20L48 17L46 17L46 15L47 15L47 16L49 16L49 15L47 15L47 12L48 12L48 10L47 10L47 12L46 12L46 11L45 11L45 12L44 12L44 11L43 11L43 10L41 10L41 8L40 8L40 5L42 5L42 4L41 4L41 3L43 3L43 2L41 2L41 1L40 1L40 2L41 2L41 3L39 3L39 4L38 4L38 5L35 5L35 3L34 3L34 2L33 2L33 1ZM14 2L14 3L16 3L16 2ZM33 3L33 4L32 4L32 5L31 5L31 6L32 6L32 7L33 7L33 10L34 10L34 12L33 12L33 11L32 11L32 12L33 12L33 13L35 13L35 14L33 14L33 17L32 17L32 16L25 16L25 15L24 15L24 13L22 13L22 14L21 14L21 15L22 15L22 14L23 14L23 15L24 15L24 16L23 16L23 17L25 17L25 18L23 18L23 19L24 19L24 20L23 20L23 21L22 21L22 19L21 19L21 17L22 17L22 16L21 16L21 17L18 17L18 16L17 16L17 17L18 17L18 19L17 19L17 20L18 20L18 21L22 21L22 23L21 23L21 24L22 24L22 25L21 25L21 27L22 27L22 28L18 28L18 26L19 26L19 27L20 27L20 26L19 26L19 25L20 25L20 24L19 24L19 23L20 23L20 22L18 22L18 23L15 23L15 21L16 21L16 19L15 19L15 18L16 18L16 17L15 17L15 18L14 18L14 17L12 17L12 16L14 16L14 15L13 15L13 14L15 14L15 13L13 13L13 12L10 12L10 11L11 11L11 10L12 10L12 11L13 11L13 10L12 10L12 9L11 9L11 10L10 10L10 9L9 9L9 10L10 10L10 11L8 11L8 10L6 10L6 11L8 11L8 12L9 12L9 13L8 13L8 14L10 14L10 13L13 13L13 14L12 14L12 15L11 15L11 19L9 19L9 18L10 18L10 16L8 16L8 15L7 15L7 16L6 16L6 17L7 17L7 18L6 18L6 19L7 19L7 20L6 20L6 21L8 21L8 19L9 19L9 20L10 20L10 21L9 21L9 24L10 24L10 21L11 21L11 22L13 22L13 23L12 23L12 24L13 24L13 25L12 25L12 29L11 29L11 30L12 30L12 29L13 29L13 30L14 30L14 28L13 28L13 25L16 25L16 26L15 26L15 27L16 27L16 28L18 28L18 29L22 29L22 30L21 30L21 31L20 31L20 32L21 32L21 33L22 33L22 32L21 32L21 31L22 31L22 30L23 30L23 33L26 33L26 31L27 31L27 32L28 32L28 31L29 31L29 32L30 32L30 31L33 31L33 32L35 32L35 34L36 34L36 35L37 35L37 34L38 34L38 36L39 36L39 35L40 35L40 36L41 36L41 35L40 35L40 33L39 33L39 32L38 32L38 33L37 33L37 32L36 32L36 31L37 31L37 30L38 30L38 31L40 31L40 29L39 29L39 28L38 28L38 29L37 29L37 28L35 28L35 27L39 27L39 26L38 26L38 25L37 25L37 24L38 24L38 23L39 23L39 24L42 24L42 22L43 22L43 23L44 23L44 21L43 21L43 20L44 20L44 19L42 19L42 22L41 22L41 23L40 23L40 21L39 21L39 22L38 22L38 20L41 20L41 18L44 18L44 17L45 17L45 16L44 16L44 12L43 12L43 11L42 11L42 12L43 12L43 13L42 13L42 14L43 14L43 16L42 16L42 15L40 15L40 16L42 16L42 17L40 17L40 19L39 19L39 18L38 18L38 17L37 17L37 16L35 16L35 14L36 14L36 15L37 15L37 14L38 14L38 15L39 15L39 14L38 14L38 12L35 12L35 11L36 11L36 9L38 9L38 7L39 7L39 5L38 5L38 7L37 7L37 6L36 6L36 7L37 7L37 8L35 8L35 10L34 10L34 7L35 7L35 5L34 5L34 3ZM20 5L20 7L21 7L21 5ZM23 5L23 8L24 8L24 5ZM25 5L25 8L28 8L28 5ZM26 6L26 7L27 7L27 6ZM33 6L33 7L34 7L34 6ZM41 6L41 7L42 7L42 6ZM29 8L29 9L30 9L30 8ZM43 8L43 9L44 9L44 8ZM21 9L21 10L22 10L22 9ZM39 9L39 10L38 10L38 11L39 11L39 12L41 12L41 11L39 11L39 10L40 10L40 9ZM2 10L2 11L3 11L3 10ZM27 10L27 12L26 12L26 13L25 13L25 14L26 14L26 15L27 15L27 14L28 14L28 10ZM49 10L49 11L50 11L50 10ZM23 11L23 12L24 12L24 11ZM2 12L2 13L3 13L3 12ZM17 13L17 15L18 15L18 13ZM45 14L45 15L46 15L46 14ZM52 15L52 16L53 16L53 15ZM7 16L7 17L8 17L8 16ZM43 16L43 17L44 17L44 16ZM27 17L27 18L26 18L26 20L25 20L25 24L29 24L29 21L30 21L30 20L29 20L29 19L30 19L30 18L28 18L28 17ZM34 17L34 18L35 18L35 19L34 19L34 20L32 20L32 19L33 19L33 18L31 18L31 20L32 20L32 21L31 21L31 22L32 22L32 25L31 25L31 23L30 23L30 25L31 25L31 26L32 26L32 25L33 25L33 26L34 26L34 27L33 27L33 28L32 28L32 29L31 29L31 30L32 30L32 29L33 29L33 30L35 30L35 29L34 29L34 27L35 27L35 26L36 26L36 25L35 25L35 24L37 24L37 23L38 23L38 22L36 22L36 23L34 23L34 25L33 25L33 22L35 22L35 21L34 21L34 20L37 20L37 18L35 18L35 17ZM7 18L7 19L8 19L8 18ZM13 18L13 19L12 19L12 20L11 20L11 21L12 21L12 20L13 20L13 22L14 22L14 21L15 21L15 20L14 20L14 18ZM19 18L19 19L18 19L18 20L19 20L19 19L20 19L20 18ZM27 18L27 19L28 19L28 18ZM45 18L45 20L46 20L46 19L47 19L47 18ZM51 19L51 20L53 20L53 19ZM3 20L3 21L2 21L2 22L4 22L4 20ZM23 21L23 23L24 23L24 21ZM6 22L6 23L8 23L8 22ZM45 22L45 23L46 23L46 22ZM1 23L1 25L3 25L3 23ZM13 23L13 24L14 24L14 23ZM16 24L16 25L18 25L18 24ZM23 24L23 25L22 25L22 27L23 27L23 28L22 28L22 29L23 29L23 30L25 30L25 29L24 29L24 26L23 26L23 25L24 25L24 24ZM5 25L5 28L8 28L8 25ZM25 25L25 28L28 28L28 25ZM45 25L45 28L48 28L48 25ZM6 26L6 27L7 27L7 26ZM26 26L26 27L27 27L27 26ZM29 26L29 27L30 27L30 26ZM46 26L46 27L47 27L47 26ZM40 27L40 28L41 28L41 27ZM29 28L29 29L28 29L28 30L27 30L27 31L28 31L28 30L29 30L29 31L30 31L30 30L29 30L29 29L30 29L30 28ZM6 29L6 30L8 30L8 29ZM36 29L36 30L37 30L37 29ZM38 29L38 30L39 30L39 29ZM17 30L17 31L18 31L18 30ZM47 30L47 31L48 31L48 30ZM13 31L13 32L14 32L14 31ZM15 31L15 32L16 32L16 31ZM24 31L24 32L25 32L25 31ZM17 32L17 33L18 33L18 32ZM31 32L31 33L30 33L30 34L32 34L32 32ZM8 33L8 34L9 34L9 33ZM15 33L15 34L14 34L14 35L15 35L15 37L16 37L16 35L15 35L15 34L16 34L16 33ZM27 33L27 35L28 35L28 33ZM36 33L36 34L37 34L37 33ZM38 33L38 34L39 34L39 33ZM50 33L50 34L51 34L51 33ZM11 34L11 35L12 35L12 34ZM19 34L19 35L20 35L20 34ZM24 34L24 36L23 36L23 37L22 37L22 39L20 39L20 40L22 40L22 41L21 41L21 42L22 42L22 41L23 41L23 37L24 37L24 39L25 39L25 38L26 38L26 36L25 36L25 34ZM30 35L30 36L29 36L29 37L30 37L30 36L31 36L31 35ZM27 36L27 38L28 38L28 39L29 39L29 38L28 38L28 36ZM51 36L51 37L53 37L53 36ZM10 37L10 39L11 39L11 40L12 40L12 39L11 39L11 37ZM44 39L44 40L46 40L46 41L45 41L45 42L46 42L46 41L47 41L47 40L48 40L48 39ZM49 39L49 40L50 40L50 42L52 42L52 40L53 40L53 39L52 39L52 40L50 40L50 39ZM2 42L2 43L3 43L3 42ZM19 42L19 43L20 43L20 42ZM37 42L37 43L38 43L38 42ZM21 43L21 45L22 45L22 46L21 46L21 47L20 47L20 48L21 48L21 49L22 49L22 48L21 48L21 47L22 47L22 46L23 46L23 45L22 45L22 43ZM43 44L43 46L41 46L41 48L39 48L39 49L38 49L38 48L37 48L37 47L36 47L36 46L35 46L35 45L34 45L34 46L35 46L35 48L37 48L37 49L36 49L36 50L37 50L37 49L38 49L38 50L39 50L39 51L41 51L41 52L43 52L43 50L41 50L41 49L42 49L42 47L44 47L44 44ZM10 45L10 46L11 46L11 45ZM25 45L25 48L28 48L28 45ZM45 45L45 48L48 48L48 45ZM26 46L26 47L27 47L27 46ZM39 46L39 47L40 47L40 46ZM46 46L46 47L47 47L47 46ZM11 48L11 49L10 49L10 50L9 50L9 52L10 52L10 50L11 50L11 51L12 51L12 52L13 52L13 51L12 51L12 50L11 50L11 49L12 49L12 48ZM43 48L43 49L44 49L44 51L45 51L45 52L47 52L47 50L51 50L51 51L52 51L52 50L51 50L51 49L50 49L50 48L49 48L49 49L47 49L47 50L45 50L45 49L44 49L44 48ZM39 49L39 50L40 50L40 49ZM19 50L19 51L20 51L20 50ZM33 51L33 53L34 53L34 51ZM31 52L31 53L32 53L32 52ZM0 0L0 7L7 7L7 0ZM1 1L1 6L6 6L6 1ZM2 2L2 5L5 5L5 2ZM46 0L46 7L53 7L53 0ZM47 1L47 6L52 6L52 1ZM48 2L48 5L51 5L51 2ZM0 46L0 53L7 53L7 46ZM1 47L1 52L6 52L6 47ZM2 48L2 51L5 51L5 48Z" fill="#000000"/></g></g></svg>
