<?xml version="1.0" encoding="UTF-8"?>
<svg xmlns="http://www.w3.org/2000/svg" version="1.1" width="200" height="200" viewBox="0 0 200 200"><rect x="0" y="0" width="200" height="200" fill="#ffffff"/><g transform="scale(3.774)"><g transform="translate(0,0)"><path fill-rule="evenodd" d="M12 0L12 1L11 1L11 2L10 2L10 1L8 1L8 2L10 2L10 3L11 3L11 4L9 4L9 3L8 3L8 4L9 4L9 5L8 5L8 7L9 7L9 8L6 8L6 9L12 9L12 10L11 10L11 11L10 11L10 10L9 10L9 11L8 11L8 12L6 12L6 11L7 11L7 10L6 10L6 11L5 11L5 10L3 10L3 11L2 11L2 10L0 10L0 11L2 11L2 12L3 12L3 13L2 13L2 14L5 14L5 15L4 15L4 16L0 16L0 18L2 18L2 17L3 17L3 20L4 20L4 22L3 22L3 21L2 21L2 20L0 20L0 22L2 22L2 23L1 23L1 24L0 24L0 25L1 25L1 26L0 26L0 28L1 28L1 29L0 29L0 31L1 31L1 30L3 30L3 31L2 31L2 32L0 32L0 33L1 33L1 34L0 34L0 35L1 35L1 36L0 36L0 37L3 37L3 36L4 36L4 35L3 35L3 36L2 36L2 35L1 35L1 34L3 34L3 33L2 33L2 32L3 32L3 31L4 31L4 32L5 32L5 33L16 33L16 34L14 34L14 35L16 35L16 36L15 36L15 37L13 37L13 36L12 36L12 35L9 35L9 36L6 36L6 37L4 37L4 38L3 38L3 39L1 39L1 38L0 38L0 39L1 39L1 40L0 40L0 43L1 43L1 44L3 44L3 45L4 45L4 44L3 44L3 43L7 43L7 42L3 42L3 43L2 43L2 42L1 42L1 40L3 40L3 39L4 39L4 41L5 41L5 40L6 40L6 41L7 41L7 40L6 40L6 39L9 39L9 41L10 41L10 40L11 40L11 42L10 42L10 44L9 44L9 43L8 43L8 44L6 44L6 45L8 45L8 47L12 47L12 48L8 48L8 53L11 53L11 52L10 52L10 51L9 51L9 50L10 50L10 49L11 49L11 51L13 51L13 52L14 52L14 53L15 53L15 51L16 51L16 52L17 52L17 53L20 53L20 52L19 52L19 51L20 51L20 50L19 50L19 49L20 49L20 45L19 45L19 44L21 44L21 45L22 45L22 47L21 47L21 48L22 48L22 49L21 49L21 50L22 50L22 49L23 49L23 45L24 45L24 50L23 50L23 51L24 51L24 52L23 52L23 53L26 53L26 52L25 52L25 50L26 50L26 49L27 49L27 53L28 53L28 52L29 52L29 51L28 51L28 49L29 49L29 47L30 47L30 46L31 46L31 49L30 49L30 50L31 50L31 51L32 51L32 50L31 50L31 49L32 49L32 47L34 47L34 49L35 49L35 50L36 50L36 51L35 51L35 52L36 52L36 53L38 53L38 52L36 52L36 51L39 51L39 52L41 52L41 53L48 53L48 51L49 51L49 53L50 53L50 51L51 51L51 52L52 52L52 51L53 51L53 50L52 50L52 48L53 48L53 47L52 47L52 48L50 48L50 46L52 46L52 44L53 44L53 43L51 43L51 45L50 45L50 46L49 46L49 44L50 44L50 43L49 43L49 41L48 41L48 42L47 42L47 44L45 44L45 43L43 43L43 44L42 44L42 45L41 45L41 46L40 46L40 45L39 45L39 46L36 46L36 45L37 45L37 44L38 44L38 43L39 43L39 44L41 44L41 43L39 43L39 42L38 42L38 40L35 40L35 42L36 42L36 44L35 44L35 43L34 43L34 45L33 45L33 46L32 46L32 44L33 44L33 43L32 43L32 44L31 44L31 43L30 43L30 42L31 42L31 41L32 41L32 42L33 42L33 41L34 41L34 40L33 40L33 41L32 41L32 40L31 40L31 39L35 39L35 38L34 38L34 37L32 37L32 36L33 36L33 35L34 35L34 36L35 36L35 37L36 37L36 39L39 39L39 41L40 41L40 40L41 40L41 41L42 41L42 42L43 42L43 41L42 41L42 40L43 40L43 39L42 39L42 40L41 40L41 38L43 38L43 36L44 36L44 38L50 38L50 37L48 37L48 34L49 34L49 36L50 36L50 35L51 35L51 34L53 34L53 33L51 33L51 32L50 32L50 30L49 30L49 29L51 29L51 30L52 30L52 29L53 29L53 27L51 27L51 26L53 26L53 24L52 24L52 23L51 23L51 24L50 24L50 22L52 22L52 21L49 21L49 20L50 20L50 19L49 19L49 16L50 16L50 18L53 18L53 17L51 17L51 16L50 16L50 15L51 15L51 14L52 14L52 13L53 13L53 11L52 11L52 13L51 13L51 14L50 14L50 15L49 15L49 13L50 13L50 11L51 11L51 9L52 9L52 10L53 10L53 9L52 9L52 8L51 8L51 9L50 9L50 8L49 8L49 10L48 10L48 8L47 8L47 10L45 10L45 11L44 11L44 9L46 9L46 8L44 8L44 7L45 7L45 6L44 6L44 7L43 7L43 3L44 3L44 4L45 4L45 3L44 3L44 1L43 1L43 0L42 0L42 1L41 1L41 0L39 0L39 1L38 1L38 0L37 0L37 1L38 1L38 2L39 2L39 3L38 3L38 4L37 4L37 3L35 3L35 2L36 2L36 1L34 1L34 0L29 0L29 3L24 3L24 2L23 2L23 1L24 1L24 0L23 0L23 1L22 1L22 0L21 0L21 3L19 3L19 2L20 2L20 1L19 1L19 0L16 0L16 1L15 1L15 2L14 2L14 3L15 3L15 2L16 2L16 3L17 3L17 2L18 2L18 4L17 4L17 6L16 6L16 7L17 7L17 6L18 6L18 7L19 7L19 6L20 6L20 8L21 8L21 9L18 9L18 8L17 8L17 9L18 9L18 12L17 12L17 13L18 13L18 15L17 15L17 16L18 16L18 17L16 17L16 16L15 16L15 13L13 13L13 14L12 14L12 15L11 15L11 13L12 13L12 11L13 11L13 10L14 10L14 9L12 9L12 8L14 8L14 7L15 7L15 6L14 6L14 7L13 7L13 6L12 6L12 5L13 5L13 4L12 4L12 3L11 3L11 2L12 2L12 1L13 1L13 0ZM25 0L25 1L26 1L26 2L27 2L27 1L28 1L28 0ZM31 1L31 2L33 2L33 3L32 3L32 4L31 4L31 5L30 5L30 3L29 3L29 7L30 7L30 6L31 6L31 8L32 8L32 10L31 10L31 12L32 12L32 14L31 14L31 15L29 15L29 13L30 13L30 10L28 10L28 14L27 14L27 13L26 13L26 12L27 12L27 9L26 9L26 10L25 10L25 14L24 14L24 13L23 13L23 12L24 12L24 11L23 11L23 10L24 10L24 9L23 9L23 7L24 7L24 5L23 5L23 4L24 4L24 3L21 3L21 4L18 4L18 6L19 6L19 5L20 5L20 6L21 6L21 8L22 8L22 9L21 9L21 10L22 10L22 11L23 11L23 12L22 12L22 13L19 13L19 15L20 15L20 17L19 17L19 18L20 18L20 19L17 19L17 20L16 20L16 19L15 19L15 20L14 20L14 18L16 18L16 17L13 17L13 20L11 20L11 19L10 19L10 18L11 18L11 15L10 15L10 17L9 17L9 18L8 18L8 19L5 19L5 18L7 18L7 17L6 17L6 16L7 16L7 15L8 15L8 16L9 16L9 14L10 14L10 13L11 13L11 12L10 12L10 11L9 11L9 12L8 12L8 14L7 14L7 13L6 13L6 14L7 14L7 15L6 15L6 16L5 16L5 17L4 17L4 19L5 19L5 20L7 20L7 21L6 21L6 22L4 22L4 23L3 23L3 25L4 25L4 23L5 23L5 24L9 24L9 25L11 25L11 26L10 26L10 27L9 27L9 29L8 29L8 31L9 31L9 32L10 32L10 31L11 31L11 32L14 32L14 31L12 31L12 30L13 30L13 28L14 28L14 30L15 30L15 31L16 31L16 33L18 33L18 32L17 32L17 31L18 31L18 30L20 30L20 31L19 31L19 32L20 32L20 33L19 33L19 34L20 34L20 35L19 35L19 36L21 36L21 35L22 35L22 37L19 37L19 38L18 38L18 37L17 37L17 36L18 36L18 34L17 34L17 36L16 36L16 37L15 37L15 38L13 38L13 37L12 37L12 36L11 36L11 37L10 37L10 36L9 36L9 37L8 37L8 38L10 38L10 39L11 39L11 40L12 40L12 42L11 42L11 44L10 44L10 45L9 45L9 44L8 44L8 45L9 45L9 46L10 46L10 45L11 45L11 46L12 46L12 45L14 45L14 46L13 46L13 48L12 48L12 49L13 49L13 51L15 51L15 50L16 50L16 49L18 49L18 48L16 48L16 46L17 46L17 47L18 47L18 45L17 45L17 43L20 43L20 42L18 42L18 41L21 41L21 43L23 43L23 44L22 44L22 45L23 45L23 44L25 44L25 43L27 43L27 44L29 44L29 46L30 46L30 43L29 43L29 42L30 42L30 39L31 39L31 38L30 38L30 37L31 37L31 36L32 36L32 35L33 35L33 34L34 34L34 35L35 35L35 36L38 36L38 37L37 37L37 38L41 38L41 37L42 37L42 35L46 35L46 36L45 36L45 37L47 37L47 34L48 34L48 33L49 33L49 32L48 32L48 31L49 31L49 30L48 30L48 29L47 29L47 30L45 30L45 31L47 31L47 33L44 33L44 31L43 31L43 30L42 30L42 31L43 31L43 34L42 34L42 35L41 35L41 32L40 32L40 31L41 31L41 29L44 29L44 27L43 27L43 26L39 26L39 25L42 25L42 24L44 24L44 23L45 23L45 24L46 24L46 23L47 23L47 24L49 24L49 28L51 28L51 29L52 29L52 28L51 28L51 27L50 27L50 26L51 26L51 25L52 25L52 24L51 24L51 25L50 25L50 24L49 24L49 23L48 23L48 21L47 21L47 20L48 20L48 17L46 17L46 15L47 15L47 16L49 16L49 15L47 15L47 12L48 12L48 10L47 10L47 12L46 12L46 11L45 11L45 12L44 12L44 11L43 11L43 10L41 10L41 8L40 8L40 5L42 5L42 4L41 4L41 3L43 3L43 2L41 2L41 1L40 1L40 2L41 2L41 3L39 3L39 4L38 4L38 5L35 5L35 3L34 3L34 2L33 2L33 1ZM33 3L33 4L32 4L32 5L31 5L31 6L32 6L32 7L33 7L33 10L34 10L34 12L33 12L33 11L32 11L32 12L33 12L33 13L35 13L35 14L33 14L33 17L32 17L32 16L25 16L25 15L24 15L24 14L23 14L23 13L22 13L22 15L21 15L21 16L22 16L22 17L21 17L21 18L22 18L22 17L25 17L25 18L24 18L24 19L22 19L22 20L18 20L18 21L22 21L22 22L21 22L21 23L20 23L20 24L21 24L21 25L18 25L18 24L17 24L17 23L18 23L18 22L17 22L17 23L15 23L15 24L17 24L17 25L18 25L18 26L17 26L17 28L18 28L18 29L22 29L22 31L21 31L21 32L22 32L22 33L21 33L21 34L22 34L22 33L23 33L23 29L24 29L24 30L25 30L25 31L24 31L24 33L26 33L26 31L27 31L27 33L28 33L28 31L29 31L29 32L30 32L30 31L33 31L33 32L35 32L35 34L36 34L36 35L37 35L37 34L38 34L38 36L39 36L39 35L40 35L40 36L41 36L41 35L40 35L40 33L39 33L39 32L38 32L38 33L37 33L37 32L36 32L36 31L37 31L37 30L38 30L38 31L40 31L40 29L39 29L39 28L38 28L38 29L37 29L37 28L35 28L35 27L39 27L39 26L38 26L38 25L37 25L37 24L38 24L38 23L39 23L39 24L42 24L42 22L43 22L43 23L44 23L44 21L43 21L43 20L44 20L44 19L42 19L42 22L41 22L41 23L40 23L40 21L39 21L39 22L38 22L38 20L41 20L41 18L44 18L44 17L45 17L45 16L44 16L44 12L43 12L43 11L42 11L42 12L43 12L43 13L42 13L42 14L43 14L43 16L42 16L42 15L40 15L40 16L42 16L42 17L40 17L40 19L39 19L39 18L38 18L38 17L37 17L37 16L35 16L35 14L36 14L36 15L37 15L37 14L38 14L38 15L39 15L39 14L38 14L38 12L35 12L35 11L36 11L36 9L38 9L38 7L39 7L39 5L38 5L38 7L37 7L37 6L36 6L36 7L37 7L37 8L35 8L35 10L34 10L34 7L35 7L35 5L34 5L34 3ZM11 4L11 5L9 5L9 7L10 7L10 8L12 8L12 6L11 6L11 5L12 5L12 4ZM14 4L14 5L15 5L15 4ZM21 4L21 6L22 6L22 7L23 7L23 6L22 6L22 4ZM25 5L25 8L28 8L28 5ZM10 6L10 7L11 7L11 6ZM26 6L26 7L27 7L27 6ZM33 6L33 7L34 7L34 6ZM41 6L41 7L42 7L42 6ZM0 8L0 9L5 9L5 8ZM29 8L29 9L30 9L30 8ZM43 8L43 9L44 9L44 8ZM15 9L15 10L16 10L16 9ZM39 9L39 10L38 10L38 11L39 11L39 12L41 12L41 11L39 11L39 10L40 10L40 9ZM19 10L19 11L20 11L20 10ZM49 10L49 11L50 11L50 10ZM4 11L4 13L5 13L5 11ZM15 11L15 12L16 12L16 11ZM0 12L0 14L1 14L1 12ZM9 12L9 13L10 13L10 12ZM45 14L45 15L46 15L46 14ZM12 15L12 16L14 16L14 15ZM23 15L23 16L24 16L24 15ZM52 15L52 16L53 16L53 15ZM43 16L43 17L44 17L44 16ZM27 17L27 18L26 18L26 20L25 20L25 19L24 19L24 20L22 20L22 21L24 21L24 22L25 22L25 23L26 23L26 24L29 24L29 21L30 21L30 20L28 20L28 19L30 19L30 18L28 18L28 17ZM34 17L34 18L35 18L35 19L34 19L34 20L32 20L32 19L33 19L33 18L31 18L31 20L32 20L32 21L31 21L31 22L32 22L32 25L31 25L31 23L30 23L30 25L31 25L31 26L32 26L32 25L33 25L33 26L34 26L34 27L33 27L33 28L32 28L32 29L31 29L31 30L32 30L32 29L33 29L33 30L35 30L35 29L34 29L34 27L35 27L35 26L36 26L36 25L35 25L35 24L37 24L37 23L38 23L38 22L36 22L36 23L34 23L34 25L33 25L33 22L35 22L35 21L34 21L34 20L37 20L37 18L35 18L35 17ZM27 18L27 19L28 19L28 18ZM45 18L45 20L46 20L46 19L47 19L47 18ZM8 19L8 20L9 20L9 21L11 21L11 20L10 20L10 19ZM51 19L51 20L53 20L53 19ZM15 20L15 21L14 21L14 22L15 22L15 21L16 21L16 20ZM6 22L6 23L9 23L9 22ZM22 22L22 23L21 23L21 24L22 24L22 25L21 25L21 28L22 28L22 29L23 29L23 28L24 28L24 26L23 26L23 22ZM45 22L45 23L46 23L46 22ZM10 23L10 24L11 24L11 23ZM13 23L13 24L14 24L14 23ZM1 24L1 25L2 25L2 24ZM5 25L5 28L8 28L8 25ZM13 25L13 26L14 26L14 25ZM15 25L15 26L16 26L16 25ZM25 25L25 28L28 28L28 25ZM45 25L45 28L48 28L48 25ZM1 26L1 28L3 28L3 27L4 27L4 26L3 26L3 27L2 27L2 26ZM6 26L6 27L7 27L7 26ZM18 26L18 28L19 28L19 27L20 27L20 26ZM26 26L26 27L27 27L27 26ZM29 26L29 27L30 27L30 26ZM46 26L46 27L47 27L47 26ZM10 27L10 28L11 28L11 29L9 29L9 30L12 30L12 28L13 28L13 27L12 27L12 28L11 28L11 27ZM15 27L15 28L16 28L16 27ZM40 27L40 28L41 28L41 27ZM29 28L29 29L28 29L28 30L27 30L27 29L26 29L26 30L27 30L27 31L28 31L28 30L29 30L29 31L30 31L30 30L29 30L29 29L30 29L30 28ZM4 29L4 30L7 30L7 29ZM36 29L36 30L37 30L37 29ZM38 29L38 30L39 30L39 29ZM47 30L47 31L48 31L48 30ZM5 31L5 32L7 32L7 31ZM31 32L31 33L30 33L30 34L32 34L32 32ZM36 33L36 34L37 34L37 33ZM38 33L38 34L39 34L39 33ZM50 33L50 34L51 34L51 33ZM6 34L6 35L8 35L8 34ZM25 34L25 35L23 35L23 36L24 36L24 37L25 37L25 38L23 38L23 37L22 37L22 38L20 38L20 39L19 39L19 40L20 40L20 39L22 39L22 38L23 38L23 41L24 41L24 39L25 39L25 42L24 42L24 43L25 43L25 42L26 42L26 40L27 40L27 42L28 42L28 39L29 39L29 38L28 38L28 36L27 36L27 38L26 38L26 34ZM27 34L27 35L28 35L28 34ZM30 35L30 36L29 36L29 37L30 37L30 36L31 36L31 35ZM51 36L51 37L53 37L53 36ZM6 37L6 38L7 38L7 37ZM11 38L11 39L12 39L12 40L14 40L14 39L12 39L12 38ZM15 38L15 40L16 40L16 38ZM17 38L17 39L18 39L18 38ZM25 38L25 39L26 39L26 38ZM27 38L27 39L28 39L28 38ZM44 39L44 40L46 40L46 41L45 41L45 42L46 42L46 41L47 41L47 40L48 40L48 39ZM49 39L49 40L50 40L50 42L52 42L52 40L53 40L53 39L52 39L52 40L50 40L50 39ZM17 40L17 41L18 41L18 40ZM21 40L21 41L22 41L22 40ZM13 41L13 42L12 42L12 44L14 44L14 45L15 45L15 44L16 44L16 43L15 43L15 42L16 42L16 41L15 41L15 42L14 42L14 41ZM37 42L37 43L38 43L38 42ZM14 43L14 44L15 44L15 43ZM43 44L43 46L41 46L41 48L39 48L39 49L38 49L38 48L37 48L37 47L36 47L36 46L35 46L35 45L34 45L34 46L35 46L35 48L37 48L37 49L36 49L36 50L37 50L37 49L38 49L38 50L39 50L39 51L41 51L41 52L43 52L43 50L41 50L41 49L42 49L42 47L44 47L44 44ZM25 45L25 48L28 48L28 45ZM45 45L45 48L48 48L48 45ZM14 46L14 48L13 48L13 49L16 49L16 48L15 48L15 46ZM26 46L26 47L27 47L27 46ZM39 46L39 47L40 47L40 46ZM46 46L46 47L47 47L47 46ZM43 48L43 49L44 49L44 51L45 51L45 52L47 52L47 50L51 50L51 51L52 51L52 50L51 50L51 49L50 49L50 48L49 48L49 49L47 49L47 50L45 50L45 49L44 49L44 48ZM39 49L39 50L40 50L40 49ZM17 51L17 52L18 52L18 51ZM33 51L33 53L34 53L34 51ZM31 52L31 53L32 53L32 52ZM0 0L0 7L7 7L7 0ZM1 1L1 6L6 6L6 1ZM2 2L2 5L5 5L5 2ZM46 0L46 7L53 7L53 0ZM47 1L47 6L52 6L52 1ZM48 2L48 5L51 5L51 2ZM0 46L0 53L7 53L7 46ZM1 47L1 52L6 52L6 47ZM2 48L2 51L5 51L5 48Z" fill="#000000"/></g></g></svg>
