<?xml version="1.0" encoding="UTF-8"?>
<svg xmlns="http://www.w3.org/2000/svg" version="1.1" width="200" height="200" viewBox="0 0 200 200"><rect x="0" y="0" width="200" height="200" fill="#ffffff"/><g transform="scale(3.774)"><g transform="translate(0,0)"><path fill-rule="evenodd" d="M8 0L8 4L10 4L10 5L8 5L8 7L9 7L9 6L10 6L10 7L11 7L11 8L9 8L9 10L10 10L10 11L11 11L11 8L13 8L13 9L12 9L12 12L10 12L10 14L9 14L9 12L8 12L8 11L7 11L7 10L6 10L6 11L4 11L4 12L3 12L3 13L4 13L4 14L5 14L5 16L4 16L4 15L3 15L3 16L2 16L2 15L1 15L1 14L0 14L0 15L1 15L1 16L2 16L2 17L4 17L4 18L3 18L3 20L4 20L4 21L2 21L2 19L0 19L0 23L2 23L2 22L4 22L4 25L3 25L3 24L2 24L2 25L1 25L1 24L0 24L0 26L1 26L1 27L0 27L0 28L2 28L2 29L0 29L0 31L2 31L2 32L1 32L1 33L0 33L0 36L4 36L4 35L5 35L5 32L6 32L6 33L8 33L8 32L6 32L6 31L8 31L8 29L9 29L9 27L10 27L10 26L11 26L11 29L10 29L10 30L9 30L9 32L10 32L10 33L9 33L9 34L6 34L6 35L8 35L8 36L5 36L5 38L4 38L4 37L2 37L2 40L1 40L1 39L0 39L0 41L2 41L2 42L0 42L0 43L1 43L1 44L3 44L3 45L4 45L4 44L3 44L3 43L8 43L8 44L9 44L9 45L8 45L8 46L9 46L9 47L8 47L8 49L9 49L9 48L11 48L11 50L12 50L12 52L13 52L13 53L16 53L16 52L15 52L15 51L16 51L16 50L19 50L19 51L20 51L20 50L21 50L21 49L23 49L23 48L24 48L24 50L25 50L25 49L26 49L26 50L27 50L27 52L28 52L28 51L29 51L29 52L31 52L31 51L32 51L32 50L34 50L34 51L33 51L33 52L32 52L32 53L33 53L33 52L35 52L35 51L36 51L36 53L37 53L37 51L39 51L39 52L38 52L38 53L40 53L40 51L41 51L41 53L43 53L43 52L45 52L45 51L44 51L44 50L45 50L45 49L46 49L46 53L48 53L48 52L50 52L50 53L52 53L52 52L53 52L53 51L51 51L51 49L50 49L50 45L51 45L51 44L52 44L52 43L53 43L53 42L52 42L52 43L51 43L51 44L50 44L50 43L49 43L49 44L47 44L47 42L46 42L46 44L45 44L45 43L43 43L43 42L45 42L45 41L47 41L47 40L46 40L46 39L48 39L48 40L49 40L49 41L48 41L48 42L50 42L50 39L49 39L49 37L50 37L50 38L52 38L52 39L53 39L53 38L52 38L52 37L53 37L53 33L52 33L52 32L53 32L53 30L52 30L52 32L51 32L51 33L50 33L50 34L49 34L49 33L48 33L48 36L47 36L47 34L46 34L46 33L47 33L47 32L48 32L48 31L49 31L49 32L50 32L50 30L51 30L51 29L53 29L53 28L52 28L52 27L53 27L53 22L52 22L52 23L51 23L51 25L50 25L50 22L49 22L49 21L52 21L52 19L53 19L53 17L52 17L52 16L51 16L51 17L52 17L52 19L51 19L51 20L50 20L50 19L49 19L49 20L48 20L48 18L50 18L50 15L51 15L51 13L53 13L53 12L50 12L50 11L51 11L51 10L52 10L52 11L53 11L53 8L49 8L49 9L51 9L51 10L50 10L50 11L49 11L49 12L48 12L48 8L47 8L47 14L46 14L46 12L45 12L45 11L46 11L46 9L44 9L44 7L45 7L45 6L44 6L44 7L43 7L43 3L44 3L44 4L45 4L45 3L44 3L44 1L43 1L43 0L42 0L42 1L41 1L41 0L40 0L40 1L41 1L41 3L40 3L40 2L39 2L39 3L38 3L38 5L37 5L37 4L35 4L35 3L37 3L37 2L38 2L38 1L39 1L39 0L38 0L38 1L37 1L37 2L36 2L36 1L34 1L34 2L35 2L35 3L33 3L33 1L31 1L31 0L29 0L29 2L28 2L28 1L27 1L27 2L28 2L28 3L25 3L25 2L26 2L26 1L25 1L25 2L24 2L24 3L22 3L22 2L23 2L23 1L24 1L24 0L23 0L23 1L22 1L22 2L21 2L21 0L13 0L13 1L12 1L12 0ZM11 1L11 2L12 2L12 3L13 3L13 4L12 4L12 5L10 5L10 6L11 6L11 7L12 7L12 5L13 5L13 4L14 4L14 5L15 5L15 4L16 4L16 6L15 6L15 7L14 7L14 6L13 6L13 7L14 7L14 8L16 8L16 9L15 9L15 10L14 10L14 9L13 9L13 12L15 12L15 11L16 11L16 10L18 10L18 11L17 11L17 12L16 12L16 14L15 14L15 13L13 13L13 14L12 14L12 13L11 13L11 14L12 14L12 16L11 16L11 15L10 15L10 16L7 16L7 15L8 15L8 12L7 12L7 11L6 11L6 12L7 12L7 13L5 13L5 14L7 14L7 15L6 15L6 16L5 16L5 18L7 18L7 17L8 17L8 19L6 19L6 20L7 20L7 21L4 21L4 22L5 22L5 23L6 23L6 24L9 24L9 23L10 23L10 22L11 22L11 23L12 23L12 24L11 24L11 25L12 25L12 29L11 29L11 30L12 30L12 29L13 29L13 30L14 30L14 28L15 28L15 27L16 27L16 26L17 26L17 28L16 28L16 30L15 30L15 31L16 31L16 30L18 30L18 31L17 31L17 32L14 32L14 31L13 31L13 33L18 33L18 32L19 32L19 33L20 33L20 32L21 32L21 31L22 31L22 32L23 32L23 33L21 33L21 34L20 34L20 35L19 35L19 34L18 34L18 36L19 36L19 37L23 37L23 40L22 40L22 39L21 39L21 38L20 38L20 40L21 40L21 41L19 41L19 40L18 40L18 41L17 41L17 40L16 40L16 41L15 41L15 43L16 43L16 42L18 42L18 41L19 41L19 43L17 43L17 44L16 44L16 46L15 46L15 45L14 45L14 47L13 47L13 49L14 49L14 47L15 47L15 49L18 49L18 48L19 48L19 49L20 49L20 48L21 48L21 47L22 47L22 48L23 48L23 46L24 46L24 44L25 44L25 43L27 43L27 44L28 44L28 42L29 42L29 43L30 43L30 44L29 44L29 47L30 47L30 44L31 44L31 46L32 46L32 43L33 43L33 44L35 44L35 43L34 43L34 42L35 42L35 40L34 40L34 39L35 39L35 38L36 38L36 39L37 39L37 42L36 42L36 44L37 44L37 43L38 43L38 44L39 44L39 43L40 43L40 45L39 45L39 47L40 47L40 49L39 49L39 48L38 48L38 49L36 49L36 51L37 51L37 50L38 50L38 49L39 49L39 51L40 51L40 50L41 50L41 49L42 49L42 48L43 48L43 47L44 47L44 46L43 46L43 47L42 47L42 48L41 48L41 45L42 45L42 44L41 44L41 43L40 43L40 42L42 42L42 41L43 41L43 40L44 40L44 39L46 39L46 37L47 37L47 36L46 36L46 37L45 37L45 36L44 36L44 38L43 38L43 39L42 39L42 41L41 41L41 37L42 37L42 36L43 36L43 35L46 35L46 34L43 34L43 35L42 35L42 34L41 34L41 32L44 32L44 33L46 33L46 32L47 32L47 31L48 31L48 29L47 29L47 31L46 31L46 29L43 29L43 28L44 28L44 27L43 27L43 28L41 28L41 27L40 27L40 25L42 25L42 20L43 20L43 19L44 19L44 20L45 20L45 18L44 18L44 17L45 17L45 16L47 16L47 15L50 15L50 14L47 14L47 15L45 15L45 14L44 14L44 11L45 11L45 10L44 10L44 9L43 9L43 10L44 10L44 11L42 11L42 12L41 12L41 11L40 11L40 10L41 10L41 8L43 8L43 7L42 7L42 6L41 6L41 7L40 7L40 6L39 6L39 5L38 5L38 6L37 6L37 5L35 5L35 4L33 4L33 3L32 3L32 5L30 5L30 4L31 4L31 2L29 2L29 3L28 3L28 4L29 4L29 9L30 9L30 8L31 8L31 10L30 10L30 12L27 12L27 10L28 10L28 9L27 9L27 10L26 10L26 9L25 9L25 10L23 10L23 8L24 8L24 5L23 5L23 4L22 4L22 3L21 3L21 2L20 2L20 1L19 1L19 3L18 3L18 2L16 2L16 1L15 1L15 3L14 3L14 2L12 2L12 1ZM9 2L9 3L10 3L10 4L11 4L11 3L10 3L10 2ZM42 2L42 3L41 3L41 4L40 4L40 3L39 3L39 4L40 4L40 5L42 5L42 3L43 3L43 2ZM16 3L16 4L17 4L17 6L16 6L16 8L17 8L17 9L18 9L18 10L19 10L19 9L21 9L21 10L20 10L20 11L18 11L18 12L17 12L17 14L16 14L16 16L17 16L17 15L18 15L18 14L19 14L19 15L20 15L20 17L19 17L19 16L18 16L18 17L13 17L13 16L12 16L12 17L11 17L11 16L10 16L10 17L11 17L11 18L10 18L10 20L9 20L9 21L12 21L12 20L13 20L13 22L12 22L12 23L13 23L13 24L12 24L12 25L14 25L14 26L15 26L15 25L16 25L16 23L17 23L17 25L18 25L18 29L19 29L19 32L20 32L20 31L21 31L21 30L23 30L23 32L24 32L24 33L25 33L25 36L23 36L23 37L25 37L25 36L26 36L26 39L24 39L24 40L23 40L23 41L24 41L24 40L26 40L26 42L27 42L27 40L30 40L30 43L31 43L31 42L32 42L32 41L33 41L33 42L34 42L34 41L33 41L33 40L32 40L32 41L31 41L31 40L30 40L30 39L34 39L34 38L31 38L31 37L30 37L30 35L31 35L31 33L30 33L30 34L27 34L27 32L28 32L28 33L29 33L29 31L30 31L30 32L31 32L31 31L33 31L33 32L32 32L32 34L33 34L33 35L32 35L32 37L34 37L34 36L33 36L33 35L35 35L35 37L36 37L36 38L37 38L37 39L39 39L39 40L38 40L38 43L39 43L39 42L40 42L40 41L39 41L39 40L40 40L40 36L39 36L39 35L41 35L41 36L42 36L42 35L41 35L41 34L39 34L39 33L40 33L40 32L39 32L39 33L38 33L38 32L37 32L37 31L36 31L36 32L35 32L35 34L34 34L34 29L35 29L35 30L36 30L36 29L38 29L38 31L41 31L41 30L42 30L42 31L44 31L44 32L46 32L46 31L45 31L45 30L43 30L43 29L41 29L41 30L39 30L39 29L40 29L40 28L39 28L39 29L38 29L38 28L37 28L37 27L39 27L39 25L40 25L40 23L41 23L41 22L39 22L39 21L40 21L40 19L39 19L39 18L41 18L41 20L42 20L42 19L43 19L43 17L44 17L44 14L43 14L43 13L42 13L42 14L40 14L40 11L39 11L39 9L40 9L40 8L38 8L38 7L39 7L39 6L38 6L38 7L37 7L37 6L36 6L36 7L35 7L35 5L34 5L34 7L33 7L33 6L32 6L32 7L33 7L33 8L32 8L32 10L33 10L33 8L35 8L35 10L36 10L36 11L35 11L35 12L34 12L34 13L33 13L33 11L32 11L32 14L33 14L33 16L32 16L32 17L33 17L33 16L34 16L34 17L35 17L35 19L34 19L34 18L33 18L33 19L32 19L32 21L31 21L31 20L30 20L30 21L29 21L29 22L28 22L28 20L29 20L29 19L30 19L30 18L31 18L31 15L29 15L29 14L31 14L31 12L30 12L30 13L29 13L29 14L28 14L28 17L27 17L27 19L28 19L28 20L26 20L26 18L25 18L25 16L24 16L24 15L25 15L25 14L27 14L27 13L26 13L26 12L24 12L24 11L23 11L23 10L22 10L22 9L21 9L21 8L19 8L19 6L18 6L18 3ZM19 3L19 5L21 5L21 3ZM24 3L24 4L25 4L25 3ZM29 3L29 4L30 4L30 3ZM25 5L25 8L28 8L28 5ZM17 6L17 7L18 7L18 6ZM20 6L20 7L21 7L21 6ZM22 6L22 8L23 8L23 6ZM26 6L26 7L27 7L27 6ZM30 6L30 7L31 7L31 6ZM0 8L0 9L2 9L2 8ZM4 8L4 9L3 9L3 10L2 10L2 11L1 11L1 10L0 10L0 11L1 11L1 12L0 12L0 13L2 13L2 11L3 11L3 10L4 10L4 9L7 9L7 8ZM18 8L18 9L19 9L19 8ZM37 8L37 9L36 9L36 10L37 10L37 14L36 14L36 15L37 15L37 16L40 16L40 17L42 17L42 15L40 15L40 14L39 14L39 15L38 15L38 12L39 12L39 11L38 11L38 10L37 10L37 9L38 9L38 8ZM21 10L21 11L22 11L22 10ZM19 12L19 13L23 13L23 14L20 14L20 15L22 15L22 16L23 16L23 15L24 15L24 13L23 13L23 12ZM49 12L49 13L50 13L50 12ZM34 13L34 16L35 16L35 13ZM13 14L13 15L14 15L14 16L15 16L15 14ZM52 14L52 15L53 15L53 14ZM6 16L6 17L7 17L7 16ZM0 17L0 18L1 18L1 17ZM21 17L21 18L20 18L20 19L17 19L17 18L16 18L16 19L15 19L15 21L14 21L14 22L13 22L13 23L14 23L14 24L15 24L15 23L16 23L16 22L17 22L17 23L18 23L18 22L19 22L19 21L24 21L24 22L23 22L23 24L22 24L22 23L21 23L21 22L20 22L20 23L19 23L19 24L18 24L18 25L19 25L19 27L20 27L20 26L21 26L21 25L22 25L22 26L23 26L23 24L25 24L25 23L26 23L26 24L28 24L28 22L25 22L25 20L24 20L24 19L25 19L25 18L24 18L24 17ZM37 17L37 18L38 18L38 17ZM46 17L46 19L47 19L47 18L48 18L48 17ZM13 18L13 20L14 20L14 18ZM22 18L22 20L23 20L23 19L24 19L24 18ZM4 19L4 20L5 20L5 19ZM11 19L11 20L12 20L12 19ZM18 20L18 21L19 21L19 20ZM37 20L37 23L38 23L38 24L39 24L39 23L38 23L38 20ZM46 20L46 22L48 22L48 23L49 23L49 22L48 22L48 21L47 21L47 20ZM1 21L1 22L2 22L2 21ZM7 21L7 22L6 22L6 23L7 23L7 22L8 22L8 21ZM15 21L15 22L16 22L16 21ZM34 21L34 23L36 23L36 22L35 22L35 21ZM43 21L43 22L44 22L44 23L43 23L43 26L44 26L44 23L45 23L45 24L47 24L47 23L45 23L45 22L44 22L44 21ZM29 22L29 24L30 24L30 25L32 25L32 26L33 26L33 25L34 25L34 26L35 26L35 27L33 27L33 28L35 28L35 27L37 27L37 26L38 26L38 25L37 25L37 26L36 26L36 25L35 25L35 24L33 24L33 22L32 22L32 24L30 24L30 23L31 23L31 22ZM20 23L20 24L19 24L19 25L21 25L21 23ZM32 24L32 25L33 25L33 24ZM2 25L2 26L3 26L3 27L2 27L2 28L4 28L4 26L3 26L3 25ZM5 25L5 28L8 28L8 25ZM25 25L25 28L28 28L28 25ZM45 25L45 28L48 28L48 25ZM51 25L51 27L50 27L50 26L49 26L49 29L51 29L51 27L52 27L52 25ZM6 26L6 27L7 27L7 26ZM26 26L26 27L27 27L27 26ZM30 26L30 27L29 27L29 29L27 29L27 31L26 31L26 32L25 32L25 31L24 31L24 32L25 32L25 33L26 33L26 32L27 32L27 31L29 31L29 29L30 29L30 28L31 28L31 29L32 29L32 30L33 30L33 29L32 29L32 28L31 28L31 26ZM46 26L46 27L47 27L47 26ZM21 27L21 28L19 28L19 29L23 29L23 30L24 30L24 29L23 29L23 28L24 28L24 27ZM2 29L2 30L3 30L3 31L4 31L4 32L2 32L2 33L4 33L4 32L5 32L5 31L6 31L6 30L7 30L7 29L6 29L6 30L5 30L5 31L4 31L4 30L3 30L3 29ZM25 29L25 30L26 30L26 29ZM30 30L30 31L31 31L31 30ZM10 31L10 32L11 32L11 31ZM10 33L10 34L9 34L9 36L8 36L8 37L9 37L9 38L8 38L8 41L5 41L5 40L4 40L4 39L3 39L3 42L2 42L2 43L3 43L3 42L4 42L4 41L5 41L5 42L8 42L8 43L9 43L9 44L11 44L11 45L12 45L12 46L11 46L11 48L12 48L12 46L13 46L13 44L11 44L11 43L9 43L9 42L11 42L11 41L12 41L12 42L13 42L13 43L14 43L14 41L13 41L13 40L12 40L12 39L14 39L14 40L15 40L15 37L16 37L16 38L17 38L17 39L18 39L18 37L17 37L17 34L16 34L16 35L14 35L14 34L13 34L13 35L12 35L12 37L13 37L13 38L12 38L12 39L11 39L11 38L10 38L10 37L11 37L11 34L12 34L12 33ZM36 33L36 35L37 35L37 37L38 37L38 33ZM51 33L51 35L50 35L50 36L51 36L51 37L52 37L52 33ZM3 34L3 35L4 35L4 34ZM22 34L22 35L21 35L21 36L22 36L22 35L24 35L24 34ZM26 34L26 36L27 36L27 39L29 39L29 38L30 38L30 37L29 37L29 36L28 36L28 35L27 35L27 34ZM9 36L9 37L10 37L10 36ZM13 36L13 37L15 37L15 36ZM48 36L48 37L49 37L49 36ZM0 37L0 38L1 38L1 37ZM6 37L6 38L5 38L5 39L6 39L6 40L7 40L7 39L6 39L6 38L7 38L7 37ZM10 39L10 40L11 40L11 39ZM21 41L21 42L20 42L20 43L19 43L19 44L17 44L17 45L18 45L18 46L17 46L17 47L18 47L18 46L19 46L19 44L20 44L20 47L19 47L19 48L20 48L20 47L21 47L21 46L23 46L23 45L21 45L21 43L22 43L22 44L23 44L23 43L25 43L25 42L23 42L23 43L22 43L22 41ZM6 44L6 45L7 45L7 44ZM9 45L9 46L10 46L10 45ZM25 45L25 48L28 48L28 45ZM33 45L33 46L34 46L34 47L32 47L32 48L29 48L29 49L27 49L27 50L30 50L30 49L32 49L32 48L35 48L35 45ZM36 45L36 47L37 47L37 45ZM45 45L45 48L48 48L48 45ZM26 46L26 47L27 47L27 46ZM46 46L46 47L47 47L47 46ZM52 46L52 47L53 47L53 46ZM34 49L34 50L35 50L35 49ZM43 49L43 50L44 50L44 49ZM47 49L47 52L48 52L48 51L49 51L49 49ZM22 50L22 52L18 52L18 51L17 51L17 53L22 53L22 52L23 52L23 53L26 53L26 51L25 51L25 52L24 52L24 51L23 51L23 50ZM8 51L8 53L11 53L11 51L10 51L10 52L9 52L9 51ZM50 51L50 52L51 52L51 51ZM0 0L0 7L7 7L7 0ZM1 1L1 6L6 6L6 1ZM2 2L2 5L5 5L5 2ZM46 0L46 7L53 7L53 0ZM47 1L47 6L52 6L52 1ZM48 2L48 5L51 5L51 2ZM0 46L0 53L7 53L7 46ZM1 47L1 52L6 52L6 47ZM2 48L2 51L5 51L5 48Z" fill="#000000"/></g></g></svg>
